SplineFontDB: 3.2
FontName: AndrijScriptCyrillic
FullName: AndrijScriptCyrillic
FamilyName: AndrijScript Cyrillic
Weight: Normal
Copyright: Copyright (c) 2006-09 by AndrijType. All rights reserved.
Version: 001.001
ItalicAngle: 0
UnderlinePosition: -30
UnderlineWidth: 20
Ascent: 800
Descent: 200
InvalidEm: 0
sfntRevision: 0x00010042
LayerCount: 2
Layer: 0 0 "Back" 1
Layer: 1 0 "Fore" 0
XUID: [1021 513 -1838672878 4053]
StyleMap: 0x0040
FSType: 4
OS2Version: 2
OS2_WeightWidthSlopeOnly: 0
OS2_UseTypoMetrics: 0
CreationTime: 1269971757
ModificationTime: 1737311678
PfmFamily: 65
TTFWeight: 400
TTFWidth: 5
LineGap: 14
VLineGap: 0
Panose: 3 2 5 2 4 3 5 2 0 4
OS2TypoAscent: 831
OS2TypoAOffset: 0
OS2TypoDescent: -441
OS2TypoDOffset: 0
OS2TypoLinegap: 14
OS2WinAscent: 831
OS2WinAOffset: 0
OS2WinDescent: 645
OS2WinDOffset: 0
HheadAscent: 831
HheadAOffset: 0
HheadDescent: -441
HheadDOffset: 0
OS2SubXSize: 700
OS2SubYSize: 650
OS2SubXOff: 0
OS2SubYOff: 140
OS2SupXSize: 700
OS2SupYSize: 650
OS2SupXOff: 0
OS2SupYOff: 477
OS2StrikeYSize: 50
OS2StrikeYPos: 250
OS2CapHeight: 377
OS2XHeight: 267
OS2Vendor: 'MYFO'
OS2CodePages: 00000004.00000000
OS2UnicodeRanges: 80000203.4000004a.00000000.00000000
Lookup: 4 0 0 "'dlig' Discretionary Ligatures lookup 0" { "'dlig' Discretionary Ligatures lookup 0 subtable"  } ['dlig' ('cyrl' <'dflt' > 'latn' <'dflt' > ) ]
Lookup: 4 0 1 "'liga' Standard Ligatures lookup 1" { "'liga' Standard Ligatures lookup 1 subtable"  } ['liga' ('cyrl' <'dflt' > 'latn' <'dflt' > ) ]
Lookup: 4 0 0 "'frac' Diagonal Fractions in Latin lookup 2" { "'frac' Diagonal Fractions in Latin lookup 2 subtable"  } ['frac' ('latn' <'dflt' > ) ]
Lookup: 4 0 0 "'frac' Diagonal Fractions in Cyrillic lookup 3" { "'frac' Diagonal Fractions in Cyrillic lookup 3 subtable"  } ['frac' ('cyrl' <'dflt' > ) ]

StartChar: exclam
Encoding: 33 33 3
Width: 378
GlyphClass: 2
Flags: MW
HStem: 2 80<88 108>
VStem: 58 40<2 22> 68 60<20 62>
LayerCount: 2
Fore
SplineSet
58 22 m 1xc0
 68 52 l 1
 68 72 88 82 108 82 c 1
 108 82 138 82 138 72 c 1
 128 52 128 42 128 32 c 0xa0
 128 8 98 16 98 2 c 1
 78 2 58 2 58 22 c 1xc0
114 212 m 0
 153 393 185 496 232 718 c 0
 232 730 260 744 280 744 c 0
 292 744 302 740 302 728 c 0
 302 651 179 196 132 196 c 0
 122 196 114 200 114 212 c 0
EndSplineSet
Validated: 1
EndChar

StartChar: quotedbl
Encoding: 34 34 4
Width: 346
GlyphClass: 2
Flags: MW
HStem: 325 32<47.5 61 45 71.5>
VStem: 158 60<470.5 507> 230 68<398 413.5>
LayerCount: 2
Fore
SplineSet
30 347 m 0
 30 353 42 357 48 357 c 0
 74 357 158 425 158 507 c 1
 156 513 l 1
 156 531 186 545 204 545 c 0
 212 545 218 543 218 519 c 0
 218 422 89 325 54 325 c 0
 41 325 30 336 30 347 c 0
108 297 m 0
 108 314 230 326 230 409 c 0
 230 418 228 424 228 427 c 0
 228 449 258 465 280 465 c 0
 288 465 298 460 298 441 c 0
 298 355 200 281 126 281 c 0
 118 281 108 285 108 297 c 0
EndSplineSet
Validated: 1
EndChar

StartChar: numbersign
Encoding: 35 35 5
Width: 718
GlyphClass: 2
Flags: MW
HStem: -1 21G<336 349> 135 52<66 125>
VStem: 326 70
LayerCount: 2
Fore
SplineSet
46 143 m 0
 46 175 120 187 120 187 c 1
 130 187 138 183 140 179 c 1
 166 181 190 183 216 187 c 1
 224 213 232 241 242 267 c 1
 86 235 l 2
 68 235 60 243 60 251 c 0
 60 279 196 297 258 309 c 1
 282 365 308 421 336 475 c 0
 342 485 366 495 384 495 c 0
 396 495 406 491 406 475 c 1
 378 425 356 373 334 321 c 1
 370 329 408 335 444 341 c 1
 466 401 480 517 550 517 c 0
 560 517 566 515 566 505 c 0
 550 453 532 403 512 353 c 1
 658 377 l 2
 670 377 676 371 676 365 c 0
 676 327 550 321 494 311 c 1
 486 287 478 265 468 243 c 1
 540 261 612 279 686 295 c 2
 698 297 l 2
 710 297 716 291 716 285 c 0
 716 249 528 221 452 201 c 1
 430 143 410 83 396 25 c 0
 390 13 358 -1 340 -1 c 0
 332 -1 326 3 326 15 c 0
 344 73 364 129 386 185 c 1
 274 161 l 1
 251 89 233 17 216 -55 c 0
 211 -75 181 -85 164 -85 c 0
 154 -85 146 -83 146 -75 c 0
 162 -1 180 75 202 149 c 1
 164 143 126 139 86 135 c 1
 66 135 l 2
 52 135 46 137 46 143 c 0
288 201 m 1
 400 225 l 1
 410 251 420 275 428 299 c 1
 392 293 354 287 316 279 c 1
 306 253 296 227 288 201 c 1
EndSplineSet
Validated: 1
EndChar

StartChar: dollar
Encoding: 36 36 6
Width: 532
GlyphClass: 2
Flags: MW
HStem: 404 40<359 409.5>
VStem: 139 58<300.5 322> 160 61<-169.5 -143> 351 68<91 111>
LayerCount: 2
Fore
SplineSet
50 82 m 0xb0
 50 96 78 114 97 114 c 0
 103 114 109 112 111 107 c 0
 130 74 166 52 205 43 c 1
 217 94 228 144 241 194 c 1
 163 231 139 256 139 293 c 0xd0
 139 351 232 417 309 434 c 1
 335 510 381 616 454 616 c 0
 462 616 468 614 468 609 c 0
 468 606 466 602 461 597 c 0
 421 557 393 503 372 444 c 1
 447 444 494 423 494 400 c 0
 494 386 464 370 441 370 c 0
 433 370 426 372 421 377 c 0
 405 396 385 404 359 404 c 1
 339 340 325 275 311 219 c 1
 368 189 419 162 419 114 c 0
 419 68 340 23 258 6 c 1
 221 -143 l 2
 216 -161 192 -174 174 -174 c 0
 166 -174 160 -172 160 -167 c 0
 160 -151 180 -90 195 0 c 1
 124 0 50 44 50 82 c 0xb0
197 315 m 0
 197 286 238 266 257 250 c 1
 270 289 282 342 297 393 c 1
 281 389 197 357 197 315 c 0
267 40 m 1
 308 47 351 70 351 100 c 0
 351 122 327 144 297 163 c 1
 267 40 l 1
EndSplineSet
Validated: 1
EndChar

StartChar: percent
Encoding: 37 37 7
Width: 436
GlyphClass: 3
Flags: MW
HStem: -15 21G<64 79> 25 51<334 340.5 334 350> 125 40<344.5 349.5> 267 48<107 149.5> 373 42<189 195>
VStem: 78 63<319 332 319 344> 266 62<82.5 93 82.5 93> 352 66<101 168>
LayerCount: 2
Fore
SplineSet
48 -1 m 2
 48 5 l 1
 110 147 210 257 316 363 c 1
 278 355 244 345 218 325 c 0
 200 307 156 267 120 267 c 0
 94 267 78 295 78 317 c 0
 78 371 162 415 216 415 c 0
 234 415 236 411 236 407 c 0
 236 395 204 373 186 373 c 0
 184 373 180 373 178 375 c 0
 159 375 141 344 141 320 c 0
 141 318 142 315 144 315 c 0
 155 315 158 330 168 335 c 0
 244 377 348 415 388 415 c 0
 396 415 414 415 414 407 c 0
 414 405 412 399 408 395 c 0
 288 275 178 165 118 5 c 0
 112 -5 88 -15 70 -15 c 0
 58 -15 48 -11 48 -1 c 2
266 69 m 0
 266 117 315 165 372 165 c 1
 382 171 394 173 404 173 c 0
 412 173 418 171 418 165 c 0
 418 99 382 25 318 25 c 0
 284 25 266 45 266 69 c 0
328 85 m 0
 328 80 331 76 337 76 c 0
 344 76 352 89 352 113 c 0
 352 120 351 125 348 125 c 0
 341 125 328 101 328 85 c 0
EndSplineSet
Validated: 1
Ligature2: "'frac' Diagonal Fractions in Cyrillic lookup 3 subtable" zero slash zero
Ligature2: "'frac' Diagonal Fractions in Latin lookup 2 subtable" zero slash zero
EndChar

StartChar: ampersand
Encoding: 38 38 8
Width: 813
GlyphClass: 2
Flags: MW
HStem: -297 39<882 896> -65 40<279 348.5> 568 39<402 418.5>
VStem: 100 68<58 158 58 165> 332 67<519 544 519 549.5> 472 71<476 498.5> 683 60<347 353.5>
LayerCount: 2
Fore
SplineSet
100 91 m 0
 100 239 248 325 361 385 c 1
 353 422 332 475 332 520 c 0
 332 579 373 607 410 607 c 0
 468 607 543 546 543 497 c 0
 543 452 486 414 435 384 c 1
 471 280 528 178 583 89 c 1
 643 153 677 240 683 347 c 0
 683 360 707 372 725 372 c 0
 735 372 743 368 743 357 c 0
 743 234 704 127 608 49 c 1
 649 -16 694 -78 743 -133 c 0
 778 -168 853 -258 911 -258 c 0
 927 -258 936 -251 948 -251 c 0
 961 -251 968 -256 968 -263 c 0
 968 -281 911 -297 881 -297 c 0
 758 -297 621 -92 553 11 c 1
 483 -31 392 -65 305 -65 c 0
 191 -65 100 -24 100 91 c 0
168 98 m 0
 168 18 245 -25 313 -25 c 0
 387 -25 474 7 531 45 c 1
 469 140 417 247 373 351 c 1
 270 294 168 218 168 98 c 0
399 539 m 0
 399 499 424 422 424 422 c 1
 450 440 472 463 472 489 c 0
 472 508 433 568 404 568 c 0
 400 568 399 549 399 539 c 0
EndSplineSet
Validated: 1
EndChar

StartChar: quotesingle
Encoding: 39 39 9
Width: 189
GlyphClass: 2
Flags: MW
HStem: 310 140<61 175>
VStem: 121 70<415 430>
LayerCount: 2
Fore
SplineSet
47 322 m 0
 47 344 121 374 121 424 c 0
 121 436 149 450 169 450 c 0
 181 450 191 446 191 434 c 0
 191 396 109 310 65 310 c 0
 57 310 47 314 47 322 c 0
EndSplineSet
Validated: 1
EndChar

StartChar: parenleft
Encoding: 40 40 10
Width: 319
GlyphClass: 2
Flags: MW
HStem: 665 40<452 462>
VStem: 92 66<115.5 294.5 102 315>
LayerCount: 2
Fore
SplineSet
92 193 m 0
 92 437 284 705 482 705 c 0
 494 705 498 703 498 697 c 0
 498 685 472 665 452 665 c 0
 284 637 158 364 158 225 c 0
 158 -21 336 -73 336 -103 c 0
 336 -117 310 -131 290 -131 c 0
 224 -131 92 38 92 193 c 0
EndSplineSet
Validated: 1
EndChar

StartChar: parenright
Encoding: 41 41 11
Width: 454
GlyphClass: 2
Flags: MW
VStem: 256 70<224 358>
LayerCount: 2
Fore
SplineSet
38 -164 m 0
 38 -160 42 -154 48 -148 c 0
 198 -30 256 126 256 288 c 0
 256 428 212 572 148 702 c 1
 146 708 l 1
 146 726 176 740 198 740 c 0
 208 740 216 738 218 732 c 0
 284 596 326 450 326 312 c 0
 326 136 260 -30 98 -157 c 0
 84 -168 66 -172 54 -172 c 0
 44 -172 38 -170 38 -164 c 0
EndSplineSet
Validated: 1
EndChar

StartChar: asterisk
Encoding: 42 42 12
Width: 476
GlyphClass: 2
Flags: MW
HStem: 307 69 324 42<71 118>
VStem: 197 74
LayerCount: 2
Fore
SplineSet
63 336 m 0x60
 63 351 92 366 111 366 c 0x60
 125 366 170 355 197 344 c 1
 201 434 l 2
 201 447 228 459 250 459 c 0
 262 459 271 455 271 444 c 0
 271 423 261 376 259 344 c 1
 309 344 353 376 380 376 c 0
 386 376 394 371 394 358 c 0
 394 333 323 314 270 307 c 1xa0
 300 256 362 210 362 200 c 0
 362 185 327 167 306 167 c 0
 290 167 258 230 233 256 c 1
 194 219 171 138 127 138 c 0
 117 138 110 140 110 148 c 0
 110 187 182 260 182 279 c 0
 182 310 107 324 71 324 c 1
 65 328 63 332 63 336 c 0x60
EndSplineSet
Validated: 1
EndChar

StartChar: plus
Encoding: 43 43 13
Width: 456
GlyphClass: 2
Flags: MW
HStem: 183 40<382 404>
VStem: 143 71<103 103 103 104.5> 214 70<353 368.5>
LayerCount: 2
Fore
SplineSet
9 200 m 0xc0
 9 233 127 233 181 233 c 1
 191 268 202 307 214 353 c 0
 214 366 242 378 263 378 c 0
 275 378 284 374 284 363 c 0xa0
 273 310 253 270 242 227 c 1
 286 223 330 223 434 223 c 0
 446 223 451 219 451 214 c 0
 451 202 425 183 404 183 c 2
 232 183 l 1
 214 103 l 2
 208 90 178 78 159 78 c 0
 150 78 143 81 143 88 c 0
 143 121 160 162 169 193 c 1
 147 195 124 197 101 197 c 0
 74 197 49 188 25 188 c 0
 15 188 9 193 9 200 c 0xc0
EndSplineSet
Validated: 1
EndChar

StartChar: comma
Encoding: 44 44 14
Width: 364
GlyphClass: 2
Flags: MW
HStem: -148 251<36 192.5>
VStem: 132 73<6 35>
LayerCount: 2
Fore
SplineSet
22 -134 m 0
 22 -109 132 -77 132 29 c 0
 132 41 132 55 130 69 c 0
 130 89 160 103 180 103 c 0
 205 103 205 78 205 51 c 0
 205 -39 91 -148 44 -148 c 0
 28 -148 22 -142 22 -134 c 0
EndSplineSet
Validated: 1
EndChar

StartChar: hyphen
Encoding: 45 45 15
Width: 500
GlyphClass: 2
Flags: MW
HStem: 191 43<191.5 245>
LayerCount: 2
Fore
SplineSet
24 187 m 0
 24 233 152 234 231 234 c 0
 293 234 477 228 477 212 c 0
 477 200 451 182 437 182 c 0
 400 182 314 191 176 191 c 0
 119 191 78 181 35 181 c 0
 27 181 24 183 24 187 c 0
EndSplineSet
Validated: 1
EndChar

StartChar: period
Encoding: 46 46 16
Width: 328
GlyphClass: 2
Flags: MW
HStem: 61 70<92 151>
VStem: 74 92<66 116>
LayerCount: 2
Fore
SplineSet
74 71 m 0
 74 105 114 131 146 131 c 0
 156 131 166 121 166 111 c 0
 166 106 123 61 96 61 c 0
 88 61 74 61 74 71 c 0
EndSplineSet
Validated: 1
EndChar

StartChar: slash
Encoding: 47 47 17
Width: 552
GlyphClass: 2
Flags: MW
HStem: -174 21G<-120 -107> 650 20G<675 687>
LayerCount: 2
Fore
SplineSet
-137 -162 m 0
 -137 -158 -135 -154 -129 -150 c 0
 171 68 385 359 631 648 c 0
 637 660 667 670 683 670 c 0
 691 670 695 668 695 664 c 0
 695 662 693 660 691 658 c 0
 452 347 221 58 -79 -162 c 0
 -87 -170 -101 -174 -113 -174 c 0
 -127 -174 -137 -170 -137 -162 c 0
EndSplineSet
Validated: 1
EndChar

StartChar: zero
Encoding: 48 48 18
Width: 392
GlyphClass: 2
Flags: MW
HStem: 5 44<150.5 201.5 150.5 208.5> 183 70<161 220> 369 47<183.5 221>
VStem: 53 61<144 205.5> 263 72<253.5 299>
LayerCount: 2
Fore
SplineSet
53 147 m 0
 53 264 110 416 233 416 c 0
 305 416 335 349 335 276 c 0
 335 157 259 5 158 5 c 0
 80 5 53 74 53 147 c 0
114 160 m 0
 114 128 128 49 173 49 c 0
 230 49 263 231 263 276 c 0
 263 322 237 369 205 369 c 0
 162 369 114 263 114 160 c 0
143 193 m 0
 143 227 183 253 215 253 c 0
 225 253 235 243 235 233 c 0
 235 228 192 183 165 183 c 0
 157 183 143 183 143 193 c 0
EndSplineSet
Validated: 1
EndChar

StartChar: one
Encoding: 49 49 19
Width: 377
GlyphClass: 2
Flags: MW
HStem: -11 51<103.5 105.5>
VStem: 22 300<180 403.5>
LayerCount: 2
Fore
SplineSet
22 183 m 0
 22 191 29 203 48 210 c 0
 146 244 214 328 259 390 c 0
 269 403 286 409 304 409 c 0
 314 409 322 407 322 400 c 0
 322 397 321 394 318 390 c 0
 259 309 270 122 199 35 c 1
 243 32 285 26 285 21 c 0
 285 9 259 -10 238 -10 c 2
 143 -3 l 1
 129 -8 114 -11 97 -11 c 0
 84 -11 66 -9 66 16 c 0
 66 32 99 40 108 40 c 0
 116 40 128 40 144 39 c 1
 191 117 197 195 211 269 c 1
 169 233 94 173 35 173 c 0
 27 173 22 177 22 183 c 0
EndSplineSet
Validated: 1
EndChar

StartChar: two
Encoding: 50 50 20
Width: 495
GlyphClass: 2
Flags: MW
HStem: 8 100<54.5 143.5> 15 42<298.5 333.5 298.5 335.5> 373 47<252 275>
VStem: 103 70<276 301> 318 72<296.5 332>
LayerCount: 2
Fore
SplineSet
38 33 m 0xb8
 38 83 84 108 139 108 c 0xb8
 148 108 157 107 165 105 c 1
 235 162 318 252 318 317 c 0
 318 347 290 373 260 373 c 0
 216 373 173 327 173 276 c 1
 183 276 190 272 190 264 c 0
 190 261 162 218 131 218 c 0
 108 218 103 241 103 260 c 0
 103 342 208 420 296 420 c 0
 362 420 390 373 390 335 c 0
 390 258 298 160 208 91 c 1
 244 76 279 57 318 57 c 0
 349 57 315 133 381 133 c 0
 391 133 399 129 399 118 c 0
 399 57 374 15 297 15 c 0x78
 248 15 209 50 161 58 c 1
 120 31 82 8 59 8 c 0
 50 8 38 9 38 33 c 0xb8
EndSplineSet
Validated: 1
EndChar

StartChar: three
Encoding: 51 51 21
Width: 429
GlyphClass: 2
Flags: MW
HStem: -137 29<131.5 168 131.5 168> 384 37
VStem: 4 70<-10 -2> 150 74<194.5 235> 235 64<-12 57.5>
LayerCount: 2
Fore
SplineSet
4 -9 m 0
 4 5 39 19 60 19 c 0
 68 19 74 17 74 11 c 0
 74 -31 109 -108 154 -108 c 0
 182 -108 235 -55 235 22 c 0
 235 93 150 139 150 208 c 0
 150 262 253 337 335 383 c 1
 326 384 316 384 307 384 c 0
 253 384 196 378 196 351 c 1
 205 326 l 1
 205 312 175 294 153 294 c 0
 127 294 121 327 121 339 c 0
 121 415 309 421 434 421 c 0
 445 421 449 417 449 413 c 0
 449 374 224 330 224 223 c 0
 224 166 299 100 299 34 c 0
 299 -58 211 -137 125 -137 c 0
 63 -137 4 -97 4 -9 c 0
EndSplineSet
Validated: 1
EndChar

StartChar: four
Encoding: 52 52 22
Width: 460
GlyphClass: 2
Flags: MW
HStem: 158 40<337.5 343.5> 348 40<356.5 367.5>
LayerCount: 2
Fore
SplineSet
-12 125 m 0
 -12 185 32 219 93 226 c 1
 114 256 146 289 231 408 c 0
 236 415 247 428 276 428 c 0
 289 428 300 424 300 414 c 0
 300 412 300 410 299 408 c 0
 267 376 210 295 152 224 c 1
 174 221 203 215 232 210 c 1
 269 305 321 388 379 388 c 0
 395 388 401 384 401 379 c 0
 401 367 376 348 359 348 c 0
 354 348 317 266 293 201 c 1
 313 199 330 198 345 198 c 0
 391 198 384 238 431 238 c 0
 441 238 449 235 449 228 c 0
 449 212 408 158 279 158 c 1
 229 -12 l 2
 225 -26 193 -37 174 -37 c 0
 165 -37 158 -34 158 -27 c 0
 158 -8 208 140 218 171 c 1
 186 176 154 188 121 188 c 1
 77 138 34 99 2 99 c 0
 -10 99 -12 114 -12 125 c 0
EndSplineSet
Validated: 1
EndChar

StartChar: five
Encoding: 53 53 23
Width: 377
GlyphClass: 2
Flags: MW
HStem: -85 48<89.5 124.5 89.5 127> 386 37<380 417.5 380 425> 397 39<209.5 264.5>
VStem: 92 67<208.5 280> 162 59<11.5 44.5> 452 70
LayerCount: 2
Fore
SplineSet
1 -28 m 0xbc
 1 -9 32 4 53 4 c 0
 86 4 67 -37 112 -37 c 0
 137 -37 162 -14 162 16 c 0
 162 73 92 154 92 251 c 0
 92 309 130 436 262 436 c 0xbc
 282 436 355 423 405 423 c 0xdc
 430 423 448 426 452 436 c 0xbc
 457 449 485 461 503 461 c 0
 514 461 522 457 522 446 c 0
 522 408 458 386 392 386 c 0xdc
 338 386 287 397 242 397 c 0
 177 397 159 318 159 252 c 0
 159 165 221 100 221 34 c 0
 221 -11 170 -85 84 -85 c 0
 58 -85 1 -69 1 -28 c 0xbc
EndSplineSet
Validated: 1
EndChar

StartChar: six
Encoding: 54 54 24
Width: 387
GlyphClass: 2
Flags: MW
HStem: -10 45<123.5 151.5 123.5 166.5> 442 48<281 317>
VStem: 43 61<108 134.5 108 164> 184 66<114.5 121>
LayerCount: 2
Fore
SplineSet
43 97 m 0
 43 231 177 490 342 490 c 0
 358 490 385 480 385 457 c 0
 385 438 360 426 341 426 c 0
 323 426 324 442 310 442 c 0
 252 442 199 371 161 296 c 1
 198 296 250 222 250 151 c 0
 250 78 205 -10 128 -10 c 0
 80 -10 43 27 43 97 c 0
104 124 m 0
 104 92 107 35 140 35 c 0
 163 35 184 72 184 94 c 0
 184 148 176 211 137 244 c 1
 116 192 104 145 104 124 c 0
EndSplineSet
Validated: 1
EndChar

StartChar: seven
Encoding: 55 55 25
Width: 402
GlyphClass: 2
Flags: MW
HStem: 339 61<358 423 358 423> 394 40<154 193.5>
VStem: 62 70<285 289 289 342> 102 70<-87.5 -15>
LayerCount: 2
Fore
SplineSet
62 311 m 0x60
 62 373 71 434 182 434 c 0x60
 245 434 300 396 355 385 c 1
 374 394 394 400 415 400 c 0
 431 400 437 394 437 386 c 0
 437 368 404 339 372 339 c 2
 358 339 l 1
 248 229 172 85 172 -81 c 0
 172 -94 144 -106 123 -106 c 0
 111 -106 102 -102 102 -91 c 0x90
 102 61 185 244 305 351 c 1
 260 367 224 394 163 394 c 0
 145 394 132 388 132 369 c 2
 132 289 l 2
 132 269 103 254 82 254 c 0
 71 254 62 259 62 311 c 0x60
EndSplineSet
Validated: 1
EndChar

StartChar: eight
Encoding: 56 56 26
Width: 372
GlyphClass: 2
Flags: MW
HStem: -11 41<143 165.5 143 167> 416 42<222.5 240.5>
VStem: 42 70<66 112 66 118.5> 125 61<357.5 361.5> 196 66<81 97> 266 60<354.5 389.5>
LayerCount: 2
Fore
SplineSet
42 83 m 0
 42 154 95 196 150 235 c 1
 136 269 125 302 125 337 c 0
 125 386 166 458 249 458 c 0
 289 458 326 435 326 385 c 0
 326 304 277 270 227 238 c 1
 245 198 262 157 262 111 c 0
 262 51 205 -11 129 -11 c 0
 75 -11 42 30 42 83 c 0
112 85 m 0
 112 47 131 30 155 30 c 0
 176 30 196 46 196 75 c 0
 196 119 182 159 166 197 c 1
 135 172 112 139 112 85 c 0
186 375 m 0
 186 340 196 309 209 278 c 1
 241 305 266 334 266 375 c 0
 266 404 249 416 232 416 c 0
 213 416 186 403 186 375 c 0
EndSplineSet
Validated: 1
EndChar

StartChar: nine
Encoding: 57 57 27
Width: 357
GlyphClass: 2
Flags: MW
HStem: 130 46<53 119> 392 42<211.5 226>
VStem: 10 62<210 260 210 267> 244 70<340 406>
LayerCount: 2
Fore
SplineSet
6 -125 m 0
 6 -119 11 -109 23 -101 c 0
 113 -41 192 105 225 236 c 1
 175 180 113 130 68 130 c 0
 38 130 10 156 10 208 c 0
 10 326 163 434 260 434 c 0
 289 434 314 423 314 389 c 1
 302 346 l 1
 288 177 199 -43 53 -131 c 0
 44 -137 35 -139 27 -139 c 0
 15 -139 6 -134 6 -125 c 0
72 217 m 0
 72 203 83 176 98 176 c 0
 140 176 244 318 244 362 c 0
 244 384 233 392 219 392 c 0
 164 392 72 303 72 217 c 0
EndSplineSet
Validated: 1
EndChar

StartChar: colon
Encoding: 58 58 28
Width: 354
GlyphClass: 2
Flags: MW
HStem: 62 64<92.5 146.5> 258 63<115 167.5>
VStem: 100 65<105 110.5> 100 84<268 311>
LayerCount: 2
Fore
SplineSet
86 70 m 0xe0
 86 78 88 86 100 105 c 1
 100 116 121 126 142 126 c 0
 151 126 165 126 165 116 c 0
 165 73 121 62 97 62 c 0
 88 62 86 64 86 70 c 0xe0
100 273 m 0
 100 300 135 321 161 321 c 0
 174 321 184 317 184 305 c 0xd0
 184 291 155 258 121 258 c 0
 109 258 100 263 100 273 c 0
EndSplineSet
Validated: 1
EndChar

StartChar: semicolon
Encoding: 59 59 29
Width: 328
GlyphClass: 2
Flags: MW
HStem: 220 70<92 151>
VStem: 132 73<9.5 35>
LayerCount: 2
Fore
SplineSet
22 -134 m 0
 22 -109 132 -77 132 29 c 0
 132 41 130 55 130 69 c 0
 130 89 160 103 180 103 c 0
 205 103 205 78 205 58 c 0
 205 -39 91 -148 44 -148 c 0
 28 -148 22 -142 22 -134 c 0
74 230 m 0
 74 264 114 290 146 290 c 0
 156 290 166 280 166 270 c 0
 166 265 123 220 96 220 c 0
 88 220 74 220 74 230 c 0
EndSplineSet
Validated: 1
EndChar

StartChar: less
Encoding: 60 60 30
Width: 502
GlyphClass: 2
Flags: MW
HStem: -65 21G<296 334> 345 20G<377 403>
LayerCount: 2
Fore
SplineSet
56 167 m 0
 56 177 356 365 398 365 c 0
 408 365 416 363 416 359 c 0
 416 344 245 222 136 177 c 1
 262 50 372 -29 372 -35 c 0
 372 -47 344 -65 324 -65 c 0
 268 -65 124 110 58 161 c 0
 56 163 56 165 56 167 c 0
EndSplineSet
Validated: 1
EndChar

StartChar: equal
Encoding: 61 61 31
Width: 484
GlyphClass: 2
Flags: MW
HStem: 271 40<223 243> 278 40<433 459>
LayerCount: 2
Fore
SplineSet
29 269 m 0x80
 29 291 153 308 243 311 c 2x80
 453 318 l 2
 465 318 470 314 470 309 c 0
 470 297 447 278 433 278 c 2x40
 223 271 l 2
 99 267 101 261 53 258 c 0
 36 258 29 263 29 269 c 0x80
31 120 m 0
 31 175 326 180 423 188 c 0
 440 188 447 183 447 177 c 0
 447 165 423 148 403 148 c 0
 283 138 173 138 53 118 c 0
 46 115 41 113 38 113 c 0
 33 113 31 116 31 120 c 0
EndSplineSet
Validated: 1
EndChar

StartChar: greater
Encoding: 62 62 32
Width: 536
GlyphClass: 2
Flags: MW
HStem: -65 21G<93 106> 351 20G<215 227>
LayerCount: 2
Fore
SplineSet
80 -57 m 0
 80 -53 82 -51 88 -45 c 0
 171 54 292 97 406 147 c 1
 326 207 240 255 178 335 c 0
 176 337 174 341 174 343 c 0
 174 357 206 371 224 371 c 0
 230 371 236 369 238 365 c 0
 308 275 408 225 498 155 c 0
 500 153 502 153 502 151 c 0
 502 141 458 125 458 125 c 1
 346 77 220 47 138 -55 c 0
 134 -59 114 -65 98 -65 c 0
 88 -65 80 -63 80 -57 c 0
EndSplineSet
Validated: 1
EndChar

StartChar: question
Encoding: 63 63 33
Width: 540
GlyphClass: 2
Flags: MW
HStem: -28 118<184 195> 696 48<268 335>
VStem: 113 62<560 620.5 556 625.5> 146 90<-7 70> 422 60<520.5 618>
LayerCount: 2
Fore
SplineSet
113 579 m 0xe8
 113 672 204 744 312 744 c 0
 423 744 482 680 482 599 c 0
 482 423 264 342 243 212 c 1
 237 200 211 192 193 192 c 0
 181 192 173 194 173 202 c 0
 175 312 422 468 422 573 c 0
 422 663 372 696 298 696 c 0
 238 696 175 654 175 587 c 0
 175 525 225 507 225 496 c 0
 225 482 199 468 179 468 c 0
 133 468 113 541 113 579 c 0xe8
146 64 m 0xd8
 146 76 174 90 194 90 c 0
 205 90 236 34 236 0 c 0
 236 -14 204 -28 186 -28 c 0
 156 -28 146 30 146 64 c 0xd8
EndSplineSet
Validated: 1
EndChar

StartChar: at
Encoding: 64 64 34
Width: 1242
GlyphClass: 2
Flags: MW
HStem: -194 40<648 792 648 804.5> 55 40<742 813 742 851> 119 58<452 510> 289 42<558.5 577> 723 36<572.5 729>
VStem: 126 62<189.5 326.5 189.5 396.5> 422 74<132 188.5> 588 64<151 166> 1026 60<357 495.5>
LayerCount: 2
Fore
SplineSet
126 255 m 0
 126 538 385 759 660 759 c 0
 876 759 1086 615 1086 427 c 0
 1086 287 944 55 758 55 c 0
 688 55 588 79 588 163 c 0
 588 169 588 177 590 183 c 1
 550 147 502 119 458 119 c 0
 446 119 422 120 422 144 c 0
 422 198 523 331 592 331 c 0
 608 331 626 327 642 313 c 1
 658 321 678 329 690 329 c 0
 698 329 702 327 702 321 c 0
 686 283 652 227 652 181 c 0
 652 121 720 95 764 95 c 0
 862 95 1026 249 1026 405 c 0
 1026 586 830 723 628 723 c 0
 517 723 415 675 337 601 c 0
 246 514 188 390 188 263 c 0
 188 116 274 5 389 -65 c 0
 484 -123 598 -154 698 -154 c 0
 886 -154 970 -35 1010 -35 c 0
 1022 -35 1032 -39 1032 -49 c 0
 1032 -59 921 -194 688 -194 c 0
 426 -194 126 -39 126 255 c 0
496 183 m 0
 496 179 498 177 502 177 c 0
 518 177 591 240 614 283 c 1
 603 286 582 289 572 289 c 0
 545 289 496 194 496 183 c 0
EndSplineSet
Validated: 1
EndChar

StartChar: A
Encoding: 65 65 35
Width: 976
GlyphClass: 2
Flags: MW
HStem: 23 44<273 326> 197 40<746 746> 317 44<304 314>
VStem: 140 66<132 186 132 195> 806 70<569 576.5> 905 62
LayerCount: 2
Fore
SplineSet
140 147 m 0
 140 243 218 361 316 361 c 0
 330 361 356 357 356 351 c 0
 356 341 322 317 306 317 c 0
 302 317 296 319 292 319 c 0
 232 319 206 205 206 167 c 0
 206 97 248 67 298 67 c 0
 372 67 446 133 506 193 c 1
 496 193 482 198 482 207 c 0
 482 222 506 233 526 233 c 2
 548 233 l 1
 648 335 738 457 806 569 c 1
 806 584 844 609 864 609 c 0
 870 609 876 605 876 597 c 0
 876 367 909 140 965 -83 c 2
 967 -91 l 1
 967 -109 941 -121 923 -121 c 0
 915 -121 907 -119 905 -113 c 0
 844 89 822 285 810 485 c 1
 748 395 676 305 604 227 c 1
 691 227 718 237 766 237 c 0
 782 237 788 233 788 227 c 0
 788 214 760 198 746 197 c 2
 566 187 l 1
 476 107 378 23 274 23 c 0
 178 23 140 81 140 147 c 0
EndSplineSet
Validated: 1
EndChar

StartChar: B
Encoding: 66 66 36
Width: 800
GlyphClass: 2
Flags: MW
HStem: -35 41<521 570> 252 39<479.5 484> 550 40<620.5 690.5>
VStem: 180 61 311 70<546 591> 380 61<34 84> 685 69<80.5 144> 718 69<467 511>
LayerCount: 2
Fore
SplineSet
180 -45 m 0xf1
 180 -43 180 -41 181 -39 c 0
 241 142 311 397 311 581 c 0
 311 601 340 616 361 616 c 0
 372 616 381 611 381 601 c 0
 381 491 355 370 323 260 c 2
 312 222 l 1
 392 355 538 590 703 590 c 0
 748 590 787 559 787 508 c 0xf9
 787 405 669 323 563 286 c 1
 657 264 754 203 754 120 c 0
 754 41 637 -35 503 -35 c 0
 440 -35 380 11 380 57 c 0
 380 76 410 89 428 89 c 0
 436 89 441 87 441 81 c 0
 452 28 497 6 545 6 c 0
 612 6 685 49 685 106 c 0xf6
 685 182 560 251 484 252 c 0
 474 252 454 252 454 260 c 0
 454 278 468 291 491 291 c 0
 616 309 718 433 718 501 c 0
 718 521 705 550 676 550 c 0
 553 550 288 163 241 -29 c 0
 238 -42 204 -54 188 -54 c 0
 183 -54 180 -50 180 -45 c 0xf1
EndSplineSet
Validated: 1
EndChar

StartChar: C
Encoding: 67 67 37
Width: 730
GlyphClass: 2
Flags: MW
HStem: -28 48<354 431> 362 40<509 533> 546 48<452 553>
VStem: 190 66<131 233> 606 68<454 490>
LayerCount: 2
Fore
SplineSet
190 164 m 0
 190 302 336 594 552 594 c 0
 614 594 674 556 674 502 c 0
 674 406 570 362 496 362 c 0
 484 362 478 366 478 372 c 0
 478 384 502 402 516 402 c 0
 580 402 606 436 606 472 c 0
 606 508 576 546 530 546 c 0
 374 546 256 319 256 182 c 0
 256 80 316 20 392 20 c 0
 484 20 594 124 676 222 c 0
 680 232 700 240 716 240 c 0
 726 240 734 236 734 228 c 0
 734 224 732 218 726 212 c 0
 646 102 506 -28 356 -28 c 0
 234 -28 190 64 190 164 c 0
EndSplineSet
Validated: 1
EndChar

StartChar: D
Encoding: 68 68 38
Width: 831
GlyphClass: 2
Flags: MW
HStem: 12 42<525.5 602.5 525.5 636> 32 42<344.5 381 344.5 382> 598 40<292 438>
VStem: 722 65<171.5 286>
LayerCount: 2
Fore
SplineSet
126 -37 m 0x70
 126 32 178 48 239 63 c 1
 243 70 435 256 522 412 c 0
 527 423 548 431 564 431 c 0
 575 431 583 427 583 418 c 0
 583 416 583 414 582 412 c 0
 506 276 408 169 300 69 c 1
 317 72 335 74 354 74 c 0x70
 408 74 489 54 562 54 c 0
 643 54 722 79 722 182 c 0
 722 390 547 598 329 598 c 0
 230 598 231 542 171 542 c 0
 162 542 155 544 155 549 c 0
 155 557 229 638 355 638 c 0
 582 638 787 424 787 223 c 0
 787 120 714 12 558 12 c 0xb0
 488 12 416 32 348 32 c 0
 221 32 190 -43 149 -43 c 0
 140 -43 126 -41 126 -37 c 0x70
EndSplineSet
Validated: 1
EndChar

StartChar: E
Encoding: 69 69 39
Width: 580
GlyphClass: 2
Flags: MW
HStem: -23 50<330.5 390.5 330.5 397.5> 588 40<385.5 426.5>
VStem: 161 68<109 191 109 194> 263 71<483 539.5> 516 61
LayerCount: 2
Fore
SplineSet
161 136 m 0
 161 252 261 317 384 317 c 1
 328 362 263 435 263 500 c 0
 263 579 345 628 421 628 c 0
 483 628 544 601 576 543 c 0
 577 541 577 540 577 538 c 0
 577 526 554 515 535 515 c 0
 527 515 519 517 516 523 c 0
 502 562 449 588 404 588 c 0
 367 588 334 570 334 526 c 0
 334 440 402 359 466 323 c 0
 473 319 475 314 475 310 c 0
 475 273 404 281 339 268 c 0
 282 257 229 232 229 150 c 0
 229 68 301 27 360 27 c 0
 421 27 479 62 516 123 c 0
 522 134 544 142 562 142 c 0
 572 142 580 139 580 132 c 0
 580 109 462 -23 333 -23 c 0
 256 -23 161 31 161 136 c 0
EndSplineSet
Validated: 1
EndChar

StartChar: F
Encoding: 70 70 40
Width: 692
GlyphClass: 2
Flags: MW
HStem: 347 51 354 40<584.5 587.5> 543 38<661 715.5> 567 43<339 411.5>
VStem: 100 62<419 481 419 488.5> 353 70
LayerCount: 2
Fore
SplineSet
100 416 m 0x9c
 100 561 262 610 416 610 c 0x9c
 551 610 587 581 684 581 c 0x2c
 784 581 777 624 821 624 c 0
 833 624 842 619 842 610 c 0x1c
 842 579 753 543 678 543 c 0
 644 543 609 547 573 551 c 1
 549 507 531 449 516 399 c 1
 542 397 571 394 598 394 c 0
 659 394 655 406 683 406 c 0
 696 406 703 401 703 394 c 0
 703 365 607 354 568 354 c 0x6c
 539 354 513 364 513 364 c 1
 471 231 449 117 423 -25 c 0
 417 -38 390 -50 372 -50 c 0
 361 -50 353 -46 353 -35 c 0
 380 99 410 225 443 362 c 1
 427 358 406 347 395 347 c 0
 387 347 383 351 383 357 c 0
 383 372 416 393 452 398 c 1
 463 450 491 513 517 558 c 1
 479 563 434 567 389 567 c 0
 275 567 162 539 162 423 c 0
 162 415 164 404 164 399 c 0
 164 386 134 375 117 375 c 0
 102 375 100 402 100 416 c 0x9c
EndSplineSet
Validated: 1
EndChar

StartChar: G
Encoding: 71 71 41
Width: 851
GlyphClass: 2
Flags: MW
HStem: -200 35<311 440 311 500.5> 262 38<458 528 458 538> 560 43<552.5 571>
VStem: 61 66<-10 94> 307 75<385 450 385 462.5> 610 68<522 532.5> 759 48<338 344.5>
LayerCount: 2
Fore
SplineSet
61 39 m 0
 61 149 158 256 210 256 c 0
 222 256 233 252 233 244 c 0
 233 217 127 201 127 52 c 0
 127 -72 250 -165 372 -165 c 0
 508 -165 598 -113 657 -38 c 0
 738 65 759 212 759 330 c 0
 759 359 758 385 756 409 c 1
 675 339 589 262 487 262 c 0
 405 262 307 305 307 387 c 0
 307 538 500 603 605 603 c 0
 649 603 678 586 678 542 c 0
 678 502 640 468 613 468 c 0
 605 468 600 470 600 476 c 0
 600 483 610 490 610 516 c 0
 610 549 586 560 556 560 c 0
 444 560 382 492 382 408 c 0
 382 362 417 300 499 300 c 0
 557 300 617 343 672 390 c 0
 737 445 794 506 831 506 c 0
 843 506 853 503 853 493 c 0
 853 464 807 483 807 355 c 0
 807 321 810 287 810 265 c 0
 810 -10 656 -200 345 -200 c 0
 216 -200 61 -129 61 39 c 0
EndSplineSet
Validated: 1
EndChar

StartChar: H
Encoding: 72 72 42
Width: 961
GlyphClass: 2
Flags: MW
HStem: -12 21G<316.5 397> 303 44<669 711.5> 344 36<376 419.5> 600 41<404.5 460.5>
VStem: 124 70 274 70<138 207 138 213.5> 804 60<18.5 73>
LayerCount: 2
Fore
SplineSet
124 455 m 0xbe
 153 615 328 641 481 641 c 0
 545 641 634 639 634 625 c 1
 608 541 583 453 554 367 c 1
 604 358 649 347 689 347 c 0
 811 347 883 449 934 585 c 0
 940 601 963 604 985 604 c 0
 997 604 1004 597 1004 588 c 1
 904 427 864 225 864 25 c 0
 864 12 840 0 822 0 c 0
 812 0 804 4 804 15 c 0
 804 131 817 247 846 357 c 1
 805 324 751 303 672 303 c 0xde
 630 303 584 308 537 316 c 1
 479 145 442 -12 352 -12 c 0
 281 -12 274 104 274 155 c 0
 274 272 302 380 435 380 c 0
 454 380 473 378 491 376 c 1
 560 595 l 1
 560 595 481 600 440 600 c 0
 336 600 226 578 194 475 c 0
 188 457 165 445 144 445 c 0
 133 445 124 448 124 455 c 0xbe
344 166 m 0
 344 110 360 44 360 44 c 1
 361 45 423 149 477 333 c 1
 459 338 431 344 408 344 c 0xbe
 344 344 344 248 344 166 c 0
EndSplineSet
Validated: 1
EndChar

StartChar: I
Encoding: 73 73 43
Width: 623
GlyphClass: 2
Flags: MW
HStem: -23 21G<390 400> 560 36<412.5 472>
VStem: 131 71
LayerCount: 2
Fore
SplineSet
131 451 m 0
 131 452 131 454 132 455 c 0
 174 568 341 596 484 596 c 0
 547 596 656 592 656 574 c 0
 656 571 655 568 652 565 c 2
 540 185 l 2
 520 116 492 15 422 -15 c 0
 413 -21 404 -23 396 -23 c 0
 384 -23 375 -18 375 -12 c 0
 375 -6 381 -2 392 5 c 0
 422 24 444 86 453 115 c 0
 529 368 558 463 586 548 c 1
 551 555 499 560 445 560 c 0
 341 560 227 540 202 465 c 0
 196 452 167 444 148 444 c 0
 138 444 131 446 131 451 c 0
EndSplineSet
Validated: 1
EndChar

StartChar: J
Encoding: 74 74 44
Width: 722
GlyphClass: 2
Flags: MW
HStem: -150 42<185.5 326 185.5 440> 555 37<516 590.5>
VStem: -16 70<124.5 183.5>
LayerCount: 2
Fore
SplineSet
-16 177 m 0
 -16 190 12 202 33 202 c 0
 45 202 54 198 54 187 c 0
 54 62 92 -108 279 -108 c 0
 373 -108 444 -46 497 27 c 0
 606 179 631 377 714 548 c 1
 675 550 619 555 562 555 c 0
 470 555 376 543 354 487 c 0
 349 476 328 468 312 468 c 0
 301 468 293 472 293 481 c 0
 293 517 340 592 587 592 c 0
 745 592 787 589 787 576 c 0
 787 573 786 571 784 567 c 0
 659 328 627 -150 253 -150 c 0
 89 -150 -16 -7 -16 177 c 0
EndSplineSet
Validated: 1
EndChar

StartChar: K
Encoding: 75 75 45
Width: 898
GlyphClass: 2
Flags: MW
HStem: 16 44<723 793> 542 46<675 765.5>
VStem: 301 61<538 544.5> 821 70<368 393.5>
LayerCount: 2
Fore
SplineSet
150 42 m 0
 150 44 150 46 151 48 c 0
 191 208 291 368 301 538 c 0
 301 551 329 563 347 563 c 0
 356 563 362 560 362 553 c 0
 362 437 309 307 262 196 c 1
 402 380 575 588 721 588 c 0
 851 588 891 488 891 378 c 0
 891 358 858 348 839 348 c 0
 829 348 821 351 821 358 c 0
 821 429 816 542 715 542 c 0
 635 542 521 429 450 357 c 1
 526 267 660 60 786 60 c 0
 837 60 853 94 892 94 c 0
 904 94 914 92 914 85 c 0
 914 68 819 16 767 16 c 0
 623 16 507 192 402 305 c 1
 334 226 272 146 211 58 c 0
 204 51 174 35 159 35 c 0
 154 35 150 37 150 42 c 0
EndSplineSet
Validated: 1
EndChar

StartChar: L
Encoding: 76 76 46
Width: 884
GlyphClass: 2
Flags: MW
HStem: -17 50<633 731> 53 33<269.5 302 269.5 375.5> 554 41<507.5 538>
VStem: 795 66<104 136.5>
LayerCount: 2
Fore
SplineSet
113 -9 m 0
 113 37 237 86 302 86 c 1
 321 192 335 299 370 394 c 0
 403 485 452 595 563 595 c 0
 570 595 572 594 572 591 c 0
 572 582 546 554 530 554 c 0
 467 554 419 404 397 274 c 2
 365 87 l 1
 478 84 571 33 695 33 c 0
 769 33 795 68 795 113 c 0
 795 160 765 218 730 253 c 0
 727 254 726 257 726 259 c 0
 726 270 754 289 776 289 c 0
 782 289 787 288 791 284 c 0
 837 240 861 189 861 142 c 0
 861 66 794 -17 668 -17 c 0
 552 -17 432 53 319 53 c 0
 200 53 185 -17 131 -17 c 0
 121 -17 113 -15 113 -9 c 0
EndSplineSet
Validated: 1
EndChar

StartChar: M
Encoding: 77 77 47
Width: 1237
GlyphClass: 2
Flags: MW
HStem: -51 41<229 299 229 309> -1 21G<1108 1136> 6 53<780 828.5 780 837.5> 290 40<334 397>
VStem: 125 72<66 152.5> 663 64<400.5 507.5> 1087 62<126 237>
LayerCount: 2
Fore
SplineSet
125 71 m 0xbe
 125 234 261 330 407 330 c 0
 424 330 431 325 431 319 c 0
 431 307 407 290 387 290 c 0
 272 290 197 242 197 91 c 0
 197 41 208 -10 250 -10 c 0
 348 -10 663 357 663 437 c 0
 663 578 668 654 721 654 c 0
 733 654 744 650 744 643 c 0
 744 636 727 614 727 540 c 0
 727 261 752 59 808 59 c 0xbe
 849 59 1020 394 1147 560 c 0
 1153 573 1180 585 1198 585 c 0
 1209 585 1217 581 1217 570 c 0
 1196 479 1149 319 1149 191 c 0
 1149 54 1162 44 1162 19 c 0
 1162 9 1143 -1 1129 -1 c 0xde
 1087 -1 1087 56 1087 196 c 0
 1087 278 1109 381 1116 420 c 1
 1033 261 882 6 793 6 c 0
 674 6 680 254 663 330 c 1
 613 209 392 -51 226 -51 c 0
 152 -51 125 8 125 71 c 0xbe
EndSplineSet
Validated: 1
EndChar

StartChar: N
Encoding: 78 78 48
Width: 982
GlyphClass: 2
Flags: MW
HStem: -22 45<280 304.5> -1 21G<845 861.5> 324 41<359.5 407> 598 42<309.5 368.5>
VStem: 118 62<497.5 504 497.5 531.5> 198 65<111.5 171 111.5 184> 830 70<8.5 38>
LayerCount: 2
Fore
SplineSet
118 489 m 0xbe
 118 574 256 640 363 640 c 0
 489 640 606 586 709 477 c 0
 770 412 807 335 837 253 c 1
 854 398 901 541 1010 624 c 0
 1017 631 1031 635 1042 635 c 0
 1053 635 1063 631 1063 626 c 0
 1063 623 1060 619 1050 614 c 0
 925 506 897 293 897 121 c 0
 897 87 900 53 900 23 c 0xbe
 900 10 872 -1 851 -1 c 0x7e
 839 -1 830 3 830 14 c 0
 820 171 742 363 619 478 c 1
 561 379 532 269 482 173 c 0
 433 80 355 -22 254 -22 c 0
 200 -22 198 70 198 113 c 0
 198 255 288 365 431 365 c 0
 439 365 442 363 442 359 c 0
 442 347 414 324 400 324 c 0
 297 324 263 218 263 124 c 0
 263 99 264 23 296 23 c 0
 331 23 385 104 400 134 c 0
 458 249 497 393 580 511 c 1
 524 551 414 598 323 598 c 0
 257 598 200 573 180 504 c 0
 180 491 152 478 134 478 c 0
 126 478 118 482 118 489 c 0xbe
EndSplineSet
Validated: 1
EndChar

StartChar: O
Encoding: 79 79 49
Width: 735
GlyphClass: 2
Flags: MW
HStem: -20 46<342.5 427 342.5 457> 557 42<461 535>
VStem: 185 65<197.5 268.5 197.5 285> 653 72<300.5 383>
LayerCount: 2
Fore
SplineSet
185 195 m 0
 185 375 334 599 509 599 c 0
 600 599 725 525 725 356 c 0
 725 191 540 -20 374 -20 c 0
 242 -20 185 95 185 195 c 0
250 238 m 0
 250 157 291 26 394 26 c 0
 460 26 529 72 579 137 c 0
 623 194 653 266 653 335 c 0
 653 431 580 557 490 557 c 0
 432 557 378 514 336 458 c 0
 284 389 250 299 250 238 c 0
EndSplineSet
Validated: 1
EndChar

StartChar: P
Encoding: 80 80 50
Width: 702
GlyphClass: 2
Flags: MW
HStem: -19 21G<259.5 274> 208 39<498.5 551> 568 41<454.5 555.5>
VStem: 104 61<351 362 351 398> 664 69<343.5 452>
LayerCount: 2
Fore
SplineSet
104 346 m 0
 104 450 359 609 550 609 c 0
 665 609 733 519 733 413 c 0
 733 270 618 208 484 208 c 0
 466 208 417 212 377 218 c 1
 358 146 337 74 315 2 c 0
 309 -10 283 -19 265 -19 c 0
 254 -19 245 -16 245 -8 c 0
 305 152 337 315 375 472 c 0
 378 486 411 497 430 497 c 0
 439 497 446 494 446 487 c 0
 446 476 412 351 391 271 c 1
 426 260 475 247 522 247 c 0
 596 247 664 284 664 403 c 0
 664 501 609 568 502 568 c 0
 359 568 183 430 165 362 c 1
 165 340 138 324 118 324 c 0
 104 324 104 335 104 346 c 0
EndSplineSet
Validated: 1
EndChar

StartChar: Q
Encoding: 81 81 51
Width: 773
GlyphClass: 2
Flags: MW
HStem: -329 42<841 964.5 841 1007> 584 41<446 578.5>
VStem: 109 55<140 193.5> 256 68<297 416.5 297 421.5> 693 65<228.5 383 228.5 385.5>
LayerCount: 2
Fore
SplineSet
109 181 m 0
 109 206 124 329 197 329 c 0
 207 329 214 327 214 323 c 0
 214 318 164 263 164 203 c 0
 164 77 277 17 370 -4 c 1
 300 100 256 232 256 350 c 0
 256 493 352 625 538 625 c 0
 699 625 758 454 758 312 c 0
 758 145 671 -21 493 -50 c 1
 594 -172 765 -287 917 -287 c 0
 1012 -287 1099 -242 1157 -126 c 0
 1162 -115 1186 -107 1204 -107 c 0
 1217 -107 1228 -111 1228 -121 c 0
 1228 -134 1119 -329 895 -329 c 0
 708 -329 523 -205 405 -53 c 1
 261 -42 109 34 109 181 c 0
324 360 m 0
 324 234 380 83 464 -12 c 1
 592 -3 693 94 693 321 c 0
 693 450 645 584 512 584 c 0
 380 584 324 473 324 360 c 0
EndSplineSet
Validated: 1
EndChar

StartChar: R
Encoding: 82 82 52
Width: 736
GlyphClass: 2
Flags: MW
HStem: 0 36<634 679.5> 547 51<417 545>
VStem: 104 70<333 356> 325 71<444 453> 645 65<362 448.5>
LayerCount: 2
Fore
SplineSet
104 336 m 0
 124 413 269 598 517 598 c 0
 624 598 710 525 710 425 c 0
 710 299 571 246 459 231 c 1
 508 163 601 36 667 36 c 0
 700 36 716 81 737 81 c 0
 748 81 758 77 758 72 c 0
 758 37 709 0 650 0 c 0
 592 0 495 37 384 226 c 1
 378 228 376 231 376 234 c 0
 376 247 408 264 424 266 c 0
 546 284 645 305 645 411 c 0
 645 486 598 547 492 547 c 0
 342 547 190 456 174 356 c 0
 174 342 139 328 118 328 c 0
 110 328 104 330 104 336 c 0
212 12 m 0
 212 39 296 266 332 437 c 1
 326 438 325 441 325 447 c 0
 325 459 353 486 383 486 c 0
 393 486 396 473 396 462 c 0
 396 399 307 124 274 27 c 0
 269 13 246 1 228 1 c 0
 219 1 212 4 212 12 c 0
EndSplineSet
Validated: 1
EndChar

StartChar: S
Encoding: 83 83 53
Width: 633
GlyphClass: 2
Flags: MW
HStem: -101 35<351 416.5> 538 45<475.5 494.5>
VStem: 141 74<56 111> 301 64<404 479.5 404 490> 540 67<42 142>
LayerCount: 2
Fore
SplineSet
141 81 m 0
 141 141 228 200 287 200 c 0
 300 200 307 195 307 188 c 0
 307 168 215 161 215 91 c 0
 215 21 306 -66 396 -66 c 0
 466 -66 540 8 540 76 c 0
 540 208 301 323 301 442 c 0
 301 538 445 583 506 583 c 0
 554 583 610 571 610 559 c 0
 610 546 579 526 560 526 c 0
 546 526 521 538 468 538 c 0
 428 538 365 506 365 453 c 0
 365 355 607 230 607 83 c 0
 607 -20 472 -101 361 -101 c 0
 251 -101 141 -21 141 81 c 0
EndSplineSet
Validated: 1
EndChar

StartChar: T
Encoding: 84 84 54
Width: 657
GlyphClass: 2
Flags: MW
HStem: -6 47 519 29<730.5 783.5> 547 49<329 413.5>
VStem: 106 60<325.5 403> 485 68
LayerCount: 2
Fore
SplineSet
106 322 m 0xb8
 106 484 232 596 418 596 c 0xb8
 450 596 483 593 515 589 c 0
 522 591 529 592 536 592 c 0
 554 592 552 582 566 582 c 0
 624 569 698 548 763 548 c 0
 856 548 845 583 888 583 c 0
 902 583 914 578 914 572 c 0
 914 553 834 519 733 519 c 0xd8
 675 519 614 527 553 534 c 1
 517 363 481 207 417 41 c 1
 446 39 504 39 504 27 c 0
 504 14 473 -6 454 -6 c 2
 356 -6 l 2
 344 -6 337 -1 337 5 c 0
 337 8 340 11 346 14 c 0
 433 167 445 372 485 542 c 1
 456 545 427 547 400 547 c 0
 258 547 166 483 166 332 c 0
 166 319 142 307 124 307 c 0
 114 307 106 311 106 322 c 0xb8
EndSplineSet
Validated: 1
EndChar

StartChar: U
Encoding: 85 85 55
Width: 852
GlyphClass: 2
Flags: MW
HStem: 0 44<301.5 309.5> 617 42<237 246.5>
VStem: 223 66<79 104> 297 70<439 532.5> 676 60<18.5 25 18.5 72.5>
LayerCount: 2
Fore
SplineSet
121 615 m 0
 121 638 217 659 257 659 c 0
 336 659 367 622 367 518 c 0
 367 360 289 235 289 90 c 0
 289 68 292 44 311 44 c 1
 522 173 624 396 796 555 c 0
 805 564 811 567 840 567 c 0
 851 567 861 565 861 557 c 0
 861 544 780 459 752 182 c 2
 736 25 l 2
 736 12 712 0 694 0 c 0
 684 0 676 4 676 15 c 0
 676 130 701 297 733 424 c 1
 653 319 574 223 486 135 c 0
 463 112 345 0 274 0 c 0
 248 0 223 17 223 59 c 0
 223 149 297 362 297 497 c 0
 297 568 277 617 216 617 c 0
 172 617 170 603 141 603 c 0
 128 603 121 608 121 615 c 0
EndSplineSet
Validated: 1
EndChar

StartChar: V
Encoding: 86 86 56
Width: 791
GlyphClass: 2
Flags: MW
HStem: 539 50 570 40<703 779>
VStem: 782 72<422.5 512>
LayerCount: 2
Fore
SplineSet
108 552 m 0xa0
 108 583 166 589 195 589 c 0xa0
 271 589 334 541 359 460 c 0
 405 307 435 146 455 -7 c 1
 568 79 782 352 782 490 c 0
 782 534 761 563 708 570 c 0
 698 570 695 572 695 576 c 0
 695 587 733 610 748 610 c 0x60
 810 610 854 564 854 508 c 0
 854 337 533 -63 414 -63 c 0
 405 -63 398 -60 398 -50 c 0
 379 27 358 272 295 423 c 0
 265 495 226 545 174 545 c 1
 127 539 l 2
 114 539 108 545 108 552 c 0xa0
EndSplineSet
Validated: 1
EndChar

StartChar: W
Encoding: 87 87 57
Width: 1193
GlyphClass: 2
Flags: MW
HStem: 0 43<838 950 838 969.5>
VStem: 232 72<384.5 449.5> 629 65<285 373.5> 1097 68<276.5 428.5 276.5 453.5>
LayerCount: 2
Fore
SplineSet
232 401 m 0
 232 498 268 626 329 626 c 0
 341 626 352 622 352 615 c 0
 352 598 304 576 304 431 c 0
 304 338 316 257 330 174 c 1
 361 230 404 283 445 332 c 0
 514 415 696 568 736 568 c 0
 748 568 760 564 760 554 c 0
 760 519 694 512 694 362 c 0
 694 208 772 43 904 43 c 0
 996 43 1097 185 1097 348 c 0
 1097 559 947 597 947 611 c 0
 947 624 978 644 997 644 c 0
 1080 644 1165 499 1165 358 c 0
 1165 195 1056 0 883 0 c 0
 731 0 629 185 629 353 c 0
 629 394 635 434 648 471 c 1
 591 427 541 374 495 322 c 0
 425 242 345 132 345 32 c 0
 345 12 320 -3 302 -3 c 0
 293 -3 285 2 285 12 c 0
 279 126 232 269 232 401 c 0
EndSplineSet
Validated: 1
EndChar

StartChar: X
Encoding: 88 88 58
Width: 933
GlyphClass: 2
Flags: MW
HStem: -48 40<296.5 374.5> 352 26 593 41<266 375.5>
VStem: 187 64<78 137>
LayerCount: 2
Fore
SplineSet
114 546 m 0
 114 568 200 634 332 634 c 0
 486 634 603 558 749 326 c 1
 809 399 865 472 916 552 c 0
 923 563 944 571 962 571 c 0
 972 571 980 568 980 561 c 0
 980 548 874 396 776 283 c 1
 813 219 917 39 917 28 c 0
 917 16 892 4 871 4 c 0
 861 4 852 6 846 12 c 0
 808 82 770 156 728 228 c 1
 624 118 451 -48 298 -48 c 0
 255 -48 187 -1 187 80 c 0
 187 194 246 378 385 378 c 0
 398 378 409 376 409 369 c 0
 409 365 407 357 396 352 c 0
 318 318 251 239 251 104 c 0
 251 52 267 -8 326 -8 c 0
 431 -8 627 181 702 271 c 1
 613 426 460 593 291 593 c 0
 185 593 196 538 130 538 c 0
 120 538 114 540 114 546 c 0
EndSplineSet
Validated: 1
EndChar

StartChar: Y
Encoding: 89 89 59
Width: 922
GlyphClass: 2
Flags: MW
HStem: -176 42<383.5 524 383.5 524> 590 34<343.5 393>
VStem: 143 66<12.5 76> 481 70
LayerCount: 2
Fore
SplineSet
143 57 m 0
 143 95 181 190 247 190 c 0
 261 190 274 185 274 175 c 0
 274 149 209 146 209 70 c 0
 209 -45 324 -134 443 -134 c 0
 605 -134 713 8 779 143 c 0
 844 276 857 450 889 511 c 1
 766 405 648 292 551 161 c 1
 549 91 530 5 465 5 c 0
 454 5 446 9 446 20 c 0
 446 62 459 102 481 142 c 1
 478 222 464 590 322 590 c 1
 305 588 l 2
 297 588 294 592 294 596 c 0
 294 616 332 624 355 624 c 0
 511 624 538 350 547 234 c 1
 692 400 862 590 959 590 c 0
 967 590 974 588 974 583 c 0
 974 572 970 568 966 560 c 0
 904 445 913 276 837 121 c 0
 764 -29 626 -176 422 -176 c 0
 254 -176 143 -71 143 57 c 0
EndSplineSet
Validated: 1
EndChar

StartChar: Z
Encoding: 90 90 60
Width: 718
GlyphClass: 2
Flags: MW
HStem: -303 37<855.5 954 855.5 973> 115 43<218 236> 543 31<408 476.5>
VStem: 116 74<77.5 91.5 77.5 101.5> 190 64<396 449 396 458.5> 990 70<-125.5 -114>
LayerCount: 2
Fore
SplineSet
116 76 m 0xec
 116 127 181 158 248 158 c 0
 272 158 300 150 329 137 c 1
 468 239 603 366 689 500 c 1
 607 535 523 543 430 543 c 0
 311 543 254 494 254 404 c 0
 254 388 255 373 258 356 c 1
 281 356 284 337 284 327 c 0
 284 303 264 270 222 270 c 0
 199 270 190 366 190 385 c 0
 190 532 332 574 484 574 c 0
 583 574 697 555 760 539 c 0
 767 537 770 529 770 529 c 1
 667 374 526 225 367 117 c 1
 552 11 792 -266 919 -266 c 0
 989 -266 990 -163 990 -121 c 0
 990 -107 1016 -91 1042 -91 c 0
 1052 -91 1060 -94 1060 -101 c 0
 1060 -150 1037 -303 909 -303 c 0
 736 -303 466 -17 311 81 c 1
 267 60 212 7 160 7 c 0
 132 7 116 62 116 76 c 0xec
190 81 m 0
 190 74 191 65 196 56 c 1
 223 69 249 85 276 101 c 1
 258 110 242 115 230 115 c 0
 206 115 190 102 190 81 c 0
EndSplineSet
Validated: 1
EndChar

StartChar: bracketleft
Encoding: 91 91 61
Width: 379
GlyphClass: 2
Flags: MW
HStem: -131 44<150.5 202> 590 40<397 404.5>
VStem: 193 60<462 573 451.5 587>
LayerCount: 2
Fore
SplineSet
83 -113 m 0
 143 117 193 347 193 577 c 0
 193 597 223 607 233 607 c 0
 298 615 362 630 432 630 c 0
 450 630 492 629 492 622 c 0
 492 611 459 587 443 587 c 0
 428 589 412 590 397 590 c 0
 347 590 299 583 253 573 c 1
 253 330 197 49 160 -59 c 1
 160 -76 169 -87 197 -87 c 0
 207 -87 218 -86 233 -83 c 0
 255 -83 263 -90 263 -99 c 0
 263 -128 193 -131 164 -131 c 0
 137 -131 83 -125 83 -113 c 0
EndSplineSet
Validated: 1
EndChar

StartChar: backslash
Encoding: 92 92 62
Width: 511
GlyphClass: 2
Flags: MW
HStem: -78 21G<415 468> 753 20G<39.5 59>
LayerCount: 2
Fore
SplineSet
4 722 m 1
 3 722 l 1
 3 754 27 773 52 773 c 0
 66 773 83 767 93 752 c 0
 204 581 256 363 373 152 c 2
 473 -28 l 2
 478 -31 506 -35 506 -50 c 0
 506 -65 476 -78 460 -78 c 0
 370 -78 148 487 94 592 c 2
 32 712 l 2
 27 721 4 715 4 722 c 1
EndSplineSet
Validated: 1
EndChar

StartChar: bracketright
Encoding: 93 93 63
Width: 369
GlyphClass: 2
Flags: MW
VStem: 175 50<-80 -79 -84 607> 175 70<526 607 607 607>
LayerCount: 2
Fore
SplineSet
3 -145 m 0x80
 3 -133 88 -94 175 -80 c 1x80
 175 607 l 1
 149 607 119 606 95 600 c 0
 86 595 78 593 72 593 c 0
 64 593 60 597 60 603 c 0
 60 643 150 627 195 657 c 0
 201 663 217 663 229 663 c 0
 238 663 245 659 245 651 c 0x40
 245 401 235 161 225 -79 c 0
 225 -89 205 -99 195 -99 c 2
 45 -147 l 2
 39 -153 30 -156 22 -156 c 0
 12 -156 3 -151 3 -145 c 0x80
EndSplineSet
Validated: 1
EndChar

StartChar: asciicircum
Encoding: 94 94 64
Width: 394
GlyphClass: 2
Flags: MW
HStem: 381 305<263 325.5>
LayerCount: 2
Fore
SplineSet
13 400 m 0
 13 403 15 405 17 409 c 0
 67 509 157 579 217 659 c 0
 225 667 256 686 270 686 c 0
 275 686 277 684 277 679 c 0
 297 589 307 489 357 409 c 0
 358 407 358 406 358 404 c 0
 358 392 335 381 316 381 c 0
 308 381 300 383 297 389 c 0
 255 455 237 531 226 603 c 1
 174 541 114 483 77 409 c 0
 71 398 48 390 31 390 c 0
 21 390 13 393 13 400 c 0
EndSplineSet
Validated: 1
EndChar

StartChar: underscore
Encoding: 95 95 65
Width: 850
GlyphClass: 2
Flags: MW
HStem: -96 36<376 467> -82 42<148 184> -44 20G<764 770>
LayerCount: 2
Fore
SplineSet
56 -78 m 0x40
 56 -54 128 -40 168 -40 c 0x40
 250 -40 332 -60 420 -60 c 0
 534 -60 654 -47 764 -24 c 0
 776 -24 782 -30 782 -36 c 0
 782 -94 522 -96 412 -96 c 0xa0
 314 -96 230 -82 138 -82 c 1
 74 -92 l 2
 64 -92 56 -84 56 -78 c 0x40
EndSplineSet
Validated: 1
EndChar

StartChar: grave
Encoding: 96 96 66
Width: 250
GlyphClass: 2
Flags: MW
HStem: 323 168<-4 95.5>
VStem: -12 133<341.5 477>
LayerCount: 2
Fore
SplineSet
-12 473 m 0
 -12 481 -8 491 0 491 c 0
 21 491 121 405 121 351 c 0
 121 332 103 323 88 323 c 0
 77 323 63 328 62 335 c 0
 46 424 -12 456 -12 473 c 0
EndSplineSet
Validated: 1
EndChar

StartChar: a
Encoding: 97 97 67
Width: 528
GlyphClass: 2
Flags: MW
HStem: 0 21G<402.5 437> 336 50<211 260.5>
VStem: 38 72<76 109 76 137> 363 67<76.5 147>
LayerCount: 2
Fore
SplineSet
38 78 m 0
 38 196 158 386 264 386 c 0
 296 386 326 370 350 330 c 1
 378 360 427 410 456 410 c 0
 458 410 476 393 476 390 c 0
 470 356 430 208 430 116 c 0
 430 37 480 35 480 35 c 1
 480 23 448 0 426 0 c 0
 379 0 363 52 363 99 c 0
 363 195 387 269 397 309 c 1
 396 312 l 1
 297 209 142 20 66 20 c 0
 47 20 38 44 38 78 c 0
110 76 m 1
 310 286 l 1
 296 310 279 336 242 336 c 0
 172 336 110 142 110 76 c 1
EndSplineSet
Validated: 1
EndChar

StartChar: b
Encoding: 98 98 68
Width: 361
GlyphClass: 2
Flags: MW
HStem: -12 41<151 184 151 191>
VStem: 65 62<102.5 145> 245 70<170 229>
LayerCount: 2
Fore
SplineSet
65 93 m 0
 65 197 85 293 116 386 c 1
 106 390 97 396 97 405 c 0
 97 418 118 431 136 434 c 1
 181 551 213 698 329 754 c 0
 335 757 347 758 353 758 c 0
 362 758 370 755 370 748 c 0
 370 731 360 735 346 724 c 1
 293 701 225 533 189 414 c 1
 256 375 315 319 315 233 c 0
 315 106 241 -12 141 -12 c 0
 95 -12 65 28 65 93 c 0
127 120 m 0
 127 85 137 29 165 29 c 0
 203 29 245 147 245 193 c 0
 245 265 218 317 169 355 c 1
 159 322 127 212 127 120 c 0
EndSplineSet
Validated: 1
EndChar

StartChar: c
Encoding: 99 99 69
Width: 356
GlyphClass: 2
Flags: MW
HStem: 2 43<154.5 195> 365 44<233 275>
VStem: 38 76<113.5 167>
LayerCount: 2
Fore
SplineSet
38 109 m 0
 38 225 164 409 302 409 c 0
 327 409 348 400 356 373 c 1
 356 351 319 335 299 335 c 0
 279 335 286 365 264 365 c 0
 193 365 114 224 114 142 c 0
 114 85 126 45 183 45 c 0
 238 45 280 132 302 132 c 0
 312 132 320 129 320 122 c 0
 320 94 239 2 151 2 c 0
 71 2 38 42 38 109 c 0
EndSplineSet
Validated: 1
EndChar

StartChar: d
Encoding: 100 100 70
Width: 348
GlyphClass: 2
Flags: MW
HStem: -15 51<131.5 160 131.5 175> 363 47 795 36<-132 -72>
VStem: 50 66<91 140> 261 60<304 358.5>
LayerCount: 2
Fore
SplineSet
-290 716 m 0
 -290 737 -222 831 -82 831 c 0
 -18 831 49 814 101 781 c 0
 253 685 321 526 321 362 c 0
 321 207 229 -15 121 -15 c 0
 85 -15 50 26 50 81 c 0
 50 199 121 405 256 410 c 1
 240 520 189 631 101 701 c 0
 50 742 -35 795 -109 795 c 0
 -155 795 -196 775 -219 721 c 0
 -224 710 -248 702 -266 702 c 0
 -279 702 -290 706 -290 716 c 0
116 109 m 0
 116 73 124 36 139 36 c 0
 181 36 261 250 261 358 c 0
 261 359 256 363 246 363 c 0
 174 363 116 209 116 109 c 0
EndSplineSet
Validated: 1
EndChar

StartChar: e
Encoding: 101 101 71
Width: 334
GlyphClass: 2
Flags: MW
HStem: 0 45<141 178> 368 41<209 232>
VStem: 28 67<93 134 93 169> 261 61<321.5 345.5>
LayerCount: 2
Fore
SplineSet
28 99 m 0
 28 239 142 409 253 409 c 0
 289 409 322 389 322 353 c 0
 322 273 190 224 111 206 c 1
 100 176 95 146 95 122 c 0
 95 64 128 45 154 45 c 0
 241 45 270 126 317 126 c 0
 324 126 331 121 331 115 c 0
 331 101 229 0 127 0 c 0
 83 0 28 27 28 99 c 0
128 251 m 1
 180 269 261 305 261 338 c 0
 261 353 241 368 223 368 c 0
 195 368 156 313 128 251 c 1
EndSplineSet
Validated: 1
Substitution2: "Single Substitution lookup 5 subtable" e.alt
EndChar

StartChar: f
Encoding: 102 102 72
Width: 322
GlyphClass: 2
Flags: MW
HStem: 269 40<58 128> 656 41<389 430>
VStem: -17 61<-418.5 -402> 486 64<609 620.5>
LayerCount: 2
Fore
SplineSet
-17 -416 m 0
 -17 -415 0 -217 116 272 c 1
 92 270 73 269 64 269 c 0
 52 269 47 273 47 278 c 0
 47 290 73 309 94 309 c 2
 128 309 l 1
 211 611 326 697 452 697 c 0
 487 697 550 683 550 628 c 0
 550 590 517 550 480 550 c 0
 466 550 454 555 454 561 c 0
 454 568 486 592 486 607 c 0
 486 634 446 656 414 656 c 0
 332 656 280 587 193 315 c 1
 291 328 352 355 371 355 c 0
 379 355 382 353 382 349 c 0
 382 312 274 290 183 279 c 1
 128 78 91 -179 44 -402 c 0
 44 -415 17 -423 -1 -423 c 0
 -10 -423 -17 -421 -17 -416 c 0
EndSplineSet
Validated: 1
EndChar

StartChar: g
Encoding: 103 103 73
Width: 522
GlyphClass: 2
Flags: MW
HStem: -625 40<-128 8 -128 131.5> 15 54<96.5 107> 337 48<263.5 311> 367 42<478 489>
VStem: -360 64<-450 -333.5> 18 74<79 81> 364 74<-29 57>
LayerCount: 2
Fore
SplineSet
-360 -399 m 0xde
 -360 -268 -246 -145 -192 -145 c 0
 -178 -145 -168 -149 -168 -155 c 0
 -168 -174 -296 -229 -296 -389 c 0
 -296 -511 -192 -585 -64 -585 c 0
 80 -585 181 -515 248 -415 c 0
 333 -288 364 -115 364 20 c 0
 364 94 364 220 392 308 c 1
 313 180 160 15 54 15 c 0
 44 15 18 17 18 44 c 0
 18 118 160 385 322 385 c 0xee
 352 385 387 370 415 360 c 1
 434 390 459 409 494 409 c 0
 513 409 524 403 524 397 c 0
 524 385 500 367 478 367 c 1
 468 369 l 1
 438 369 438 195 438 149 c 0
 438 -207 351 -625 -88 -625 c 0
 -229 -625 -360 -549 -360 -399 c 0xde
92 81 m 0
 92 77 95 69 98 69 c 0
 148 69 278 221 344 322 c 0
 343 324 318 337 304 337 c 0
 223 337 92 136 92 81 c 0
EndSplineSet
Validated: 1
EndChar

StartChar: h
Encoding: 104 104 74
Width: 470
GlyphClass: 2
Flags: MW
HStem: 0 43<362.5 400> 335 40<319.5 336> 622 20G<263 304.5>
VStem: 329 62<64.5 96> 350 68<262 291.5>
LayerCount: 2
Fore
SplineSet
27 12 m 2xe8
 117 372 l 2
 159 538 224 642 302 642 c 0
 307 642 310 641 310 637 c 0
 310 619 268 593 247 552 c 0
 199 459 157 289 125 172 c 1
 185 230 245 375 358 375 c 0
 402 375 418 341 418 294 c 0xe8
 418 230 391 131 391 77 c 0
 391 52 400 43 400 43 c 1
 400 43 434 43 434 36 c 0
 434 17 419 0 380 0 c 0
 345 0 329 43 329 74 c 0xf0
 329 118 350 240 350 278 c 0
 350 305 342 335 330 335 c 0
 309 335 156 149 97 22 c 0
 90 8 66 -1 48 -1 c 0
 44 -1 27 4 27 12 c 2xe8
EndSplineSet
Validated: 1
EndChar

StartChar: i
Encoding: 105 105 75
Width: 238
GlyphClass: 2
Flags: MW
HStem: 0 51<114.5 120.5 114.5 122.5> 515 51<195 268>
VStem: 43 66<63.5 101>
LayerCount: 2
Fore
SplineSet
43 63 m 0
 43 139 96 327 126 383 c 0
 136 401 156 408 174 408 c 0
 182 408 187 406 187 397 c 0
 187 365 109 180 109 71 c 0
 109 56 113 51 116 51 c 0
 125 51 172 103 194 103 c 0
 204 103 212 100 212 93 c 0
 212 91 159 0 86 0 c 0
 59 0 43 28 43 63 c 0
185 522 m 0
 185 553 225 566 263 566 c 0
 273 566 283 562 283 550 c 0
 283 538 228 515 197 515 c 0
 193 515 185 516 185 522 c 0
EndSplineSet
Validated: 1
EndChar

StartChar: j
Encoding: 106 106 76
Width: 207
GlyphClass: 2
Flags: MW
HStem: -645 38<-320 -241.5 -320 -224.5>
VStem: -518 64<-425 -326>
LayerCount: 2
Fore
SplineSet
-518 -371 m 0
 -518 -281 -459 -163 -382 -163 c 0
 -370 -163 -362 -167 -362 -175 c 0
 -362 -196 -454 -206 -454 -347 c 0
 -454 -503 -364 -607 -276 -607 c 0
 -207 -607 -110 -541 -49 -407 c 0
 51 -184 29 178 132 389 c 0
 138 401 152 409 170 409 c 0
 182 409 192 405 192 395 c 1
 96 219 137 -166 11 -410 c 0
 -56 -539 -145 -645 -304 -645 c 0
 -426 -645 -518 -543 -518 -371 c 0
162 539 m 0
 162 571 245 629 272 629 c 0
 280 629 294 623 294 615 c 0
 294 596 213 535 192 529 c 1
 192 529 162 529 162 539 c 0
EndSplineSet
Validated: 1
EndChar

StartChar: k
Encoding: 107 107 77
Width: 469
GlyphClass: 2
Flags: MW
HStem: -41 37<360.5 430> 361 38<349.5 378>
VStem: 147 71<512 552.5> 397 62<304 336.5>
LayerCount: 2
Fore
SplineSet
34 52 m 0
 78 216 147 480 147 544 c 0
 147 561 133 560 133 569 c 0
 133 583 158 597 178 597 c 0
 204 597 218 568 218 540 c 0
 218 436 141 272 130 186 c 1
 194 284 265 399 404 399 c 0
 441 399 459 376 459 329 c 0
 459 276 331 195 274 166 c 1
 283 143 332 76 424 -4 c 1
 436 -4 441 -7 441 -12 c 0
 441 -24 421 -41 393 -41 c 0
 328 -41 287 35 203 146 c 1
 192 147 188 151 188 155 c 0
 188 176 237 188 247 193 c 0
 301 219 397 282 397 326 c 0
 397 347 384 361 372 361 c 0
 327 361 264 296 204 223 c 0
 117 117 107 40 55 40 c 0
 47 40 34 47 34 52 c 0
EndSplineSet
Validated: 1
EndChar

StartChar: l
Encoding: 108 108 78
Width: 298
GlyphClass: 2
Flags: MW
HStem: 0 58<140 151.5> 652 40<284 323>
VStem: 50 72<93 156>
LayerCount: 2
Fore
SplineSet
50 96 m 0
 50 216 141 692 342 692 c 0
 362 692 366 690 366 686 c 0
 366 674 334 652 312 652 c 0
 256 652 122 308 122 112 c 0
 122 74 132 58 148 58 c 0
 197 58 222 108 244 127 c 1
 252 127 273 125 273 115 c 0
 273 91 185 0 118 0 c 0
 74 0 50 44 50 96 c 0
EndSplineSet
Validated: 1
EndChar

StartChar: m
Encoding: 109 109 79
Width: 773
GlyphClass: 2
Flags: MW
HStem: 0 42<640 683>
VStem: 105 60<362 369> 319 70<239 322.5> 603 72<78 114 74 183.5> 631 66<353 365>
LayerCount: 2
Fore
SplineSet
29 50 m 0xe8
 29 54 31 56 33 62 c 0
 75 152 95 252 105 362 c 0
 105 376 135 390 153 390 c 0
 161 390 165 388 165 382 c 0
 165 318 155 256 139 194 c 1
 217 272 287 364 343 364 c 0
 377 364 389 339 389 306 c 0
 389 268 373 213 365 169 c 1
 435 240 571 422 665 422 c 0
 694 422 697 380 697 350 c 0xe8
 697 266 675 134 675 94 c 0xf0
 675 54 677 42 683 42 c 2
 697 44 l 2xe8
 709 44 715 38 715 32 c 0
 715 14 685 0 665 0 c 0
 615 0 603 48 603 108 c 0xf0
 603 259 631 328 631 378 c 1
 537 284 426 192 365 82 c 0
 358 70 337 56 319 56 c 0
 307 56 301 76 301 100 c 0
 301 144 319 206 319 272 c 0
 319 284 315 314 315 314 c 1
 298 299 121 113 95 52 c 1
 83 46 61 38 45 38 c 0
 35 38 29 42 29 50 c 0xe8
EndSplineSet
Validated: 1
EndChar

StartChar: n
Encoding: 110 110 80
Width: 492
GlyphClass: 2
Flags: MW
HStem: 0 38<392.5 439.5> 346 50<361 362>
VStem: 117 62<334.5 354.5> 357 61<119 186.5> 366 63<327 340.5>
LayerCount: 2
Fore
SplineSet
37 27 m 0xe8
 37 43 117 246 117 346 c 0
 117 363 107 376 107 385 c 0
 107 394 135 409 154 409 c 0
 174 409 179 381 179 360 c 0
 179 309 146 234 146 203 c 1
 195 272 324 396 398 396 c 0
 428 396 429 354 429 328 c 0xe8
 429 293 418 253 418 140 c 0
 418 98 426 38 437 38 c 0
 442 38 449 40 453 40 c 0
 466 40 473 35 473 28 c 0
 473 11 428 0 414 0 c 0
 371 0 357 52 357 130 c 0xf0
 357 243 366 316 366 338 c 0
 366 343 364 346 360 346 c 0
 300 346 150 126 98 42 c 0
 91 31 74 17 52 17 c 0
 43 17 37 20 37 27 c 0xe8
EndSplineSet
Validated: 1
EndChar

StartChar: o
Encoding: 111 111 81
Width: 359
GlyphClass: 2
Flags: MW
HStem: 0 42<136.5 177.5 136.5 181> 326 36<183 201>
VStem: 42 67<115 168.5> 268 67<221 307>
LayerCount: 2
Fore
SplineSet
42 115 m 0
 42 222 121 362 197 362 c 0
 217 362 233 355 233 348 c 0
 233 339 209 326 193 326 c 0
 173 326 109 241 109 134 c 0
 109 96 122 42 151 42 c 0
 204 42 268 180 268 262 c 0
 268 352 224 383 224 392 c 0
 224 401 252 420 271 420 c 0
 316 420 335 328 335 287 c 0
 335 154 230 0 132 0 c 0
 67 0 42 58 42 115 c 0
EndSplineSet
Validated: 1
Substitution2: "Single Substitution lookup 5 subtable" o.alt
EndChar

StartChar: p
Encoding: 112 112 82
Width: 523
GlyphClass: 2
Flags: MW
HStem: -441 21G<-23 -8> 11 40<269.5 324.5 269.5 335.5> 349 40<422 427>
VStem: -37 69 103 69<283 334> 432 70<274 319>
LayerCount: 2
Fore
SplineSet
-37 -431 m 0
 -37 -392 103 119 103 299 c 0
 103 369 93 373 72 379 c 1
 72 389 112 409 122 409 c 0
 159 409 172 359 172 319 c 0
 172 247 158 168 156 158 c 1
 228 276 338 389 442 389 c 0
 498 389 502 339 502 309 c 0
 502 219 406 11 265 11 c 0
 240 11 184 32 184 65 c 0
 184 78 207 91 225 91 c 0
 245 91 254 51 285 51 c 0
 364 51 432 239 432 309 c 0
 432 329 432 349 422 349 c 0
 350 323 255 231 191 135 c 0
 170 103 133 41 121 -15 c 0
 93 -147 65 -279 32 -411 c 0
 29 -423 2 -441 -18 -441 c 0
 -28 -441 -37 -441 -37 -431 c 0
EndSplineSet
Validated: 1
EndChar

StartChar: q
Encoding: 113 113 83
Width: 431
GlyphClass: 2
Flags: MW
HStem: -403 35<619.5 749> -23 40<151.5 165> 384 46<239 303>
VStem: 17 62<95 125 95 125> 82 67<195 242.5 176 245> 355 64<261.5 305> 843 62<-309 -278>
LayerCount: 2
Fore
SplineSet
17 101 m 0
 17 149 41 180 83 180 c 1
 83 180 82 189 82 201 c 0
 82 289 163 430 307 430 c 0
 391 430 419 374 419 326 c 0
 419 197 352 78 248 6 c 1
 360 -152 512 -368 727 -368 c 0
 775 -368 843 -346 843 -301 c 0
 843 -255 809 -209 809 -209 c 1
 809 -193 845 -177 867 -177 c 0
 895 -177 905 -249 905 -265 c 0
 905 -353 807 -403 691 -403 c 0
 485 -403 317 -202 193 -20 c 1
 183 -22 169 -23 161 -23 c 0
 89 -23 17 29 17 101 c 0
79 119 m 0
 79 71 130 17 173 17 c 1
 140 55 102 104 87 162 c 1
 79 150 79 131 79 119 c 0
149 215 m 0
 149 137 190 74 226 36 c 1
 278 70 355 186 355 274 c 0
 355 336 325 384 281 384 c 0
 197 384 149 270 149 215 c 0
EndSplineSet
Validated: 1
EndChar

StartChar: r
Encoding: 114 114 84
Width: 414
GlyphClass: 2
Flags: MW
HStem: 1 21G<53 86> 367 42<284 321>
VStem: 106 71<337 362 337 364.5> 349 63<278.5 312>
LayerCount: 2
Fore
SplineSet
45 13 m 0
 75 132 106 297 106 356 c 0
 106 373 99 380 99 380 c 1
 99 399 127 409 143 409 c 0
 172 409 177 373 177 351 c 0
 177 323 159 267 159 267 c 1
 191 324 246 409 322 409 c 0
 382 409 412 359 412 299 c 0
 412 258 378 174 332 174 c 0
 322 174 312 179 312 189 c 1
 331 204 349 248 349 287 c 0
 349 337 339 367 303 367 c 0
 253 367 154 206 135 135 c 0
 122 87 114 1 58 1 c 0
 48 1 45 3 45 13 c 0
EndSplineSet
Validated: 1
EndChar

StartChar: s
Encoding: 115 115 85
Width: 343
GlyphClass: 2
Flags: MW
HStem: -9 42<139.5 179 139.5 187.5> 392 43<327.5 337.5>
VStem: 11 70<78.5 100.5> 80 71<255.5 321 255.5 339.5> 239 61<70 117.5>
LayerCount: 2
Fore
SplineSet
11 94 m 0xe8
 11 107 39 119 60 119 c 0
 72 119 81 115 81 104 c 0xe8
 81 53 120 33 159 33 c 0
 199 33 239 54 239 86 c 0
 239 149 80 171 80 290 c 0
 80 389 229 435 336 435 c 0
 356 435 370 428 370 424 c 0
 370 411 346 392 329 392 c 0
 326 392 322 395 306 395 c 0
 235 395 151 350 151 292 c 0xd8
 151 219 300 184 300 94 c 0
 300 27 225 -9 150 -9 c 0
 67 -9 11 35 11 94 c 0xe8
EndSplineSet
Validated: 1
EndChar

StartChar: t
Encoding: 116 116 86
Width: 366
GlyphClass: 2
Flags: MW
HStem: 0 54<175.5 187> 275 38
VStem: 79 70<73.5 89> 161 79
LayerCount: 2
Fore
SplineSet
28 280 m 0
 28 312 89 311 122 313 c 1
 132 356 142 404 161 461 c 0
 171 490 193 519 219 519 c 0
 231 519 240 515 240 504 c 0
 240 489 205 387 189 323 c 1
 290 342 393 374 410 374 c 0
 418 374 421 372 421 368 c 0
 421 329 291 298 179 282 c 1
 161 207 149 135 149 82 c 0
 149 65 168 54 183 54 c 0
 244 54 267 123 311 123 c 0
 318 123 323 121 323 118 c 0
 323 106 228 0 146 0 c 0
 113 0 79 26 79 72 c 0
 79 106 87 166 112 275 c 1
 85 272 61 271 45 271 c 0
 33 271 28 275 28 280 c 0
EndSplineSet
Validated: 1
EndChar

StartChar: u
Encoding: 117 117 87
Width: 512
GlyphClass: 2
Flags: MW
HStem: -17 50<368 445.5> 60 70<121.5 138.5>
VStem: 39 71<160.5 169> 92 61 346 70<64 112>
LayerCount: 2
Fore
SplineSet
39 130 m 0xe8
 39 208 80 326 92 356 c 0
 100 375 121 386 139 386 c 0
 147 386 153 384 153 380 c 0xd8
 153 366 110 259 110 178 c 0
 110 143 116 130 127 130 c 0
 182 130 287 308 432 386 c 0
 434 387 451 388 464 388 c 0
 474 388 483 386 483 380 c 0
 483 365 416 196 416 74 c 0
 416 54 420 33 441 33 c 0
 450 33 456 38 462 38 c 0
 470 38 475 33 475 29 c 0
 475 9 398 -17 387 -17 c 0
 349 -17 346 38 346 71 c 0
 346 153 370 234 393 305 c 1
 312 241 194 60 83 60 c 0
 50 60 39 89 39 130 c 0xe8
EndSplineSet
Validated: 1
EndChar

StartChar: v
Encoding: 118 118 88
Width: 412
GlyphClass: 2
Flags: MW
HStem: 0 21G<143 187>
VStem: 330 67<265.5 329.5>
LayerCount: 2
Fore
SplineSet
22 381 m 0
 22 395 47 409 67 409 c 0
 74 409 81 407 86 402 c 0
 166 305 150 186 184 62 c 1
 248 122 330 222 330 307 c 0
 330 352 303 369 303 380 c 0
 303 394 332 409 351 409 c 0
 380 409 397 345 397 321 c 0
 397 210 228 0 146 0 c 0
 140 0 136 4 135 9 c 0
 97 124 104 278 26 372 c 0
 23 375 22 378 22 381 c 0
EndSplineSet
Validated: 1
EndChar

StartChar: w
Encoding: 119 119 89
Width: 799
GlyphClass: 2
Flags: MW
HStem: -1 21G<112 125.5> 13 41<470 561> 369 57<644.5 673.5>
VStem: 108 63<187.5 250 187.5 285.5> 312 64 717 64<214 290>
LayerCount: 2
Fore
SplineSet
56 389 m 0xbc
 56 403 82 417 100 417 c 0
 161 417 171 294 171 206 c 0
 171 169 170 138 169 125 c 1
 219 207 277 293 333 376 c 0
 338 381 362 388 379 388 c 0
 387 388 394 386 394 379 c 0
 394 369 376 351 376 289 c 0
 376 176 428 54 512 54 c 0
 622 54 717 164 717 264 c 0
 717 316 694 369 653 369 c 0
 600 369 601 335 563 335 c 0
 552 335 544 339 544 346 c 0
 544 396 625 426 664 426 c 0
 746 426 781 343 781 273 c 0
 781 151 630 13 492 13 c 0x7c
 397 13 319 92 312 255 c 1
 263 178 212 100 167 22 c 0
 162 13 134 -1 117 -1 c 0
 107 -1 95 6 95 11 c 0
 95 87 108 131 108 214 c 0
 108 357 56 376 56 389 c 0xbc
EndSplineSet
Validated: 1
EndChar

StartChar: x
Encoding: 120 120 90
Width: 516
GlyphClass: 2
Flags: MW
HStem: -23 21G<401.5 424.5> 0 44<126 143>
VStem: 41 62<81 114.5 81 119> 139 64<365 401>
LayerCount: 2
Fore
SplineSet
41 83 m 0
 41 155 111 235 186 273 c 1
 177 294 139 359 139 371 c 0
 139 393 164 409 185 409 c 0
 193 409 200 407 203 401 c 2
 203 401 275 234 310 171 c 1
 363 232 430 331 469 387 c 0
 476 398 497 403 511 403 c 0
 523 403 531 398 531 392 c 0
 531 364 452 268 341 134 c 1
 378 74 406 29 440 11 c 1
 440 11 455 7 455 -2 c 0
 455 -15 432 -23 417 -23 c 0
 386 -23 337 14 289 80 c 1
 236 31 167 0 119 0 c 0
 62 0 41 41 41 83 c 0
103 93 m 0
 103 69 115 44 137 44 c 0
 162 44 221 81 264 128 c 1
 240 165 222 198 203 236 c 1
 140 208 103 136 103 93 c 0
EndSplineSet
Validated: 1
EndChar

StartChar: y
Encoding: 121 121 91
Width: 505
GlyphClass: 2
Flags: MW
HStem: -464 41<-7.5 35> 360 41
VStem: -152 59<-315 -278.5>
LayerCount: 2
Fore
SplineSet
-152 -315 m 0
 -152 -242 -85 -210 -59 -210 c 0
 -43 -210 -37 -216 -37 -224 c 0
 -37 -257 -93 -239 -93 -282 c 0
 -93 -348 -34 -423 19 -423 c 0
 82 -423 145 -374 182 -331 c 0
 330 -160 322 28 369 240 c 0
 376 273 390 304 408 330 c 1
 310 268 250 149 221 40 c 0
 217 25 188 7 169 7 c 0
 161 7 154 11 151 20 c 0
 104 186 23 351 23 380 c 0
 23 394 51 412 70 412 c 0
 76 412 82 410 84 405 c 2
 189 124 l 1
 250 262 362 401 525 401 c 0
 537 401 541 397 541 392 c 0
 541 364 499 375 481 360 c 0
 393 288 453 -140 209 -364 c 0
 147 -421 72 -464 -2 -464 c 0
 -90 -464 -152 -401 -152 -315 c 0
EndSplineSet
Validated: 1
EndChar

StartChar: z
Encoding: 122 122 92
Width: 488
GlyphClass: 2
Flags: MW
HStem: -279 42<622 679> -3 21G<29 49> 101 36<106 165> 385 40<149 214>
VStem: 22 60<51 68> 716 62<-141 -121 -173 -117>
LayerCount: 2
Fore
SplineSet
22 33 m 0
 22 103 96 137 156 137 c 0
 174 137 192 135 208 131 c 1
 280 193 363 250 434 321 c 1
 368 339 254 385 174 385 c 0
 124 385 86 367 86 315 c 0
 86 295 58 285 40 285 c 0
 32 285 26 287 26 295 c 0
 30 395 92 425 172 425 c 0
 286 425 510 351 510 343 c 0
 510 292 331 174 248 113 c 1
 381 54 578 -237 666 -237 c 0
 710 -237 716 -157 716 -125 c 0
 716 -109 744 -97 762 -97 c 0
 776 -97 778 -109 778 -133 c 0
 778 -213 716 -279 642 -279 c 0
 493 -279 352 11 192 75 c 1
 147 47 62 -3 36 -3 c 0
 22 -3 22 25 22 33 c 0
82 51 m 1
 89 51 130 77 154 93 c 1
 140 99 128 101 116 101 c 0
 96 101 82 88 82 51 c 1
EndSplineSet
Validated: 1
EndChar

StartChar: braceleft
Encoding: 123 123 93
Width: 337
GlyphClass: 2
Flags: MW
HStem: -225 41<166 190.5> 600 42<226 244.5>
VStem: 73 62<-164.5 -130> 107 68<-17.5 35.5> 156 62<534 571.5> 198 70<284.5 340>
LayerCount: 2
Fore
SplineSet
9 164 m 0xd0
 9 174 37 185 45 187 c 0
 137 210 198 232 198 318 c 0xd4
 198 362 156 466 156 544 c 0
 156 599 177 642 249 642 c 0
 302 642 319 628 319 617 c 0
 319 598 308 593 292 593 c 0
 273 593 259 600 230 600 c 0
 222 600 218 583 218 566 c 0xc8
 218 502 268 372 268 335 c 0
 268 234 175 192 94 169 c 1
 152 130 175 76 175 7 c 0xd4
 175 -42 135 -97 135 -153 c 0
 135 -176 154 -184 178 -184 c 0
 225 -184 261 -155 281 -155 c 0
 293 -155 302 -160 302 -169 c 0
 302 -190 233 -225 148 -225 c 0
 99 -225 73 -208 73 -157 c 0xe0
 73 -103 107 -54 107 3 c 0
 107 68 83 123 15 157 c 0
 11 159 9 162 9 164 c 0xd0
EndSplineSet
Validated: 1
EndChar

StartChar: bar
Encoding: 124 124 94
Width: 171
GlyphClass: 2
Flags: MW
VStem: 19 70<-200.5 -40>
LayerCount: 2
Fore
SplineSet
19 -195 m 2
 79 645 l 2
 79 658 107 670 128 670 c 0
 140 670 149 666 149 655 c 0
 149 375 89 105 89 -185 c 0
 89 -198 61 -210 40 -210 c 0
 28 -210 19 -206 19 -195 c 2
EndSplineSet
Validated: 1
EndChar

StartChar: braceright
Encoding: 125 125 95
Width: 307
GlyphClass: 2
Flags: MW
HStem: -178 41 599 37<182 249.5>
VStem: 88 63<252 290> 213 64<530 582.5>
LayerCount: 2
Fore
SplineSet
13 -168 m 0
 13 -158 26 -140 43 -137 c 0
 121 -123 138 -78 145 -23 c 0
 153 36 149 105 198 154 c 1
 135 176 88 192 88 262 c 0
 88 318 213 479 213 573 c 0
 213 592 200 599 182 599 c 1
 39 559 l 2
 26 559 16 563 16 571 c 0
 16 607 161 636 239 636 c 0
 260 636 277 632 277 590 c 0
 277 470 151 379 151 289 c 0
 151 215 212 195 273 183 c 0
 281 183 284 180 284 176 c 0
 284 168 275 160 263 153 c 0
 216 126 209 56 195 -13 c 0
 178 -96 151 -178 29 -178 c 0
 17 -178 13 -174 13 -168 c 0
EndSplineSet
Validated: 1
EndChar

StartChar: asciitilde
Encoding: 126 126 96
Width: 848
GlyphClass: 2
Flags: MW
HStem: 208 41<546.5 633.5 546.5 651.5> 324 43<176 262.5>
LayerCount: 2
Fore
SplineSet
22 250 m 0
 22 279 94 367 208 367 c 0
 340 367 493 249 600 249 c 0
 667 249 705 291 736 369 c 0
 739 377 770 385 789 385 c 0
 799 385 807 382 807 374 c 0
 807 356 730 208 573 208 c 0
 448 208 327 324 198 324 c 0
 154 324 114 307 86 259 c 0
 79 248 57 240 40 240 c 0
 30 240 22 243 22 250 c 0
EndSplineSet
Validated: 1
EndChar

StartChar: afii10023
Encoding: 1025 1025 98
Width: 580
GlyphClass: 2
Flags: MW
HStem: -23 50<330.5 390.5 330.5 397.5> 588 40<385.5 426.5> 653 70<559 617> 701 60<453 503>
VStem: 161 68<109 190.5 109 194> 263 71<483 539.5> 439 80<710 751> 516 61 553 82<658 718>
LayerCount: 2
Fore
SplineSet
161 136 m 0xcd
 161 252 261 317 384 317 c 1
 328 362 263 435 263 500 c 0
 263 579 345 628 421 628 c 0
 508 628 577 570 577 538 c 0
 577 526 554 515 535 515 c 0
 527 515 519 517 516 523 c 0
 500 561 449 588 404 588 c 0
 367 588 334 570 334 526 c 0
 334 440 402 359 466 323 c 0
 473 319 475 314 475 310 c 0
 475 272 403 280 337 267 c 0
 281 256 229 231 229 150 c 0
 229 68 301 27 360 27 c 0
 421 27 479 62 516 123 c 0
 522 134 544 142 562 142 c 0
 572 142 580 139 580 132 c 0
 580 109 462 -23 333 -23 c 0
 256 -23 161 31 161 136 c 0xcd
439 715 m 0xde
 439 737 458 761 497 761 c 0
 509 761 519 757 519 745 c 1
 511 727 491 701 459 701 c 0
 447 701 439 705 439 715 c 0xde
553 661 m 0xec80
 553 689 570 723 613 723 c 0
 621 723 635 723 635 713 c 0
 635 672 585 653 563 653 c 0
 555 653 553 655 553 661 c 0xec80
EndSplineSet
Validated: 1
EndChar

StartChar: afii10051
Encoding: 1026 1026 99
Width: 700
GlyphClass: 2
Flags: MW
HStem: -246 35<307 386.5 307 439> -2 21G<253 263> 340 52<506 549.5> 466 40<712.5 761> 607 39<224.5 260.5>
VStem: 43 70<453.5 506 453.5 519.5> 594 62<70.5 157.5 39 166>
LayerCount: 2
Fore
SplineSet
43 468 m 0
 43 571 176 646 273 646 c 0
 312 646 349 639 385 629 c 1
 393 631 401 633 409 633 c 0
 420 633 429 630 429 623 c 0
 429 620 428 617 428 615 c 0
 540 573 645 506 780 506 c 1
 808 508 l 2
 814 508 817 506 817 502 c 0
 817 469 769 466 753 466 c 0
 627 466 528 526 421 568 c 1
 405 442 393 319 365 200 c 1
 400 252 467 392 545 392 c 0
 650 392 656 182 656 133 c 0
 656 -55 543 -246 335 -246 c 0
 217 -246 128 -151 128 -132 c 0
 128 -118 156 -100 175 -100 c 0
 199 -100 250 -211 364 -211 c 0
 409 -211 458 -193 498 -151 c 0
 554 -92 594 8 594 133 c 0
 594 199 572 340 527 340 c 0
 471 340 389 77 303 15 c 0
 290 5 270 -2 256 -2 c 0
 250 -2 245 0 245 4 c 0
 245 9 250 14 252 20 c 0
 321 206 343 404 357 590 c 1
 320 600 281 607 240 607 c 0
 179 607 113 538 113 474 c 0
 113 433 133 418 133 409 c 0
 133 395 104 380 85 380 c 0
 55 380 43 437 43 468 c 0
EndSplineSet
Validated: 1
EndChar

StartChar: afii10052
Encoding: 1027 1027 100
Width: 558
GlyphClass: 2
Flags: MW
HStem: -23 39<291 319 291 342.5> 466 40<749 761> 607 39<224.5 297>
VStem: 43 70<458.5 506 453.5 519.5> 179 65<122 193.5 122 199> 605 70<619 640.5>
LayerCount: 2
Fore
SplineSet
43 468 m 0
 43 571 176 646 273 646 c 0
 385 646 480 591 582 550 c 0
 587 551 591 552 596 552 c 0
 605 552 611 549 611 539 c 1
 663 520 718 506 780 506 c 1
 808 508 l 2
 814 508 817 506 817 502 c 0
 817 469 769 466 753 466 c 0
 696 466 644 478 594 496 c 1
 546 349 415 -23 270 -23 c 0
 203 -23 179 70 179 158 c 0
 179 240 189 325 257 325 c 0
 265 325 270 323 270 317 c 0
 256 284 244 223 244 164 c 0
 244 80 280 16 302 16 c 0
 336 16 508 434 544 515 c 1
 447 556 354 607 240 607 c 0
 175 607 113 538 113 474 c 0
 113 433 133 422 133 409 c 0
 133 395 104 380 85 380 c 0
 55 380 43 449 43 468 c 0
605 615 m 0
 605 666 687 739 731 739 c 0
 739 739 749 735 749 727 c 0
 749 705 675 675 675 625 c 0
 675 613 647 599 627 599 c 0
 615 599 605 603 605 615 c 0
EndSplineSet
Validated: 1
EndChar

StartChar: afii10053
Encoding: 1028 1028 101
Width: 723
GlyphClass: 2
Flags: MW
HStem: -7 47<354.5 440 354.5 452.5> 230 42<372 395.5> 249 85 389 40<580 611 580 616> 599 47<557 626>
VStem: 166 64<178 215> 740 60<513 567.5>
LayerCount: 2
Fore
SplineSet
69 301 m 0xbe
 69 317 102 334 123 334 c 0xbe
 139 334 146 320 178 305 c 1
 227 504 426 646 644 646 c 0
 730 646 800 613 800 556 c 0
 800 461 665 389 567 389 c 0
 551 389 545 393 545 398 c 0
 545 410 573 429 587 429 c 0
 635 429 740 486 740 540 c 0
 740 595 655 599 597 599 c 0
 517 599 440 566 378 514 c 0
 307 455 255 372 237 286 c 1
 276 278 331 272 413 272 c 0
 545 272 646 303 664 303 c 0
 674 303 678 299 678 293 c 0
 678 244 450 230 341 230 c 0xde
 309 230 270 232 230 237 c 1
 230 119 307 40 402 40 c 0
 478 40 559 93 597 159 c 0
 604 172 631 180 649 180 c 0
 656 180 661 178 661 175 c 0
 661 148 531 -7 374 -7 c 0
 231 -7 166 111 166 208 c 0
 166 222 166 235 168 249 c 1
 134 257 69 280 69 301 c 0xbe
EndSplineSet
Validated: 1
EndChar

StartChar: afii10054
Encoding: 1029 1029 102
Width: 633
GlyphClass: 2
Flags: MW
HStem: -101 35<351 416.5> 538 45<475.5 494.5>
VStem: 141 74<56 111> 301 64<404 479.5 404 490> 540 67<42 142>
LayerCount: 2
Fore
SplineSet
141 81 m 0
 141 141 228 200 287 200 c 0
 300 200 307 195 307 188 c 0
 307 168 215 161 215 91 c 0
 215 21 306 -66 396 -66 c 0
 466 -66 540 8 540 76 c 0
 540 208 301 323 301 442 c 0
 301 538 445 583 506 583 c 0
 554 583 610 571 610 559 c 0
 610 546 579 526 560 526 c 0
 546 526 521 538 468 538 c 0
 428 538 365 506 365 453 c 0
 365 355 607 230 607 83 c 0
 607 -20 472 -101 361 -101 c 0
 251 -101 141 -21 141 81 c 0
EndSplineSet
Validated: 1
EndChar

StartChar: afii10055
Encoding: 1030 1030 103
Width: 623
GlyphClass: 2
Flags: MW
HStem: -23 21G<390 400> 560 36<412.5 472>
VStem: 131 71
LayerCount: 2
Fore
SplineSet
131 451 m 4
 131 452 131 454 132 455 c 4
 174 568 341 596 484 596 c 4
 547 596 656 592 656 574 c 0
 656 571 655 568 652 565 c 2
 540 185 l 2
 520 116 492 15 422 -15 c 0
 413 -21 404 -23 396 -23 c 0
 384 -23 375 -18 375 -12 c 0
 375 -6 381 -2 392 5 c 0
 422 24 444 86 453 115 c 0
 529 368 558 463 586 548 c 1
 551 555 499 560 445 560 c 4
 341 560 227 540 202 465 c 4
 196 452 167 444 148 444 c 4
 138 444 131 446 131 451 c 4
EndSplineSet
Validated: 1
EndChar

StartChar: afii10056
Encoding: 1031 1031 104
Width: 491
GlyphClass: 2
Flags: MW
HStem: -28 21G<296 365> 340 34<158 209.5> 583 70<618 676> 631 60<512 562>
VStem: 128 60<383 433.5 383 446> 498 80<640 681> 612 82<588 648>
LayerCount: 2
Fore
SplineSet
128 397 m 0xce
 128 495 219 552 333 565 c 0
 428 576 519 585 531 585 c 0
 542 585 546 583 546 579 c 0
 546 574 538 560 521 553 c 1
 458 477 426 -28 304 -28 c 0
 288 -28 274 -21 274 -12 c 0
 274 -7 279 -2 291 5 c 0
 365 48 382 411 474 541 c 1
 331 525 l 2
 230 514 188 480 188 387 c 0
 188 379 190 374 197 374 c 0
 222 374 225 373 225 369 c 0
 225 351 193 340 172 340 c 0
 144 340 128 369 128 397 c 0xce
498 645 m 0
 498 667 517 691 556 691 c 0
 568 691 578 687 578 675 c 1
 570 657 550 631 518 631 c 0xde
 506 631 498 635 498 645 c 0
612 591 m 0
 612 619 629 653 672 653 c 0
 680 653 694 653 694 643 c 0
 694 602 644 583 622 583 c 0xee
 614 583 612 585 612 591 c 0
EndSplineSet
Validated: 1
EndChar

StartChar: afii10057
Encoding: 1032 1032 105
Width: 722
GlyphClass: 2
Flags: MW
HStem: -150 42<185.5 326 185.5 440> 555 37<516 590.5>
VStem: -16 70<124.5 183.5>
LayerCount: 2
Fore
SplineSet
-16 177 m 0
 -16 190 12 202 33 202 c 0
 45 202 54 198 54 187 c 0
 54 62 92 -108 279 -108 c 0
 373 -108 444 -46 497 27 c 0
 606 179 631 377 714 548 c 1
 675 550 619 555 562 555 c 0
 470 555 376 543 354 487 c 0
 349 476 328 468 312 468 c 0
 301 468 293 472 293 481 c 0
 293 517 340 592 587 592 c 0
 745 592 787 589 787 576 c 0
 787 573 786 571 784 567 c 0
 659 328 627 -150 253 -150 c 0
 89 -150 -16 -7 -16 177 c 0
EndSplineSet
Validated: 1
EndChar

StartChar: afii10058
Encoding: 1033 1033 106
Width: 983
GlyphClass: 2
Flags: MW
HStem: -1 40<227.5 279.5 227.5 304.5> 0 51<817 859 817 870> 289 37<926 953.5>
VStem: 120 62<149 193.5> 653 70 873 64<105.5 143>
LayerCount: 2
Fore
SplineSet
120 168 m 0xbc
 120 219 139 270 183 270 c 0
 194 270 203 267 203 259 c 1
 189 243 182 217 182 178 c 0
 182 120 212 39 243 39 c 0xbc
 316 39 553 445 665 540 c 1
 665 570 653 610 653 619 c 0
 653 632 681 644 702 644 c 0
 714 644 720 640 723 629 c 0
 733 591 730 456 741 326 c 1
 751 338 784 351 809 351 c 0
 857 351 871 326 953 326 c 0
 992 326 992 345 1024 345 c 0
 1036 345 1046 343 1046 336 c 0
 1046 303 970 289 937 289 c 0
 915 289 889 291 857 296 c 1
 906 257 937 207 937 143 c 0
 937 68 901 0 839 0 c 0x7c
 670 0 668 347 668 481 c 1
 593 365 385 -1 224 -1 c 0
 146 -1 120 90 120 168 c 0xbc
742 311 m 1
 754 176 781 51 853 51 c 0x7c
 865 51 873 64 873 99 c 0
 873 187 842 290 742 311 c 1
EndSplineSet
Validated: 1
EndChar

StartChar: afii10059
Encoding: 1034 1034 107
Width: 1107
GlyphClass: 2
Flags: MW
HStem: -1 55<858.5 902.5 858.5 930.5> 6 71<291.5 298> 291 37<1044.5 1090 1024 1099.5> 474 40<144.5 194.5> 599 38<378 470.5>
VStem: 118 71<514 530> 217 68<123.5 176.5> 482 68<570 587> 755 60<157.5 242.5> 947 65<228 265.5 223 296>
LayerCount: 2
Fore
SplineSet
118 504 m 0x7fc0
 118 556 269 637 464 637 c 0
 532 637 550 634 550 591 c 0
 550 549 535 483 512 410 c 1
 644 419 772 401 818 487 c 0
 838 525 847 589 895 589 c 0
 904 589 910 586 910 579 c 0
 910 528 815 441 815 193 c 0
 815 122 843 54 874 54 c 0
 931 54 947 211 947 245 c 0
 947 347 855 346 855 364 c 0
 855 376 877 391 900 391 c 0
 976 391 979 328 1069 328 c 0
 1111 328 1128 368 1169 368 c 0
 1182 368 1190 364 1190 355 c 0
 1190 345 1147 291 1052 291 c 0
 1037 291 1023 292 1009 294 c 1
 1011 283 1012 271 1012 260 c 0
 1012 186 1000 -1 861 -1 c 0xbfc0
 772 -1 755 105 755 207 c 0
 755 278 769 343 790 408 c 1
 709 360 586 376 497 364 c 1
 437 193 337 6 259 6 c 0
 224 6 217 86 217 113 c 0
 217 240 328 350 451 397 c 1
 470 460 482 523 482 580 c 0
 482 594 477 599 464 599 c 0
 292 599 189 556 189 514 c 1
 200 514 204 511 204 507 c 0
 204 495 181 474 159 474 c 0
 130 474 118 491 118 504 c 0x7fc0
285 141 m 0
 285 106 288 77 295 77 c 0x7fc0
 326 77 398 245 434 347 c 1
 349 310 285 224 285 141 c 0
EndSplineSet
Validated: 1
EndChar

StartChar: afii10060
Encoding: 1035 1035 108
Width: 709
GlyphClass: 2
Flags: MW
HStem: -4 40<572 617> 370 39<539 563.5> 466 40<691 761> 607 39<224.5 264>
VStem: 43 70<458.5 509 454 519.5> 523 64<91.5 153.5> 565 62<344 368.5>
LayerCount: 2
Fore
SplineSet
43 468 m 0xfa
 43 571 176 646 273 646 c 0
 453 646 586 506 780 506 c 1
 808 508 l 2
 814 508 817 506 817 502 c 0
 817 469 769 466 753 466 c 0
 629 466 531 525 425 566 c 1
 390 456 368 332 349 211 c 1
 402 318 479 409 599 409 c 0
 621 409 627 391 627 370 c 0xfa
 627 317 587 242 587 112 c 0
 587 71 594 40 612 36 c 0
 622 36 625 34 625 30 c 0
 625 19 587 -4 572 -4 c 0
 535 0 523 44 523 97 c 0xfc
 523 210 565 320 565 368 c 0
 565 369 564 370 563 370 c 0
 488 370 338 113 322 36 c 0
 322 23 294 11 273 11 c 0
 262 11 251 19 251 30 c 0
 281 210 305 414 375 584 c 1
 332 598 288 607 240 607 c 0
 184 607 113 544 113 474 c 0
 113 434 133 418 133 409 c 0
 133 395 104 380 85 380 c 0
 55 380 43 449 43 468 c 0xfa
EndSplineSet
Validated: 1
EndChar

StartChar: afii10061
Encoding: 1036 1036 109
Width: 898
GlyphClass: 2
Flags: MW
HStem: 16 44<723 793> 542 46<675 765.5>
VStem: 301 61<538 544.5> 431 70<534 555.5> 821 70<368 393.5>
LayerCount: 2
Fore
SplineSet
150 42 m 0
 150 44 150 46 151 48 c 0
 191 208 291 368 301 538 c 0
 301 551 329 563 347 563 c 0
 356 563 362 560 362 553 c 0
 362 437 309 307 262 196 c 1
 402 380 575 588 721 588 c 0
 851 588 891 488 891 378 c 0
 891 358 858 348 839 348 c 0
 829 348 821 351 821 358 c 0
 821 429 816 542 715 542 c 0
 635 542 521 429 450 357 c 1
 526 267 660 60 786 60 c 0
 837 60 853 94 892 94 c 0
 904 94 914 92 914 85 c 0
 914 68 819 16 767 16 c 0
 623 16 507 192 402 305 c 1
 334 226 272 146 211 58 c 0
 204 51 174 35 159 35 c 0
 154 35 150 37 150 42 c 0
431 530 m 0
 431 581 513 654 557 654 c 0
 565 654 575 650 575 642 c 0
 575 620 501 590 501 540 c 0
 501 528 473 514 453 514 c 0
 441 514 431 518 431 530 c 0
EndSplineSet
Validated: 1
EndChar

StartChar: uni00AD
Encoding: 173 173 110
Width: 530
GlyphClass: 2
Flags: MW
HStem: 218 54
LayerCount: 2
Fore
SplineSet
76 226 m 0
 76 272 326 262 432 272 c 0
 448 272 454 268 454 262 c 0
 454 221 261 218 143 218 c 2
 92 218 l 2
 80 218 76 220 76 226 c 0
EndSplineSet
Validated: 1
EndChar

StartChar: afii10062
Encoding: 1038 1038 111
Width: 922
GlyphClass: 2
Flags: MW
HStem: -176 42<383.5 524 383.5 524> 587 47<1076 1146> 590 34<343.5 393> 722 50<763.5 856.5>
VStem: 143 66<12.5 76> 481 70 615 65<560 617.5 559.5 619>
LayerCount: 2
Fore
SplineSet
143 57 m 0xbe
 143 95 181 190 247 190 c 0
 261 190 274 185 274 175 c 0
 274 149 209 146 209 70 c 0
 209 -45 324 -134 443 -134 c 0
 605 -134 713 8 779 143 c 0
 844 276 857 450 889 511 c 1
 766 405 648 292 551 161 c 1
 549 91 530 5 465 5 c 0
 454 5 446 9 446 20 c 0
 446 62 459 102 481 142 c 1
 478 222 464 590 322 590 c 1
 305 588 l 2
 297 588 294 592 294 596 c 0
 294 616 332 624 355 624 c 0
 511 624 538 350 547 234 c 1
 692 400 862 590 959 590 c 0
 967 590 974 588 974 583 c 0
 974 572 970 568 966 560 c 0
 904 445 913 276 837 121 c 0
 764 -29 626 -176 422 -176 c 0
 254 -176 143 -71 143 57 c 0xbe
615 573 m 0
 615 665 696 772 803 772 c 0
 963 772 1016 634 1136 634 c 0
 1183 634 1184 689 1243 689 c 0
 1250 689 1255 687 1255 684 c 0
 1255 661 1180 587 1112 587 c 0xde
 1001 587 910 722 803 722 c 0
 724 722 680 654 680 581 c 0
 680 538 692 520 692 513 c 0
 692 500 669 485 651 485 c 0
 622 485 615 547 615 573 c 0
EndSplineSet
Validated: 1
EndChar

StartChar: afii10145
Encoding: 1039 1039 112
Width: 999
GlyphClass: 2
Flags: MW
HStem: -499 42<326.5 336.5 326.5 383> -12 21G<419.5 486> 41 66 141 40<231.5 241> 600 42<363.5 425.5>
VStem: 127 64<237.5 321.5> 484 71<399.5 489> 743 70<77.5 114.5>
LayerCount: 2
Fore
SplineSet
127 250 m 0
 127 393 294 642 429 642 c 0
 525 642 555 566 555 466 c 0
 555 333 502 158 481 59 c 1
 649 184 766 377 924 521 c 1
 924 521 950 530 965 530 c 0
 973 530 974 526 974 521 c 0
 974 441 813 183 813 84 c 0
 813 71 824 66 838 66 c 0
 905 66 905 107 945 107 c 0
 959 107 972 103 972 95 c 0
 972 72 909 48 887 41 c 0
 769 2 687 -2 606 -96 c 0
 581 -125 561 -200 547 -257 c 0
 515 -386 462 -499 304 -499 c 0
 297 -497 295 -493 295 -489 c 0
 295 -476 319 -457 334 -457 c 0
 339 -457 342 -459 352 -459 c 0
 425 -459 454 -368 484 -246 c 0
 503 -169 523 -90 566 -53 c 0
 608 -16 686 9 758 32 c 1
 747 36 743 53 743 60 c 0
 743 169 852 311 891 429 c 1
 744 270 547 -12 425 -12 c 0
 414 -12 404 -9 404 1 c 0
 421 150 484 273 484 448 c 0
 484 530 450 600 401 600 c 0
 326 600 191 407 191 261 c 0
 191 214 209 181 254 181 c 0
 270 181 276 177 276 172 c 0
 276 160 248 141 234 141 c 0
 157 141 127 187 127 250 c 0
EndSplineSet
Validated: 1
EndChar

StartChar: afii10017
Encoding: 1040 1040 113
Width: 976
GlyphClass: 2
Flags: MW
HStem: 23 44<273 326> 197 40<746 746> 317 44<304 314>
VStem: 140 66<132 186 132 195> 806 70<569 576.5> 905 62
LayerCount: 2
Fore
SplineSet
140 147 m 0
 140 243 218 361 316 361 c 0
 330 361 356 357 356 351 c 0
 356 341 322 317 306 317 c 0
 302 317 296 319 292 319 c 0
 232 319 206 205 206 167 c 0
 206 97 248 67 298 67 c 0
 372 67 446 133 506 193 c 1
 496 193 482 198 482 207 c 0
 482 222 506 233 526 233 c 2
 548 233 l 1
 648 335 738 457 806 569 c 1
 806 584 844 609 864 609 c 0
 870 609 876 605 876 597 c 0
 876 367 909 140 965 -83 c 2
 967 -91 l 1
 967 -109 941 -121 923 -121 c 0
 915 -121 907 -119 905 -113 c 0
 844 89 822 285 810 485 c 1
 748 395 676 305 604 227 c 1
 691 227 718 237 766 237 c 0
 782 237 788 233 788 227 c 0
 788 214 760 198 746 197 c 2
 566 187 l 1
 476 107 378 23 274 23 c 0
 178 23 140 81 140 147 c 0
EndSplineSet
Validated: 1
EndChar

StartChar: afii10018
Encoding: 1041 1041 114
Width: 773
GlyphClass: 2
Flags: MW
HStem: -48 38<489 545.5> 306 44<577 601.5> 517 40<793.5 869> 625 36<314 384>
VStem: 108 63<370.5 494.5 370.5 512.5> 380 65<94.5 192 94.5 192> 672 66<148.5 227.5>
LayerCount: 2
Fore
SplineSet
108 422 m 0
 108 603 246 661 382 661 c 0
 453 661 509 651 556 639 c 0
 654 615 738 557 849 557 c 0
 906 557 892 594 935 594 c 0
 941 594 946 592 946 588 c 0
 946 569 907 517 831 517 c 0
 737 517 649 559 560 586 c 1
 518 442 445 254 445 130 c 0
 445 59 465 -10 513 -10 c 0
 594 -10 672 109 672 188 c 0
 672 267 639 306 564 306 c 0
 551 306 535 302 520 302 c 0
 510 302 506 306 506 312 c 0
 506 341 555 350 599 350 c 0
 680 350 738 321 738 209 c 0
 738 79 612 -48 479 -48 c 0
 409 -48 380 -7 380 96 c 0
 380 288 479 524 500 603 c 1
 455 615 408 625 360 625 c 0
 229 625 171 548 171 441 c 0
 171 300 256 262 256 243 c 0
 256 232 228 213 207 213 c 0
 172 213 108 315 108 422 c 0
EndSplineSet
Validated: 1
EndChar

StartChar: afii10019
Encoding: 1042 1042 115
Width: 800
GlyphClass: 2
Flags: MW
HStem: -35 41<521 570> 252 39<479.5 484> 550 40<620.5 690.5>
VStem: 180 61 311 70<546 591> 380 61<34 84> 685 69<80.5 144> 718 69<467 511>
LayerCount: 2
Fore
SplineSet
180 -45 m 0xf1
 180 -43 180 -41 181 -39 c 0
 241 142 311 397 311 581 c 0
 311 601 340 616 361 616 c 0
 372 616 381 611 381 601 c 0
 381 491 355 370 323 260 c 2
 312 222 l 1
 392 355 538 590 703 590 c 0
 748 590 787 559 787 508 c 0xf9
 787 405 669 323 563 286 c 1
 657 264 754 203 754 120 c 0
 754 41 637 -35 503 -35 c 0
 440 -35 380 11 380 57 c 0
 380 76 410 89 428 89 c 0
 436 89 441 87 441 81 c 0
 452 28 497 6 545 6 c 0
 612 6 685 49 685 106 c 0xf6
 685 182 560 251 484 252 c 0
 474 252 454 252 454 260 c 0
 454 278 468 291 491 291 c 0
 616 309 718 433 718 501 c 0
 718 521 705 550 676 550 c 0
 553 550 288 163 241 -29 c 0
 238 -42 204 -54 188 -54 c 0
 183 -54 180 -50 180 -45 c 0xf1
EndSplineSet
Validated: 1
EndChar

StartChar: afii10020
Encoding: 1043 1043 116
Width: 618
GlyphClass: 2
Flags: MW
HStem: -23 39<351 379 351 402.5> 466 40<809 821> 607 39<284.5 357>
VStem: 103 70<458.5 506 453.5 519.5> 239 65<122 193.5 122 199>
LayerCount: 2
Fore
SplineSet
103 468 m 0
 103 571 236 646 333 646 c 0
 445 646 540 591 642 550 c 0
 647 551 651 552 656 552 c 0
 665 552 671 549 671 539 c 1
 723 520 778 506 840 506 c 1
 868 508 l 2
 874 508 877 506 877 502 c 0
 877 469 829 466 813 466 c 0
 756 466 704 478 654 496 c 1
 606 349 475 -23 330 -23 c 0
 263 -23 239 70 239 158 c 0
 239 240 249 325 317 325 c 0
 325 325 330 323 330 317 c 0
 316 284 304 223 304 164 c 0
 304 80 340 16 362 16 c 0
 396 16 568 434 604 515 c 1
 507 556 414 607 300 607 c 0
 235 607 173 538 173 474 c 0
 173 433 193 422 193 409 c 0
 193 395 164 380 145 380 c 0
 115 380 103 449 103 468 c 0
EndSplineSet
Validated: 1
EndChar

StartChar: afii10021
Encoding: 1044 1044 117
Width: 831
GlyphClass: 2
Flags: MW
HStem: 12 42<525.5 602.5 525.5 636> 32 42<344.5 381 344.5 382> 598 40<292 438>
VStem: 722 65<171.5 286>
LayerCount: 2
Fore
SplineSet
126 -37 m 0x70
 126 32 178 48 239 63 c 1
 243 70 435 256 522 412 c 0
 527 423 548 431 564 431 c 0
 575 431 583 427 583 418 c 0
 583 416 583 414 582 412 c 0
 506 276 408 169 300 69 c 1
 317 72 335 74 354 74 c 0x70
 408 74 489 54 562 54 c 0
 643 54 722 79 722 182 c 0
 722 390 547 598 329 598 c 0
 230 598 231 542 171 542 c 0
 162 542 155 544 155 549 c 0
 155 557 229 638 355 638 c 0
 582 638 787 424 787 223 c 0
 787 120 714 12 558 12 c 0xb0
 488 12 416 32 348 32 c 0
 221 32 190 -43 149 -43 c 0
 140 -43 126 -41 126 -37 c 0x70
EndSplineSet
Validated: 1
EndChar

StartChar: afii10022
Encoding: 1045 1045 118
Width: 580
GlyphClass: 2
Flags: MW
HStem: -23 50<330.5 390.5 330.5 397.5> 588 40<385.5 426.5>
VStem: 161 68<109 191 109 194> 263 71<483 539.5> 516 61
LayerCount: 2
Fore
SplineSet
161 136 m 0
 161 252 261 317 384 317 c 1
 328 362 263 435 263 500 c 0
 263 579 345 628 421 628 c 0
 483 628 544 601 576 543 c 0
 577 541 577 540 577 538 c 0
 577 526 554 515 535 515 c 0
 527 515 519 517 516 523 c 0
 502 562 449 588 404 588 c 0
 367 588 334 570 334 526 c 0
 334 440 402 359 466 323 c 0
 473 319 475 314 475 310 c 0
 475 273 404 281 339 268 c 0
 282 257 229 232 229 150 c 0
 229 68 301 27 360 27 c 0
 421 27 479 62 516 123 c 0
 522 134 544 142 562 142 c 0
 572 142 580 139 580 132 c 0
 580 109 462 -23 333 -23 c 0
 256 -23 161 31 161 136 c 0
EndSplineSet
Validated: 1
EndChar

StartChar: afii10024
Encoding: 1046 1046 119
Width: 1130
GlyphClass: 2
Flags: MW
HStem: -10 47<987.5 1054.5 987.5 1058.5> 14 45<249.5 277> 556 41<1005 1036>
VStem: 158 75<135 173.5 135 180.5> 493 62<281 341> 1055 71<501.5 536.5>
LayerCount: 2
Fore
SplineSet
158 114 m 0x7c
 158 247 300 353 349 353 c 0
 361 353 370 348 370 339 c 0
 370 312 331 302 295 275 c 0
 263 251 233 212 233 135 c 1
 233 135 233 59 266 59 c 0
 300 59 493 237 493 305 c 0
 493 377 299 572 299 594 c 0
 299 610 332 627 353 627 c 0
 400 627 555 367 555 323 c 0
 555 239 326 14 228 14 c 0
 175 14 158 79 158 114 c 0x7c
553 35 m 0
 553 140 619 635 763 635 c 0
 775 635 786 631 786 623 c 0
 786 618 783 612 773 605 c 0
 702 556 649 313 630 151 c 1
 729 315 l 1
 726 319 722 325 722 330 c 0
 722 341 740 355 757 360 c 1
 857 513 939 597 1039 597 c 0
 1080 597 1126 580 1126 536 c 0
 1126 467 1004 329 932 329 c 0
 920 329 910 331 910 338 c 0
 910 371 1055 409 1055 525 c 0
 1055 548 1044 556 1028 556 c 0
 982 556 917 510 798 329 c 1
 851 236 940 37 1035 37 c 0
 1074 37 1099 85 1147 85 c 0
 1158 85 1167 82 1167 75 c 0
 1167 60 1100 -10 1017 -10 c 0xbc
 893 -10 804 183 758 266 c 1
 654 108 638 19 573 19 c 0
 564 19 553 23 553 35 c 0
EndSplineSet
Validated: 1
EndChar

StartChar: afii10025
Encoding: 1047 1047 120
Width: 598
GlyphClass: 2
Flags: MW
HStem: -166 44<336.5 360.5 336.5 361> 599 41<418 499.5>
VStem: 152 68<355 439> 246 65<-100 -96.5> 316 75<175.5 240.5> 496 67<-15 69.5> 610 65<470 557.5>
LayerCount: 2
Fore
SplineSet
152 369 m 0
 152 509 315 640 521 640 c 0
 592 640 675 630 675 549 c 0
 675 384 391 294 391 201 c 0
 391 150 563 133 563 39 c 0
 563 -69 414 -166 308 -166 c 0
 269 -166 246 -144 246 -108 c 0
 246 -85 253 -32 308 -32 c 0
 318 -32 326 -35 326 -42 c 0
 326 -57 311 -59 311 -89 c 0
 311 -111 326 -122 347 -122 c 0
 374 -122 496 -61 496 18 c 0
 496 121 316 96 316 181 c 0
 316 300 610 422 610 518 c 0
 610 597 527 599 472 599 c 0
 343 599 220 498 220 388 c 0
 220 320 263 269 263 265 c 0
 263 252 234 241 213 241 c 0
 169 241 152 341 152 369 c 0
EndSplineSet
Validated: 1
EndChar

StartChar: afii10026
Encoding: 1048 1048 121
Width: 852
GlyphClass: 2
Flags: MW
HStem: 0 44<301.5 309.5> 617 42<237 246.5>
VStem: 223 66<79 104> 297 70<439 532.5> 676 60<18.5 25 18.5 72.5>
LayerCount: 2
Fore
SplineSet
121 615 m 0
 121 638 217 659 257 659 c 0
 336 659 367 622 367 518 c 0
 367 360 289 235 289 90 c 0
 289 68 292 44 311 44 c 1
 522 173 624 396 796 555 c 0
 805 564 811 567 840 567 c 0
 851 567 861 565 861 557 c 0
 861 544 780 459 752 182 c 2
 736 25 l 2
 736 12 712 0 694 0 c 0
 684 0 676 4 676 15 c 0
 676 130 701 297 733 424 c 1
 653 319 574 223 486 135 c 0
 463 112 345 0 274 0 c 0
 248 0 223 17 223 59 c 0
 223 149 297 362 297 497 c 0
 297 568 277 617 216 617 c 0
 172 617 170 603 141 603 c 0
 128 603 121 608 121 615 c 0
EndSplineSet
Validated: 1
EndChar

StartChar: afii10027
Encoding: 1049 1049 122
Width: 981
GlyphClass: 2
Flags: MW
HStem: -10 53<444 453 444 469.5> 0 430<801 929> 140 40<256.5 265.5> 509 47<1140 1210> 569 44<373.5 447.5> 644 50<827.5 920.5>
VStem: 150 66<235 328> 490 72<420 497.5> 679 65<484 539.5 484 541> 777 63<47.5 95 42.5 106.5>
LayerCount: 2
Fore
SplineSet
150 247 m 0x3fc0
 150 409 271 613 454 613 c 0
 534 613 562 567 562 488 c 0
 562 352 474 140 444 43 c 1xbfc0
 462 43 537 87 658 206 c 0
 761 308 853 430 925 430 c 0
 933 430 948 430 948 419 c 0
 948 409 840 135 840 55 c 0
 840 30 860 44 860 33 c 0
 860 21 830 0 815 0 c 0x5fc0
 787 0 777 30 777 65 c 0
 777 148 836 288 867 360 c 1
 769 265 544 -10 395 -10 c 1x9fc0
 395 -10 365 -10 365 0 c 0x5fc0
 365 91 490 287 490 458 c 0
 490 537 467 569 428 569 c 0
 319 569 216 409 216 257 c 0
 216 213 233 180 280 180 c 0
 288 180 291 182 296 182 c 0
 300 182 302 180 302 178 c 0
 302 169 276 140 255 140 c 0
 175 140 150 187 150 247 c 0x3fc0
679 495 m 0
 679 587 760 694 867 694 c 0
 1027 694 1080 556 1200 556 c 0
 1247 556 1248 611 1307 611 c 0
 1314 611 1319 609 1319 606 c 0
 1319 583 1244 509 1176 509 c 0
 1065 509 974 644 867 644 c 0
 788 644 744 576 744 503 c 0
 744 465 755 455 755 433 c 0
 755 418 733 407 715 407 c 0
 686 407 679 469 679 495 c 0
EndSplineSet
Validated: 1
EndChar

StartChar: afii10028
Encoding: 1050 1050 123
Width: 898
GlyphClass: 2
Flags: MW
HStem: 16 44<723 793> 542 46<675 765.5>
VStem: 301 61<538 544.5> 821 70<368 393.5>
LayerCount: 2
Fore
SplineSet
150 42 m 0
 150 44 150 46 151 48 c 0
 191 208 291 368 301 538 c 0
 301 551 329 563 347 563 c 0
 356 563 362 560 362 553 c 0
 362 437 309 307 262 196 c 1
 402 380 575 588 721 588 c 0
 851 588 891 488 891 378 c 0
 891 358 858 348 839 348 c 0
 829 348 821 351 821 358 c 0
 821 429 816 542 715 542 c 0
 635 542 521 429 450 357 c 1
 526 267 660 60 786 60 c 0
 837 60 853 94 892 94 c 0
 904 94 914 92 914 85 c 0
 914 68 819 16 767 16 c 0
 623 16 507 192 402 305 c 1
 334 226 272 146 211 58 c 0
 204 51 174 35 159 35 c 0
 154 35 150 37 150 42 c 0
EndSplineSet
Validated: 1
EndChar

StartChar: afii10029
Encoding: 1051 1051 124
Width: 882
GlyphClass: 2
Flags: MW
HStem: -6 50<225 270 225 299> 380 43<247 285>
VStem: 123 67<172.5 211 172.5 226.5>
LayerCount: 2
Fore
SplineSet
123 166 m 0
 123 287 187 423 292 423 c 0
 300 423 333 422 333 410 c 0
 333 397 295 380 275 380 c 0
 219 380 190 232 190 190 c 0
 190 155 198 44 252 44 c 0
 288 44 339 87 393 148 c 0
 501 269 623 462 668 534 c 1
 673 595 679 671 752 671 c 0
 759 671 764 669 764 666 c 0
 764 650 735 639 735 547 c 0
 735 493 774 40 840 40 c 0
 850 40 853 34 853 30 c 0
 853 17 815 0 800 0 c 0
 733 0 685 292 671 441 c 1
 564 262 368 -6 230 -6 c 0
 150 -6 123 90 123 166 c 0
EndSplineSet
Validated: 1
EndChar

StartChar: afii10030
Encoding: 1052 1052 125
Width: 1237
GlyphClass: 2
Flags: MW
HStem: -51 41<229 299 229 309> -1 21G<1108 1136> 6 53<780 828.5 780 837.5> 290 40<334 397>
VStem: 125 72<66 152.5> 663 64<400.5 507.5> 1087 62<126 237>
LayerCount: 2
Fore
SplineSet
125 71 m 0xbe
 125 234 261 330 407 330 c 0
 424 330 431 325 431 319 c 0
 431 307 407 290 387 290 c 0
 272 290 197 242 197 91 c 0
 197 41 208 -10 250 -10 c 0
 348 -10 663 357 663 437 c 0
 663 578 668 654 721 654 c 0
 733 654 744 650 744 643 c 0
 744 636 727 614 727 540 c 0
 727 261 752 59 808 59 c 0xbe
 849 59 1020 394 1147 560 c 0
 1153 573 1180 585 1198 585 c 0
 1209 585 1217 581 1217 570 c 0
 1196 479 1149 319 1149 191 c 0
 1149 54 1162 44 1162 19 c 0
 1162 9 1143 -1 1129 -1 c 0xde
 1087 -1 1087 56 1087 196 c 0
 1087 278 1109 381 1116 420 c 1
 1033 261 882 6 793 6 c 0
 674 6 680 254 663 330 c 1
 613 209 392 -51 226 -51 c 0
 152 -51 125 8 125 71 c 0xbe
EndSplineSet
Validated: 1
EndChar

StartChar: afii10031
Encoding: 1053 1053 126
Width: 961
GlyphClass: 2
Flags: MW
HStem: -12 21G<316.5 397> 303 44<669 711.5> 344 36<376 419.5> 600 41<404.5 460.5>
VStem: 124 70 274 70<138 207 138 213.5> 804 60<18.5 73>
LayerCount: 2
Fore
SplineSet
124 455 m 0xbe
 153 615 328 641 481 641 c 0
 545 641 634 639 634 625 c 1
 608 541 583 453 554 367 c 1
 604 358 649 347 689 347 c 0
 811 347 883 449 934 585 c 0
 940 601 963 604 985 604 c 0
 997 604 1004 597 1004 588 c 1
 904 427 864 225 864 25 c 0
 864 12 840 0 822 0 c 0
 812 0 804 4 804 15 c 0
 804 131 817 247 846 357 c 1
 805 324 751 303 672 303 c 0xde
 630 303 584 308 537 316 c 1
 479 145 442 -12 352 -12 c 0
 281 -12 274 104 274 155 c 0
 274 272 302 380 435 380 c 0
 454 380 473 378 491 376 c 1
 560 595 l 1
 560 595 481 600 440 600 c 0
 336 600 226 578 194 475 c 0
 188 457 165 445 144 445 c 0
 133 445 124 448 124 455 c 0xbe
344 166 m 0
 344 110 360 44 360 44 c 1
 361 45 423 149 477 333 c 1
 459 338 431 344 408 344 c 0xbe
 344 344 344 248 344 166 c 0
EndSplineSet
Validated: 1
EndChar

StartChar: afii10032
Encoding: 1054 1054 127
Width: 735
GlyphClass: 2
Flags: MW
HStem: -20 46<342.5 427 342.5 457> 557 42<461 535>
VStem: 185 65<197.5 268.5 197.5 285> 653 72<300.5 383>
LayerCount: 2
Fore
SplineSet
185 195 m 0
 185 375 334 599 509 599 c 0
 600 599 725 525 725 356 c 0
 725 191 540 -20 374 -20 c 0
 242 -20 185 95 185 195 c 0
250 238 m 0
 250 157 291 26 394 26 c 0
 460 26 529 72 579 137 c 0
 623 194 653 266 653 335 c 0
 653 431 580 557 490 557 c 0
 432 557 378 514 336 458 c 0
 284 389 250 299 250 238 c 0
EndSplineSet
Validated: 1
EndChar

StartChar: afii10033
Encoding: 1055 1055 128
Width: 995
GlyphClass: 2
Flags: MW
HStem: -20 21G<828.5 858.5> 0 37<365.5 405.5 365.5 454> 448 35<1092 1128 1092 1159> 642 36<383.5 457.5>
VStem: 112 63<425.5 487> 267 62<135 212 135 246.5> 794 63<51 99.5> 1169 71
LayerCount: 2
Fore
SplineSet
112 431 m 0x7f
 112 543 273 678 475 678 c 0
 561 678 752 582 920 525 c 1
 939 582 l 2
 944 596 976 608 995 608 c 0
 1004 608 1011 605 1011 597 c 0
 1011 587 995 551 978 506 c 1
 1027 492 1073 483 1111 483 c 0
 1145 483 1164 492 1169 512 c 0
 1174 531 1208 543 1226 543 c 0
 1234 543 1240 541 1240 536 c 0
 1240 517 1221 448 1097 448 c 0
 1056 448 1009 454 961 464 c 1
 916 346 857 181 857 89 c 0
 857 13 897 30 897 10 c 0
 897 -5 868 -20 849 -20 c 0xbf
 808 -20 794 28 794 67 c 0
 794 132 838 300 904 478 c 1
 847 493 794 510 754 524 c 1
 737 392 559 0 349 0 c 0
 286 0 267 71 267 138 c 0
 267 355 489 469 528 469 c 0
 536 469 541 464 541 457 c 0
 541 450 535 441 518 433 c 0
 409 382 329 272 329 152 c 0
 329 118 343 37 388 37 c 0
 423 37 490 109 541 182 c 0
 634 314 674 460 689 532 c 0
 690 536 696 541 702 545 c 1
 652 569 486 642 429 642 c 0
 338 642 175 537 175 451 c 0
 175 400 237 383 237 373 c 0
 237 360 206 340 187 340 c 0
 172 340 112 375 112 431 c 0x7f
EndSplineSet
Validated: 1
EndChar

StartChar: afii10034
Encoding: 1056 1056 129
Width: 702
GlyphClass: 2
Flags: MW
HStem: -19 21G<259.5 274> 208 39<498.5 551> 568 41<454.5 555.5>
VStem: 104 61<351 362 351 398> 664 69<343.5 452>
LayerCount: 2
Fore
SplineSet
104 346 m 0
 104 450 359 609 550 609 c 0
 665 609 733 519 733 413 c 0
 733 270 618 208 484 208 c 0
 466 208 417 212 377 218 c 1
 358 146 337 74 315 2 c 0
 309 -10 283 -19 265 -19 c 0
 254 -19 245 -16 245 -8 c 0
 305 152 337 315 375 472 c 0
 378 486 411 497 430 497 c 0
 439 497 446 494 446 487 c 0
 446 476 412 351 391 271 c 1
 426 260 475 247 522 247 c 0
 596 247 664 284 664 403 c 0
 664 501 609 568 502 568 c 0
 359 568 183 430 165 362 c 1
 165 340 138 324 118 324 c 0
 104 324 104 335 104 346 c 0
EndSplineSet
Validated: 1
EndChar

StartChar: afii10035
Encoding: 1057 1057 130
Width: 730
GlyphClass: 2
Flags: MW
HStem: -28 48<354 431> 362 40<509 533> 546 48<452 553>
VStem: 190 66<131 233> 606 68<454 490>
LayerCount: 2
Fore
SplineSet
190 164 m 0
 190 302 336 594 552 594 c 0
 614 594 674 556 674 502 c 0
 674 406 570 362 496 362 c 0
 484 362 478 366 478 372 c 0
 478 384 502 402 516 402 c 0
 580 402 606 436 606 472 c 0
 606 508 576 546 530 546 c 0
 374 546 256 319 256 182 c 0
 256 80 316 20 392 20 c 0
 484 20 594 124 676 222 c 0
 680 232 700 240 716 240 c 0
 726 240 734 236 734 228 c 0
 734 224 732 218 726 212 c 0
 646 102 506 -28 356 -28 c 0
 234 -28 190 64 190 164 c 0
EndSplineSet
Validated: 1
EndChar

StartChar: afii10036
Encoding: 1058 1058 131
Width: 657
GlyphClass: 2
Flags: MW
HStem: -6 47 519 29<730.5 783.5> 547 49<329 413.5>
VStem: 106 60<325.5 403> 485 68
LayerCount: 2
Fore
SplineSet
106 322 m 0xb8
 106 484 232 596 418 596 c 0xb8
 450 596 483 593 515 589 c 0
 522 591 529 592 536 592 c 0
 554 592 552 582 566 582 c 0
 624 569 698 548 763 548 c 0
 856 548 845 583 888 583 c 0
 902 583 914 578 914 572 c 0
 914 553 834 519 733 519 c 0xd8
 675 519 614 527 553 534 c 1
 517 363 481 207 417 41 c 1
 446 39 504 39 504 27 c 0
 504 14 473 -6 454 -6 c 2
 356 -6 l 2
 344 -6 337 -1 337 5 c 0
 337 8 340 11 346 14 c 0
 433 167 445 372 485 542 c 1
 456 545 427 547 400 547 c 0
 258 547 166 483 166 332 c 0
 166 319 142 307 124 307 c 0
 114 307 106 311 106 322 c 0xb8
EndSplineSet
Validated: 1
EndChar

StartChar: afii10037
Encoding: 1059 1059 132
Width: 922
GlyphClass: 2
Flags: MW
HStem: -176 42<383.5 524 383.5 524> 590 34<343.5 393>
VStem: 143 66<12.5 76> 481 70
LayerCount: 2
Fore
SplineSet
143 57 m 0
 143 95 181 190 247 190 c 4
 261 190 274 185 274 175 c 4
 274 149 209 146 209 70 c 0
 209 -45 324 -134 443 -134 c 0
 605 -134 713 8 779 143 c 4
 844 276 857 450 889 511 c 5
 766 405 648 292 551 161 c 5
 549 91 530 5 465 5 c 4
 454 5 446 9 446 20 c 4
 446 62 459 102 481 142 c 5
 478 222 464 590 322 590 c 5
 305 588 l 6
 297 588 294 592 294 596 c 4
 294 616 332 624 355 624 c 4
 511 624 538 350 547 234 c 5
 692 400 862 590 959 590 c 4
 967 590 974 588 974 583 c 4
 974 572 970 568 966 560 c 4
 904 445 913 276 837 121 c 4
 764 -29 626 -176 422 -176 c 0
 254 -176 143 -71 143 57 c 0
EndSplineSet
Validated: 1
EndChar

StartChar: afii10038
Encoding: 1060 1060 133
Width: 963
GlyphClass: 2
Flags: MW
HStem: -10 41<703.5 747 703.5 756> 26 41<228.5 282.5> 409 42<773 813> 418 48<364.5 426.5>
VStem: 101 68<136 219.5> 623 58<50 85> 885 66<267.5 340.5>
LayerCount: 2
Fore
SplineSet
101 148 m 0x6e
 101 291 277 466 452 466 c 0
 468 466 502 458 502 437 c 0
 502 423 472 405 450 405 c 0
 434 405 433 418 420 418 c 0
 297 418 169 284 169 161 c 0
 169 111 203 67 254 67 c 0x5e
 337 67 430 213 496 335 c 1
 531 532 613 691 689 691 c 0
 700 691 703 680 703 661 c 0
 703 588 633 498 578 415 c 1
 569 376 563 336 558 296 c 1
 628 386 725 451 821 451 c 0
 889 451 951 422 951 338 c 0
 951 197 836 -10 676 -10 c 0
 638 -10 623 18 623 52 c 0
 623 118 706 183 741 183 c 0
 751 183 758 181 758 177 c 0
 758 156 681 113 681 58 c 0
 681 42 696 31 711 31 c 0xae
 783 31 885 230 885 305 c 0
 885 376 833 409 793 409 c 0
 736 409 657 367 603 300 c 0
 568 256 547 200 540 145 c 0
 531 69 530 -216 440 -216 c 0
 427 -216 417 -212 417 -203 c 0
 417 -200 418 -196 421 -192 c 0
 447 -165 450 -93 471 125 c 1
 471 129 l 2
 474 164 476 205 483 247 c 1
 424 141 344 26 221 26 c 0
 157 26 101 78 101 148 c 0x6e
EndSplineSet
Validated: 1
EndChar

StartChar: afii10039
Encoding: 1061 1061 134
Width: 933
GlyphClass: 2
Flags: MW
HStem: -48 40<296.5 374.5> 352 26 593 41<266 375.5>
VStem: 187 64<78 137>
LayerCount: 2
Fore
SplineSet
114 546 m 0
 114 568 200 634 332 634 c 0
 486 634 603 558 749 326 c 1
 809 399 865 472 916 552 c 0
 923 563 944 571 962 571 c 0
 972 571 980 568 980 561 c 0
 980 548 874 396 776 283 c 1
 813 219 917 39 917 28 c 0
 917 16 892 4 871 4 c 0
 861 4 852 6 846 12 c 0
 808 82 770 156 728 228 c 1
 624 118 451 -48 298 -48 c 0
 255 -48 187 -1 187 80 c 0
 187 194 246 378 385 378 c 0
 398 378 409 376 409 369 c 0
 409 365 407 357 396 352 c 0
 318 318 251 239 251 104 c 0
 251 52 267 -8 326 -8 c 0
 431 -8 627 181 702 271 c 1
 613 426 460 593 291 593 c 0
 185 593 196 538 130 538 c 0
 120 538 114 540 114 546 c 0
EndSplineSet
Validated: 1
EndChar

StartChar: afii10040
Encoding: 1062 1062 135
Width: 1024
GlyphClass: 2
Flags: MW
HStem: -776 39<1190.5 1332.5> -527 43<465.5 498> -266 43<455 486> 19 48<337.5 385 337.5 386> 37 44<779 887.5> 588 45<407 441>
VStem: 100 60<407 462.5 407 472> 244 72<104 192.5> 365 64<-373 -335.5> 477 83<562.5 582> 734 65<120.5 182> 831 70 1510 70<-601.5 -506.5>
LayerCount: 2
Fore
SplineSet
100 402 m 0xf7f8
 100 542 333 633 481 633 c 0
 513 633 560 627 560 604 c 0
 560 521 316 300 316 119 c 0
 316 89 325 67 350 67 c 0xf7f8
 420 67 798 370 831 494 c 0
 836 513 869 525 887 525 c 0
 895 525 901 523 901 518 c 0
 901 473 799 285 799 140 c 0
 799 101 826 81 861 81 c 0
 914 81 951 123 999 123 c 0
 1005 123 1010 121 1010 114 c 0
 1010 89 881 -219 734 -369 c 1
 927 -578 1097 -737 1284 -737 c 0
 1406 -737 1510 -684 1510 -529 c 0
 1510 -484 1538 -481 1559 -481 c 0
 1571 -481 1580 -485 1580 -512 c 0
 1580 -691 1415 -776 1250 -776 c 0
 1038 -776 841 -580 686 -418 c 1
 615 -483 537 -527 459 -527 c 0
 391 -527 365 -452 365 -371 c 0
 365 -300 404 -223 490 -223 c 0
 555 -223 620 -266 689 -327 c 1
 768 -230 855 -95 926 63 c 1
 889 50 843 37 807 37 c 0xeff8
 751 37 734 71 734 143 c 0
 734 221 762 301 790 376 c 1
 652 213 456 19 316 19 c 0
 261 19 244 52 244 104 c 0
 244 281 477 514 477 576 c 0
 477 588 447 588 435 588 c 0
 338 588 160 511 160 414 c 0
 160 400 130 386 112 386 c 0
 105 386 100 388 100 402 c 0xf7f8
429 -356 m 0
 429 -390 440 -484 491 -484 c 0
 525 -484 580 -446 644 -378 c 1
 574 -313 512 -266 460 -266 c 0
 450 -266 429 -311 429 -356 c 0
EndSplineSet
Validated: 1
EndChar

StartChar: afii10041
Encoding: 1063 1063 136
Width: 713
GlyphClass: 2
Flags: MW
HStem: -14 21G<512.5 534.5> 249 49<423 445.5> 590 48<288 316>
VStem: 97 58<391 436 391 443> 341 64<437 440.5> 494 67<39.5 57.5>
LayerCount: 2
Fore
SplineSet
97 388 m 0
 97 498 243 638 333 638 c 0
 380 638 405 600 405 510 c 0
 405 364 406 298 440 298 c 0
 472 298 526 418 754 578 c 0
 760 582 778 588 793 588 c 0
 803 588 811 586 811 580 c 0
 811 577 809 573 804 568 c 0
 706 456 561 163 561 51 c 0
 561 28 578 17 578 13 c 0
 578 2 545 -14 524 -14 c 0
 501 -14 494 14 494 29 c 0
 494 86 523 233 691 487 c 1
 576 384 487 249 404 249 c 0
 351 249 341 300 341 420 c 0
 341 461 341 590 291 590 c 0
 226 590 155 472 155 400 c 0
 155 382 185 392 185 379 c 0
 185 367 161 350 131 350 c 0
 115 350 97 351 97 388 c 0
EndSplineSet
Validated: 1
EndChar

StartChar: afii10042
Encoding: 1064 1064 137
Width: 1260
GlyphClass: 2
Flags: MW
HStem: -151 44<985.5 1032> -116 41<723 796 723 807.5> -6 21G<403.5 502> 21 39<823.5 841 823.5 866> 594 46<363 422>
VStem: 110 67<291.5 375> 470 71<407 502.5> 758 64<64.5 67 64.5 127> 1095 63<131.5 174 131.5 179.5>
LayerCount: 2
Fore
SplineSet
110 309 m 0x3f80
 110 441 292 640 434 640 c 0
 522 640 541 557 541 486 c 0
 541 328 478 192 464 39 c 1
 609 122 777 583 914 583 c 0
 924 583 932 579 932 567 c 2
 822 67 l 2
 822 62 823 60 824 60 c 0
 858 60 1084 479 1195 479 c 0
 1204 479 1222 473 1222 467 c 2
 1222 467 1158 205 1158 143 c 0
 1158 120 1170 125 1170 115 c 0
 1170 100 1141 85 1122 85 c 0
 1100 85 1095 111 1095 132 c 0
 1095 227 1135 316 1148 403 c 1
 1028 287 931 21 801 21 c 0
 784 21 758 21 758 60 c 0
 758 194 842 342 859 501 c 1
 740 355 596 -6 408 -6 c 0
 399 -6 392 -3 392 7 c 0
 392 110 470 329 470 458 c 0
 470 547 445 594 399 594 c 0
 312 594 177 433 177 327 c 0
 177 249 240 256 240 238 c 0
 240 225 209 205 190 205 c 0
 135 205 110 274 110 309 c 0x3f80
589 -172 m 0
 589 -109 696 -75 750 -75 c 0x7f80
 842 -75 938 -107 1033 -107 c 0
 1111 -107 1141 -79 1165 -79 c 0
 1178 -79 1185 -91 1185 -99 c 0
 1185 -137 1057 -151 1007 -151 c 0xbf80
 934 -151 857 -116 758 -116 c 0x7f80
 642 -116 674 -182 605 -182 c 0
 596 -182 589 -179 589 -172 c 0
EndSplineSet
Validated: 1
EndChar

StartChar: afii10043
Encoding: 1065 1065 138
Width: 1346
GlyphClass: 2
Flags: MW
HStem: -618 42<1623.5 1763> -521 45<652 712> -212 33<815.5 877> 58 48<772 787 772 819> 144 33<1257 1287 1226.5 1294.5> 596 41<332 403>
VStem: 138 67<326.5 415.5 320.5 427> 464 61<422.5 501.5> 526 62<-412 -343.5 -412 -327.5> 701 59<146.5 212> 1033 67<154.5 219> 1889 69<-509 -455.5>
LayerCount: 2
Fore
SplineSet
138 361 m 0
 138 493 254 637 400 637 c 0
 499 637 525 563 525 491 c 0
 525 354 467 248 409 139 c 1
 569 297 747 540 808 540 c 0
 824 540 824 516 824 497 c 0
 824 382 760 278 760 165 c 0
 760 128 770 106 774 106 c 0
 800 106 850 151 897 214 c 0
 988 335 1094 513 1168 513 c 0
 1176 513 1182 510 1182 504 c 0
 1182 484 1100 299 1100 195 c 0
 1100 98 1156 76 1156 69 c 0
 1156 58 1123 42 1102 42 c 0
 1050 42 1033 136 1033 173 c 0
 1033 265 1088 390 1088 408 c 1
 984 272 884 58 754 58 c 0
 715 58 701 99 701 156 c 0
 701 268 749 414 749 445 c 1
 558 242 392 24 320 24 c 0
 310 24 301 28 301 37 c 0
 301 75 464 292 464 464 c 0
 464 539 427 596 379 596 c 0
 285 596 205 468 205 363 c 0
 205 278 243 242 243 229 c 0
 243 215 215 197 196 197 c 0
 171 197 138 292 138 361 c 0
526 -398 m 0
 526 -257 756 -179 875 -179 c 0
 928 -179 978 -189 1028 -206 c 1
 1175 -25 1174 177 1279 177 c 0
 1295 177 1309 170 1309 161 c 0
 1309 152 1297 144 1292 144 c 0
 1222 144 1248 -15 1078 -227 c 1
 1229 -285 1535 -576 1712 -576 c 0
 1840 -576 1889 -561 1889 -475 c 0
 1889 -436 1882 -427 1882 -416 c 0
 1882 -396 1907 -381 1928 -381 c 0
 1955 -381 1958 -428 1958 -449 c 0
 1958 -569 1821 -618 1705 -618 c 0
 1457 -618 1254 -373 1047 -264 c 1
 938 -391 781 -521 643 -521 c 0
 581 -521 526 -490 526 -398 c 0
588 -393 m 0
 588 -431 626 -476 678 -476 c 0
 778 -476 900 -368 1000 -242 c 1
 952 -222 901 -212 853 -212 c 0
 731 -212 588 -294 588 -393 c 0
EndSplineSet
Validated: 1
EndChar

StartChar: afii10044
Encoding: 1066 1066 139
Width: 834
GlyphClass: 2
Flags: MW
HStem: 0 50<649 684 649 694.5> 548 39<606.5 724> 591 39<288 380.5>
VStem: 29 67<363 435> 539 72<127 203.5> 734 65<191 249.5 170 276.5>
LayerCount: 2
Fore
SplineSet
29 359 m 0
 29 511 207 630 369 630 c 0
 418 630 652 587 724 587 c 1
 737 600 748 608 761 608 c 0
 769 608 800 608 800 599 c 0
 800 578 611 401 611 148 c 0
 611 106 635 50 663 50 c 0
 705 50 734 163 734 219 c 0
 734 334 664 343 664 359 c 0
 664 374 698 390 714 390 c 0
 773 390 799 275 799 224 c 0
 799 116 741 0 648 0 c 0
 567 0 539 60 539 126 c 0
 539 281 651 517 684 548 c 1
 529 548 439 591 322 591 c 0
 229 591 96 508 96 382 c 0
 96 344 128 352 128 337 c 0
 128 322 94 306 72 306 c 0
 41 306 29 337 29 359 c 0
EndSplineSet
Validated: 1
EndChar

StartChar: afii10045
Encoding: 1067 1067 140
Width: 792
GlyphClass: 2
Flags: MW
HStem: -98 45<675 681.5> 0 38<279.5 331.5 279.5 341> 327 43<363.5 453.5>
VStem: 191 66<103 164> 306 71<463.5 500> 399 70<185 196.5> 572 67<17 91.5 17 103.5>
LayerCount: 2
Fore
SplineSet
191 119 m 0
 191 209 306 427 306 500 c 1
 298 551 l 2
 298 566 333 584 354 584 c 0
 375 584 377 541 377 521 c 0
 377 377 257 254 257 123 c 0
 257 83 263 38 296 38 c 0
 367 38 399 136 399 187 c 0
 399 206 399 328 390 328 c 2
 369 327 l 2
 358 327 354 331 354 337 c 0
 354 359 383 370 405 370 c 0
 502 370 623 430 696 497 c 1
 715 565 751 653 811 653 c 0
 821 653 829 649 829 637 c 0
 829 580 793 529 750 487 c 1
 689 337 639 146 639 37 c 0
 639 -3 661 -53 689 -53 c 0
 723 -53 732 -9 768 -9 c 0
 779 -9 787 -12 787 -19 c 0
 787 -28 705 -98 658 -98 c 0
 612 -98 572 -43 572 36 c 0
 572 171 620 302 668 424 c 1
 601 384 524 355 455 339 c 1
 467 316 469 281 469 247 c 0
 469 123 412 0 270 0 c 0
 211 0 191 59 191 119 c 0
EndSplineSet
Validated: 1
EndChar

StartChar: afii10046
Encoding: 1068 1068 141
Width: 486
GlyphClass: 2
Flags: MW
HStem: -2 41<251.5 289.5 251.5 307> 324 42<379 390>
VStem: 155 71<117.5 203> 412 72<247.5 273.5>
LayerCount: 2
Fore
SplineSet
155 117 m 0
 155 289 242 548 260 589 c 0
 266 603 295 613 313 613 c 0
 321 613 330 607 330 589 c 0
 330 563 226 308 226 142 c 0
 226 93 235 39 268 39 c 0
 311 39 412 165 412 254 c 0
 412 293 402 324 378 324 c 0
 329 324 309 270 271 270 c 0
 262 270 256 273 256 279 c 0
 256 300 339 366 419 366 c 0
 456 366 484 348 484 299 c 0
 484 196 374 -2 240 -2 c 0
 175 -2 155 50 155 117 c 0
EndSplineSet
Validated: 1
EndChar

StartChar: afii10047
Encoding: 1069 1069 142
Width: 684
GlyphClass: 2
Flags: MW
HStem: -18 37<320.5 382> 282 43<415 468.5> 595 46<273 377.5>
VStem: 108 61<494 546.5> 570 61 582 64<347.5 418.5>
LayerCount: 2
Fore
SplineSet
108 503 m 0xf4
 108 590 230 641 316 641 c 0
 471 641 646 537 646 355 c 0xf4
 646 340 644 324 642 308 c 1
 686 301 721 294 721 292 c 0
 721 281 683 258 668 258 c 0
 662 258 643 262 631 263 c 1
 589 123 457 -18 307 -18 c 0
 250 -18 228 25 228 40 c 0
 228 53 257 64 278 64 c 0
 307 64 299 19 342 19 c 0
 423 19 514 101 570 272 c 1xf8
 521 278 481 282 456 282 c 0
 342 282 363 236 315 236 c 0
 302 236 291 240 291 248 c 0
 291 262 349 325 481 325 c 0
 507 325 543 322 579 317 c 1
 581 327 582 337 582 345 c 0
 582 492 452 595 303 595 c 0
 239 595 169 583 169 535 c 0
 169 453 287 387 287 378 c 0
 287 368 258 354 239 354 c 0
 180 354 108 458 108 503 c 0xf4
EndSplineSet
Validated: 1
EndChar

StartChar: afii10048
Encoding: 1070 1070 143
Width: 1018
GlyphClass: 2
Flags: MW
HStem: -12 21G<191.5 248.5> -1 37<664 767 664 793.5> 460 42 538 42 566 36<737.5 798.5>
VStem: -35 71<285 366 285 385.5> 158 73<110.5 155.5 110.5 161> 532 65<161 218> 909 73<291.5 369>
LayerCount: 2
Fore
SplineSet
-35 271 m 0xb780
 -35 500 274 577 438 580 c 0xb780
 446 580 461 580 461 569 c 0
 461 560 431 499 412 397 c 1
 561 470 690 502 709 502 c 0
 717 502 720 498 720 493 c 0
 720 483 706 463 688 460 c 0
 618 447 597 261 597 200 c 0
 597 122 619 36 709 36 c 0
 825 36 909 227 909 308 c 0
 909 430 851 566 746 566 c 0
 705 566 693 547 671 547 c 0
 655 547 641 554 641 563 c 0
 641 586 722 602 753 602 c 0
 878 602 982 490 982 355 c 0
 982 228 887 -1 700 -1 c 0x6f80
 584 -1 532 90 532 194 c 0
 532 242 542 359 597 435 c 1
 534 415 465 386 403 349 c 1
 374 125 285 -12 212 -12 c 0
 171 -12 158 82 158 110 c 0
 158 212 239 296 344 360 c 1
 355 422 367 484 389 538 c 1
 223 538 36 437 36 295 c 0
 36 275 45 259 68 250 c 0
 74 248 76 245 76 242 c 0
 76 229 32 210 8 210 c 1
 -23 223 -35 245 -35 271 c 0xb780
231 120 m 0
 231 101 234 81 241 60 c 1
 296 125 317 212 334 301 c 1
 273 251 231 191 231 120 c 0
EndSplineSet
Validated: 1
EndChar

StartChar: afii10049
Encoding: 1071 1071 144
Width: 781
GlyphClass: 2
Flags: MW
HStem: -73 41<251 271> 196 35 590 38<299.5 400>
VStem: 123 67<437 520> 537 66<333 394.5> 617 62<57 97>
LayerCount: 2
Fore
SplineSet
123 469 m 0
 123 571 246 628 347 628 c 0
 502 628 603 495 603 354 c 0
 603 312 595 270 581 231 c 1
 647 242 665 303 703 303 c 0
 711 303 718 300 718 293 c 0
 718 271 679 146 679 76 c 0
 679 34 704 50 704 35 c 0
 704 22 671 10 656 10 c 0
 627 10 617 38 617 76 c 0
 617 118 628 174 639 216 c 1
 616 203 592 195 565 193 c 1
 475 14 305 -73 237 -73 c 0
 208 -73 176 -54 176 3 c 0
 176 19 199 28 217 28 c 0
 253 28 237 -32 265 -32 c 0
 331 -32 480 114 506 196 c 1
 362 213 123 309 123 469 c 0
190 491 m 0
 190 383 381 249 519 231 c 1
 531 266 537 302 537 338 c 0
 537 451 468 590 332 590 c 0
 267 590 190 559 190 491 c 0
EndSplineSet
Validated: 1
EndChar

StartChar: afii10065
Encoding: 1072 1072 145
Width: 528
GlyphClass: 2
Flags: MW
HStem: 0 21G<402.5 437> 336 50<211 260.5>
VStem: 38 72<76 109 76 137> 363 67<76.5 147>
LayerCount: 2
Fore
SplineSet
38 78 m 0
 38 196 158 386 264 386 c 0
 296 386 326 370 350 330 c 1
 378 360 427 410 456 410 c 0
 458 410 476 393 476 390 c 0
 470 356 430 208 430 116 c 0
 430 37 480 35 480 35 c 1
 480 23 448 0 426 0 c 0
 379 0 363 52 363 99 c 0
 363 195 387 269 397 309 c 1
 396 312 l 1
 297 209 142 20 66 20 c 0
 47 20 38 44 38 78 c 0
110 76 m 1
 310 286 l 1
 296 310 279 336 242 336 c 0
 172 336 110 142 110 76 c 1
EndSplineSet
Validated: 1
EndChar

StartChar: afii10066
Encoding: 1073 1073 146
Width: 352
GlyphClass: 2
Flags: MW
HStem: -14 46<175.5 203 175.5 205> 507 46<688 804.5> 687 38<319.5 426>
VStem: 80 71<150.5 235.5> 253 69<168 228.5 152 259> 871 70<662 703.5>
LayerCount: 2
Fore
SplineSet
80 130 m 0
 80 341 180 725 387 725 c 0
 530 725 617 553 759 553 c 0
 857 553 871 625 871 697 c 0
 871 710 899 722 920 722 c 0
 932 722 941 718 941 707 c 0
 941 617 858 507 751 507 c 0
 538 507 496 687 356 687 c 0
 283 687 151 409 151 210 c 0
 151 91 163 32 188 32 c 0
 218 32 253 128 253 208 c 0
 253 310 200 324 200 339 c 0
 200 352 224 366 244 366 c 0
 300 366 322 254 322 203 c 0
 322 101 255 -14 155 -14 c 0
 99 -14 80 49 80 130 c 0
EndSplineSet
Validated: 1
EndChar

StartChar: afii10067
Encoding: 1074 1074 147
Width: 376
GlyphClass: 2
Flags: MW
HStem: -20 43<158 186 158 190> 593 44<313.5 367.5>
VStem: 66 61<96 155.5 96 238> 228 57<121.5 161> 405 70<497.5 543>
LayerCount: 2
Fore
SplineSet
66 115 m 0
 66 361 210 637 371 637 c 0
 412 637 475 617 475 531 c 0
 475 456 440 360 266 280 c 1
 278 250 285 211 285 170 c 0
 285 73 235 -20 145 -20 c 0
 89 -20 66 35 66 115 c 0
127 132 m 0
 127 60 149 23 167 23 c 0
 205 23 228 79 228 138 c 0
 228 184 218 233 204 256 c 1
 140 239 l 1
 140 239 127 179 127 132 c 0
146 267 m 1
 146 267 172 276 186 280 c 1
 176 294 l 1
 176 308 208 322 226 322 c 0
 242 322 247 308 250 304 c 1
 353 342 405 481 405 514 c 0
 405 572 382 593 353 593 c 0
 274 593 188 449 146 267 c 1
EndSplineSet
Validated: 1
Substitution2: "Single Substitution lookup 5 subtable" afii10067.alt
EndChar

StartChar: afii10068
Encoding: 1075 1075 148
Width: 373
GlyphClass: 2
Flags: MW
HStem: -11 47<202.5 233.5 202.5 243.5> 395 39<223 244>
VStem: 114 71<58 86.5> 254 72<334.5 381.5>
LayerCount: 2
Fore
SplineSet
37 308 m 0
 37 313 143 434 263 434 c 0
 290 434 326 419 326 381 c 0
 326 288 185 181 185 71 c 0
 185 45 195 36 210 36 c 0
 257 36 320 94 341 119 c 0
 346 124 365 129 380 129 c 0
 390 129 398 127 398 121 c 0
 398 112 299 -11 188 -11 c 0
 157 -11 114 6 114 42 c 0
 114 131 254 291 254 376 c 0
 254 387 250 395 238 395 c 0
 208 395 140 350 104 310 c 0
 96 302 71 300 55 300 c 0
 44 300 37 302 37 308 c 0
EndSplineSet
Validated: 1
EndChar

StartChar: afii10069
Encoding: 1076 1076 149
Width: 348
GlyphClass: 2
Flags: MW
HStem: -15 51<131.5 160 131.5 175> 363 47 795 36<-132 -72>
VStem: 50 66<91 140> 261 60<304 358.5>
LayerCount: 2
Fore
SplineSet
-290 716 m 0
 -290 737 -222 831 -82 831 c 0
 -18 831 49 814 101 781 c 0
 253 685 321 526 321 362 c 0
 321 207 229 -15 121 -15 c 0
 85 -15 50 26 50 81 c 0
 50 199 121 405 256 410 c 1
 240 520 189 631 101 701 c 0
 50 742 -35 795 -109 795 c 0
 -155 795 -196 775 -219 721 c 0
 -224 710 -248 702 -266 702 c 0
 -279 702 -290 706 -290 716 c 0
116 109 m 0
 116 73 124 36 139 36 c 0
 181 36 261 250 261 358 c 0
 261 359 256 363 246 363 c 0
 174 363 116 209 116 109 c 0
EndSplineSet
Validated: 1
EndChar

StartChar: afii10070
Encoding: 1077 1077 150
Width: 334
GlyphClass: 2
Flags: MW
HStem: 0 45<141 178> 368 41<209 232>
VStem: 28 67<93 134 93 169> 261 61<321.5 345.5>
LayerCount: 2
Fore
SplineSet
28 99 m 0
 28 239 142 409 253 409 c 0
 289 409 322 389 322 353 c 0
 322 273 190 224 111 206 c 1
 100 176 95 146 95 122 c 0
 95 64 128 45 154 45 c 0
 241 45 270 126 317 126 c 0
 324 126 331 121 331 115 c 0
 331 101 229 0 127 0 c 0
 83 0 28 27 28 99 c 0
128 251 m 1
 180 269 261 305 261 338 c 0
 261 353 241 368 223 368 c 0
 195 368 156 313 128 251 c 1
EndSplineSet
Validated: 1
Substitution2: "Single Substitution lookup 5 subtable" e.alt
EndChar

StartChar: afii10072
Encoding: 1078 1078 151
Width: 846
GlyphClass: 2
Flags: MW
HStem: -21 21G 0 42<753.5 827.5> 349 47<185.5 215.5> 362 45<722 750>
VStem: 34 66<203 209.5 200 251.5> 249 64<282 292.5>
LayerCount: 2
Fore
SplineSet
34 210 m 0xac
 34 293 145 396 226 396 c 0xac
 278 396 313 343 313 287 c 0
 313 277 312 267 311 257 c 1
 359 285 407 314 436 354 c 0
 450 374 462 391 491 391 c 0
 502 391 510 387 510 378 c 0
 510 366 495 355 479 339 c 1
 441 271 421 187 406 109 c 1
 494 208 674 407 770 407 c 0
 792 407 830 389 830 347 c 0
 830 334 807 319 789 319 c 0
 763 319 764 362 736 362 c 0
 686 362 601 265 567 223 c 1
 631 186 697 42 810 42 c 0x5c
 869 42 861 93 911 93 c 0
 928 93 933 91 933 88 c 0
 933 81 874 0 781 0 c 0
 667 0 593 142 529 182 c 1
 414 68 403 -21 334 -21 c 0
 325 -21 319 -18 319 -8 c 0
 319 3 344 182 392 276 c 1
 304 223 l 1
 278 137 194 -21 85 -21 c 0
 76 -21 69 -18 69 2 c 0
 69 110 152 167 242 219 c 1
 247 237 249 255 249 272 c 0
 249 313 231 349 200 349 c 0
 167 349 97 283 97 228 c 0
 97 216 100 212 100 207 c 0
 100 193 72 175 53 175 c 0
 35 175 34 196 34 210 c 0xac
130 33 m 1
 167 61 209 121 228 172 c 1
 182 136 138 86 130 33 c 1
EndSplineSet
Validated: 1
EndChar

StartChar: afii10073
Encoding: 1079 1079 152
Width: 379
GlyphClass: 2
Flags: MW
HStem: -459 42<28 100.5> 355 46<167 215.5>
VStem: -125 64<-336.5 -265 -336.5 -255> 51 68<281.5 321> 127 68<73 175> 251 70<-279 -136>
LayerCount: 2
Fore
SplineSet
-125 -315 m 0
 -125 -195 47 -117 83 -117 c 0
 97 -117 105 -123 105 -131 c 0
 105 -139 97 -152 79 -159 c 0
 14 -185 -61 -229 -61 -301 c 0
 -61 -372 -1 -417 57 -417 c 0
 173 -417 251 -331 251 -227 c 0
 251 -45 127 0 127 123 c 0
 127 227 271 279 339 334 c 1
 275 342 248 355 183 355 c 0
 151 355 119 349 119 321 c 0
 119 242 157 256 157 239 c 0
 157 225 127 209 109 209 c 0
 70 209 51 262 51 283 c 0
 51 359 126 401 195 401 c 0
 267 401 345 371 409 371 c 0
 421 371 429 367 429 359 c 0
 429 355 427 349 419 341 c 0
 359 285 195 231 195 129 c 0
 195 17 321 -44 321 -219 c 0
 321 -366 176 -459 25 -459 c 0
 -61 -459 -125 -396 -125 -315 c 0
EndSplineSet
Validated: 1
EndChar

StartChar: afii10074
Encoding: 1080 1080 153
Width: 512
GlyphClass: 2
Flags: MW
HStem: -17 50<368 445.5> 60 70<121.5 138.5>
VStem: 39 71<160.5 169> 92 61 346 70<64 112>
LayerCount: 2
Fore
SplineSet
39 130 m 0xe8
 39 208 80 326 92 356 c 0
 100 375 121 386 139 386 c 0
 147 386 153 384 153 380 c 0xd8
 153 366 110 259 110 178 c 0
 110 143 116 130 127 130 c 0
 182 130 287 308 432 386 c 0
 434 387 451 388 464 388 c 0
 474 388 483 386 483 380 c 0
 483 365 416 196 416 74 c 0
 416 54 420 33 441 33 c 0
 450 33 456 38 462 38 c 0
 470 38 475 33 475 29 c 0
 475 9 398 -17 387 -17 c 0
 349 -17 346 38 346 71 c 0
 346 153 370 234 393 305 c 1
 312 241 194 60 83 60 c 0
 50 60 39 89 39 130 c 0xe8
EndSplineSet
Validated: 1
EndChar

StartChar: afii10075
Encoding: 1081 1081 154
Width: 498
GlyphClass: 2
Flags: MW
HStem: -13 52 39 50<113.5 126.5> 531 36<802.5 907 802.5 908> 651 44<401 491>
VStem: 45 66<109 147> 225 70<539 582> 337 74 991 70<627.5 671>
LayerCount: 2
Fore
SplineSet
45 111 m 0xbf
 45 183 80 284 91 315 c 0
 98 335 128 345 147 345 c 0
 155 345 161 343 161 339 c 0
 131 265 111 195 111 115 c 0
 111 103 111 89 116 89 c 0x7f
 170 89 361 349 453 349 c 0
 463 349 473 345 473 339 c 0
 441 265 421 195 411 33 c 1
 418 33 425 39 441 39 c 0
 451 39 459 37 459 33 c 0
 459 22 410 -13 377 -13 c 0
 340 -13 337 39 337 71 c 0
 337 129 357 195 377 255 c 1
 303 193 162 39 91 39 c 0
 57 39 45 69 45 111 c 0xbf
225 535 m 0
 225 629 351 695 451 695 c 0
 629 695 726 567 879 567 c 0
 935 567 991 590 991 665 c 0
 991 677 1019 691 1039 691 c 0
 1051 691 1061 687 1061 675 c 0
 1061 574 957 531 859 531 c 0
 696 531 553 651 429 651 c 0
 359 651 295 615 295 551 c 0
 295 527 303 499 321 475 c 0
 323 473 325 469 325 467 c 0
 325 455 297 443 275 443 c 0
 239 443 225 519 225 535 c 0
EndSplineSet
Validated: 1
EndChar

StartChar: afii10076
Encoding: 1082 1082 155
Width: 491
GlyphClass: 2
Flags: HMW
HStem: -145 52<504.5 579> 387 40<421.5 426.5>
VStem: 433 68<368 378.5>
LayerCount: 2
Fore
SplineSet
20 27 m 0
 50 152 168 746 245 746 c 0
 256.307692308 746 258.917159763 730.343195266 258.917159763 714.329540282 c 0
 258.917159763 700.603550296 257 686.615384615 257 682 c 0
 257 670 216 564 207 527 c 1
 187 469 118 220 108 158 c 1
 205 272 336 427 459 427 c 0
 488 427 501 411 501 390 c 0
 501 346 478 303 423 303 c 0
 414 303 407 304 407 308 c 0
 407 315 433 346 433 375 c 0
 433 382 430 387 423 387 c 0
 420 387 355 357 244 241 c 1
 292 177 451 -93 558 -93 c 0
 612 -93 600 -44 656 -44 c 0
 666 -44 674 -47 674 -54 c 0
 674 -68 613 -145 545 -145 c 0
 414 -145 283 80 196 187 c 1
 111 96 91 18 34 18 c 0
 26 18 19 21 20 27 c 0
EndSplineSet
Validated: 1
EndChar

StartChar: afii10077
Encoding: 1083 1083 156
Width: 547
GlyphClass: 2
Flags: MW
HStem: -2 43<85.5 117 85.5 132>
VStem: 5 67<81 100.5> 387 68<310 312>
LayerCount: 2
Fore
SplineSet
5 71 m 0
 5 130 42 223 107 223 c 0
 117 223 122 217 122 210 c 0
 122 180 72 209 72 96 c 0
 72 66 78 41 93 41 c 0
 141 41 359 337 397 437 c 0
 402 450 433 462 452 462 c 0
 461 462 468 459 468 452 c 0
 468 442 455 410 455 354 c 0
 455 266 484 37 507 37 c 0
 512 37 517 39 521 39 c 0
 533 39 537 34 537 28 c 0
 537 18 519 -4 498 -4 c 0
 413 -4 387 178 387 312 c 1
 295 211 202 -2 62 -2 c 0
 22 -2 5 16 5 71 c 0
EndSplineSet
Validated: 1
EndChar

StartChar: afii10078
Encoding: 1084 1084 157
Width: 801
GlyphClass: 2
Flags: MW
HStem: -30 47<85.5 123 85.5 126.5> 195 40<102 127.5>
VStem: -5 66<66.5 110 66.5 112.5> 334 68<119.5 148.5> 649 69<149 202>
LayerCount: 2
Fore
SplineSet
-5 61 m 0
 -5 164 56 235 148 235 c 0
 156 235 165 232 165 226 c 0
 165 217 137 195 118 195 c 0
 83 195 61 135 61 85 c 0
 61 48 74 17 97 17 c 0
 149 17 323 262 375 390 c 0
 392 432 388 454 435 454 c 0
 452 454 458 446 458 435 c 1
 428 375 402 252 402 128 c 0
 402 111 407 64 420 64 c 0
 469 64 622 378 706 378 c 0
 713 378 718 375 718 365 c 2
 718 125 l 2
 718 86 751 96 751 82 c 0
 751 65 707 46 697 46 c 0
 659 46 649 113 649 185 c 0
 649 219 651 255 653 284 c 1
 579 174 502 15 400 15 c 0
 351 15 334 64 334 133 c 0
 334 164 337 198 342 232 c 1
 272 103 186 -30 67 -30 c 0
 22 -30 -5 2 -5 61 c 0
EndSplineSet
Validated: 1
EndChar

StartChar: afii10079
Encoding: 1085 1085 158
Width: 515
GlyphClass: 2
Flags: MW
HStem: -13 21G<60 73> 2 40<378.5 451.5> 221 34 221 41
VStem: 41 65<5.5 95.5> 99 87<327 377.5> 331 74<108 139>
LayerCount: 2
Fore
SplineSet
41 67 m 0x9a
 41 124 55 186 103 228 c 1
 108 259 113 290 115 322 c 1
 106 322 99 324 99 330 c 0
 99 346 125 387 167 387 c 0
 178 387 186 383 186 372 c 0
 186 333 180 294 172 255 c 1xa6
 247 261 300 262 353 262 c 1
 383 365 423 442 466 442 c 0
 478 442 489 438 489 430 c 0
 489 425 485 420 476 412 c 0
 447 387 405 234 405 133 c 0
 405 83 416 42 446 42 c 0
 457 42 461 39 461 35 c 0
 461 24 428 2 406 2 c 0x56
 351 2 331 57 331 122 c 0
 331 156 336 195 345 233 c 1
 313 221 253 221 229 221 c 0
 205 221 182 219 163 214 c 1
 146 146 123 79 106 12 c 0
 106 -1 82 -13 64 -13 c 0
 56 -13 41 13 41 67 c 0x9a
EndSplineSet
Validated: 1
EndChar

StartChar: afii10080
Encoding: 1086 1086 159
Width: 359
GlyphClass: 2
Flags: MW
HStem: 0 42<136.5 177.5 136.5 181> 326 36<183 201>
VStem: 42 67<115 168.5> 268 67<221 307>
LayerCount: 2
Fore
SplineSet
42 115 m 0
 42 222 121 362 197 362 c 0
 217 362 233 355 233 348 c 0
 233 339 209 326 193 326 c 0
 173 326 109 241 109 134 c 0
 109 96 122 42 151 42 c 0
 204 42 268 180 268 262 c 0
 268 352 224 383 224 392 c 0
 224 401 252 420 271 420 c 0
 316 420 335 328 335 287 c 0
 335 154 230 0 132 0 c 0
 67 0 42 58 42 115 c 0
EndSplineSet
Validated: 1
Substitution2: "Single Substitution lookup 5 subtable" o.alt
EndChar

StartChar: afii10081
Encoding: 1087 1087 160
Width: 492
GlyphClass: 2
Flags: MW
HStem: 0 38<392.5 439.5> 346 50<361 362>
VStem: 117 62<334.5 354.5> 357 61<119 186.5> 366 63<327 340.5>
LayerCount: 2
Fore
SplineSet
37 27 m 0xe8
 37 43 117 246 117 346 c 0
 117 363 107 376 107 385 c 0
 107 394 135 409 154 409 c 0
 174 409 179 381 179 360 c 0
 179 309 146 234 146 203 c 1
 195 272 324 396 398 396 c 0
 428 396 429 354 429 328 c 0xe8
 429 293 418 253 418 140 c 0
 418 98 426 38 437 38 c 0
 442 38 449 40 453 40 c 0
 466 40 473 35 473 28 c 0
 473 11 428 0 414 0 c 0
 371 0 357 52 357 130 c 0xf0
 357 243 366 316 366 338 c 0
 366 343 364 346 360 346 c 0
 300 346 150 126 98 42 c 0
 91 31 74 17 52 17 c 0
 43 17 37 20 37 27 c 0xe8
EndSplineSet
Validated: 1
EndChar

StartChar: afii10082
Encoding: 1088 1088 161
Width: 523
GlyphClass: 2
Flags: MW
HStem: -441 21G<-23 -8> 11 40<269.5 324.5 269.5 335.5> 349 40<422 427>
VStem: -37 69 103 69<283 334> 432 70<274 319>
LayerCount: 2
Fore
SplineSet
-37 -431 m 0
 -37 -392 103 119 103 299 c 0
 103 369 93 373 72 379 c 1
 72 389 112 409 122 409 c 0
 159 409 172 359 172 319 c 0
 172 247 158 168 156 158 c 1
 228 276 338 389 442 389 c 0
 498 389 502 339 502 309 c 0
 502 219 406 11 265 11 c 0
 240 11 184 32 184 65 c 0
 184 78 207 91 225 91 c 0
 245 91 254 51 285 51 c 0
 364 51 432 239 432 309 c 0
 432 329 432 349 422 349 c 0
 350 323 255 231 191 135 c 0
 170 103 133 41 121 -15 c 0
 93 -147 65 -279 32 -411 c 0
 29 -423 2 -441 -18 -441 c 0
 -28 -441 -37 -441 -37 -431 c 0
EndSplineSet
Validated: 1
EndChar

StartChar: afii10083
Encoding: 1089 1089 162
Width: 356
GlyphClass: 2
Flags: MW
HStem: 2 43<154.5 195> 365 44<233 275>
VStem: 38 76<113.5 167>
LayerCount: 2
Fore
SplineSet
38 109 m 0
 38 225 164 409 302 409 c 0
 327 409 348 400 356 373 c 1
 356 351 319 335 299 335 c 0
 279 335 286 365 264 365 c 0
 193 365 114 224 114 142 c 0
 114 85 126 45 183 45 c 0
 238 45 280 132 302 132 c 0
 312 132 320 129 320 122 c 0
 320 94 239 2 151 2 c 0
 71 2 38 42 38 109 c 0
EndSplineSet
Validated: 1
EndChar

StartChar: afii10084
Encoding: 1090 1090 163
Width: 433
GlyphClass: 2
Flags: MW
HStem: -7 40<241 246> 370 39<426.5 452> 388 40<169 207>
VStem: 12 76<292 362> 162 62<67 109.5 67 141>
LayerCount: 2
Fore
SplineSet
12 316 m 0xb8
 12 408 100 428 208 428 c 0xb8
 222 428 242 427 250 427 c 1
 257 434 271 444 306 444 c 0
 316 444 324 440 324 434 c 0
 324 432 318 422 318 420 c 0
 364 415 407 409 446 409 c 0
 499 409 517 427 538 427 c 0
 550 427 558 423 558 415 c 0
 558 394 498 370 406 370 c 0xd8
 375 370 341 373 304 379 c 1
 273 285 224 136 224 83 c 0
 224 51 232 33 250 33 c 0
 255 33 260 35 270 35 c 0
 282 35 290 27 290 19 c 0
 290 -4 256 -7 236 -7 c 0
 178 -7 162 35 162 83 c 0
 162 199 213 315 239 386 c 1
 228 387 216 388 198 388 c 0
 140 388 82 378 82 322 c 1
 88 298 l 2
 88 286 60 272 40 272 c 0
 28 272 12 283 12 316 c 0xb8
EndSplineSet
Validated: 1
EndChar

StartChar: afii10085
Encoding: 1091 1091 164
Width: 505
GlyphClass: 2
Flags: MW
HStem: -464 41<-7.5 35> 360 41
VStem: -152 59<-315 -278.5>
LayerCount: 2
Fore
SplineSet
-152 -315 m 0
 -152 -242 -85 -210 -59 -210 c 0
 -43 -210 -37 -216 -37 -224 c 0
 -37 -257 -93 -239 -93 -282 c 0
 -93 -348 -34 -423 19 -423 c 0
 82 -423 145 -374 182 -331 c 0
 330 -160 322 28 369 240 c 0
 376 273 390 304 408 330 c 1
 310 268 250 149 221 40 c 0
 217 25 188 7 169 7 c 0
 161 7 154 11 151 20 c 0
 104 186 23 351 23 380 c 0
 23 394 51 412 70 412 c 0
 76 412 82 410 84 405 c 2
 189 124 l 1
 250 262 362 401 525 401 c 0
 537 401 541 397 541 392 c 0
 541 364 499 375 481 360 c 0
 393 288 453 -140 209 -364 c 0
 147 -421 72 -464 -2 -464 c 0
 -90 -464 -152 -401 -152 -315 c 0
EndSplineSet
Validated: 1
EndChar

StartChar: afii10086
Encoding: 1092 1092 165
Width: 668
GlyphClass: 2
Flags: MW
HStem: 10 48<442 472.5> 21 43<111 114 111 118> 334 36<549.5 577> 345 46<212.5 252.5> 599 46<495 532>
VStem: 33 64<77 134.5 77 147> 176 64<-399 -385> 582 64<237 285>
LayerCount: 2
Fore
SplineSet
33 65 m 0x6f
 33 229 152 391 254 391 c 0
 293 391 312 378 338 345 c 1x5f
 344 371 l 1
 381 481 437 645 538 645 c 0
 550 645 604 637 604 617 c 0
 604 603 578 589 558 589 c 0
 544 589 538 599 526 599 c 0
 464 599 354 207 332 115 c 1
 414 266 503 370 596 370 c 0
 633 370 646 321 646 272 c 0
 646 202 540 10 405 10 c 0
 385 10 371 18 371 42 c 0
 371 62 401 72 421 72 c 0
 443 72 439 58 445 58 c 0xaf
 511 58 582 169 582 272 c 0
 582 298 582 334 572 334 c 0
 513 334 335 111 302 -63 c 2
 240 -385 l 2
 239 -392 219 -405 196 -405 c 0
 180 -405 176 -401 176 -397 c 0
 214 -125 261 118 310 237 c 1
 259 181 161 21 75 21 c 0
 53 21 33 43 33 65 c 0x6f
97 83 m 0
 97 71 108 64 114 64 c 1
 320 292 l 1
 305 328 273 345 232 345 c 0
 193 345 97 186 97 83 c 0
EndSplineSet
Validated: 1
EndChar

StartChar: afii10087
Encoding: 1093 1093 166
Width: 516
GlyphClass: 2
Flags: MW
HStem: -23 21G<401.5 424.5> 0 44<126 143>
VStem: 41 62<81 114.5 81 119> 139 64<365 401>
LayerCount: 2
Fore
SplineSet
41 83 m 0
 41 155 111 235 186 273 c 1
 177 294 139 359 139 371 c 0
 139 393 164 409 185 409 c 0
 193 409 200 407 203 401 c 2
 203 401 275 234 310 171 c 1
 363 232 430 331 469 387 c 0
 476 398 497 403 511 403 c 0
 523 403 531 398 531 392 c 0
 531 364 452 268 341 134 c 1
 378 74 406 29 440 11 c 1
 440 11 455 7 455 -2 c 0
 455 -15 432 -23 417 -23 c 0
 386 -23 337 14 289 80 c 1
 236 31 167 0 119 0 c 0
 62 0 41 41 41 83 c 0
103 93 m 0
 103 69 115 44 137 44 c 0
 162 44 221 81 264 128 c 1
 240 165 222 198 203 236 c 1
 140 208 103 136 103 93 c 0
EndSplineSet
Validated: 1
EndChar

StartChar: afii10088
Encoding: 1094 1094 167
Width: 558
GlyphClass: 2
Flags: MW
HStem: -539 38<1271 1423 1271 1490> -179 38 -17 21G<404 428.5> 371 40<39 128>
VStem: 130 68<223 279> 222 66<-214 -201 -214 -200.5> 352 72<42 58> 1594 70<-287 -249>
LayerCount: 2
Fore
SplineSet
30 377 m 0
 30 389 68 411 84 411 c 0
 172 411 198 345 198 267 c 0
 198 179 176 113 160 48 c 1
 253 151 338 267 444 351 c 0
 451 356 472 363 488 363 c 0
 498 363 506 361 506 355 c 0
 466 308 424 127 424 51 c 0
 424 33 442 27 464 27 c 0
 506 27 539 43 546 43 c 0
 558 43 564 37 564 31 c 0
 564 21 551 8 535 1 c 1
 492 -45 458 -95 423 -143 c 1
 491 -150 560 -170 631 -199 c 0
 884 -301 1150 -501 1392 -501 c 0
 1454 -501 1504 -480 1538 -436 c 0
 1575 -388 1594 -316 1594 -259 c 0
 1594 -239 1624 -229 1644 -229 c 0
 1656 -229 1664 -231 1664 -239 c 0
 1664 -335 1618 -539 1362 -539 c 0
 1069 -539 859 -343 612 -239 c 0
 543 -210 471 -189 394 -180 c 1
 360 -222 298 -297 250 -297 c 0
 226 -297 222 -250 222 -235 c 0
 222 -166 293 -143 367 -141 c 1
 399 -98 428 -54 462 -13 c 1
 449 -15 435 -17 422 -17 c 0
 386 -17 352 -10 352 33 c 0
 352 83 375 184 391 242 c 1
 271 100 125 -51 86 -51 c 0
 78 -51 74 -49 74 -39 c 0
 86 15 130 145 130 245 c 0
 130 313 110 367 44 371 c 0
 34 371 30 373 30 377 c 0
288 -211 m 0
 288 -217 288 -223 290 -230 c 1
 307 -214 322 -196 337 -179 c 1
 300 -179 288 -191 288 -211 c 0
EndSplineSet
Validated: 1
EndChar

StartChar: afii10089
Encoding: 1095 1095 168
Width: 443
GlyphClass: 2
Flags: MW
HStem: -11 413<288.5 423> 356 54<58 160.5>
VStem: 269 64<41.5 83>
LayerCount: 2
Fore
SplineSet
42 365 m 0x60
 42 368 87 410 128 410 c 0x60
 193 410 157 259 178 207 c 1
 199 224 319 402 418 402 c 0
 428 402 436 400 436 394 c 0
 436 390 333 146 333 58 c 0
 333 25 353 30 353 21 c 0
 353 8 311 -11 295 -11 c 0xa0
 282 -11 269 8 269 45 c 0
 269 121 315 256 344 330 c 1
 269 268 203 158 155 158 c 0
 90 158 112 273 93 365 c 1
 84 360 73 356 63 356 c 0
 53 356 42 359 42 365 c 0x60
EndSplineSet
Validated: 1
EndChar

StartChar: afii10090
Encoding: 1096 1096 169
Width: 777
GlyphClass: 2
Flags: MW
HStem: -135 40<605 605> -125 30<288.5 623> -13 44<144 145 144 152> 45 50<461 466.5> 367 42<93 136>
VStem: 79 62<41 62 41 101> 101 72<305 331 233 345> 387 70<87 170> 611 60
LayerCount: 2
Fore
SplineSet
59 -191 m 0x7980
 59 -129 191 -95 331 -95 c 2x7980
 623 -95 l 2
 639 -95 647 -101 647 -107 c 0
 647 -119 626 -134 605 -135 c 2xb980
 329 -125 l 2
 248 -125 145 -132 123 -185 c 0
 120 -193 91 -197 73 -197 c 0
 65 -197 59 -195 59 -191 c 0x7980
61 377 m 0
 61 395 91 409 111 409 c 0
 161 409 173 361 173 301 c 0x3b80
 173 165 141 77 141 47 c 0x3d80
 141 35 143 31 145 31 c 0
 241 112 349 217 411 327 c 0
 417 339 438 353 457 353 c 0
 477 353 487 333 487 309 c 0
 487 265 457 203 457 137 c 0
 457 125 459 111 461 95 c 1
 482 95 655 296 681 357 c 1
 693 363 715 371 731 371 c 0
 741 371 747 367 747 359 c 0
 701 257 680 157 671 47 c 0
 670 33 641 19 623 19 c 0
 615 19 611 21 611 27 c 0
 611 91 621 153 637 215 c 1
 565 135 500 45 433 45 c 0
 395 45 387 71 387 103 c 0
 387 141 399 191 407 235 c 1
 358 171 203 -13 101 -13 c 0x3b80
 85 -13 79 19 79 59 c 0x3d80
 79 143 101 275 101 335 c 0x3b80
 101 355 99 367 93 367 c 2
 79 365 l 2x3d80
 67 365 61 371 61 377 c 0
EndSplineSet
Validated: 1
EndChar

StartChar: afii10091
Encoding: 1097 1097 170
Width: 770
GlyphClass: 2
Flags: MW
HStem: -411 38<955 1085 955 1108> -393 48<254 334.5> -154 41<179 179> -9 21G<73 104.5> 313 50<61 141>
VStem: 112 68<243.5 268> 540 66<62 75.5> 1161 70<-299.5 -289>
LayerCount: 2
Fore
SplineSet
36 327 m 0x7f
 36 343 100 363 118 363 c 0
 164 363 180 319 180 263 c 0
 180 224 166 149 153 113 c 1
 205 175 272 245 323 291 c 1
 334 314 367 361 420 361 c 0
 430 361 440 359 440 351 c 0
 440 340 400 308 389 298 c 0
 374 283 370 153 357 73 c 1
 445 150 484 165 585 259 c 1
 594 300 622 367 676 367 c 0
 687 367 690 361 690 341 c 0
 690 316 671 284 647 265 c 1
 626 235 606 139 606 69 c 0
 606 55 610 47 616 47 c 0
 631 47 653 89 684 89 c 0
 696 89 706 87 706 79 c 0
 706 55 613 -134 547 -220 c 1
 703 -281 875 -373 1035 -373 c 0
 1135 -373 1161 -320 1161 -295 c 0
 1161 -283 1189 -275 1209 -275 c 0
 1221 -275 1231 -277 1231 -285 c 0
 1231 -314 1185 -411 1031 -411 c 0xbf
 832 -411 676 -334 509 -266 c 1
 458 -323 388 -393 281 -393 c 0
 155 -393 109 -281 109 -187 c 0
 109 -127 131 -113 183 -113 c 0
 247 -113 354 -142 502 -203 c 1
 561 -110 563 -102 612 1 c 1
 601 -3 591 -5 582 -5 c 0
 557 -5 540 16 540 51 c 0
 540 100 566 180 566 193 c 1
 491 126 402 78 338 -5 c 0
 330 -16 307 -29 288 -29 c 0
 282 -29 278 -27 278 -21 c 2
 300 217 l 1
 145 63 133 -9 76 -9 c 0
 70 -9 64 -7 64 -3 c 0
 64 20 112 100 112 251 c 0
 112 285 108 317 94 317 c 2
 70 313 l 2
 52 313 36 319 36 327 c 0x7f
179 -154 m 1
 179 -173 l 2
 179 -251 201 -345 307 -345 c 0x7f
 371 -345 424 -300 467 -248 c 1
 389 -215 260 -166 179 -154 c 1
EndSplineSet
Validated: 1
EndChar

StartChar: afii10092
Encoding: 1098 1098 171
Width: 510
GlyphClass: 2
Flags: HMW
HStem: -19 57<334 360> 227 40<388.5 458> 408 37<163 249>
VStem: 22 61<219 277 215 291> 249 71<87 137.5> 446 70<158.5 194>
LayerCount: 2
Fore
SplineSet
36.6904296875 313 m 0
 68.3095703125 431 83.1904296875 451 198.509765625 451 c 0
 268.259765625 451 341.73046875 422 419.849609375 422 c 0
 429.150390625 422 438.450195312 423 444.030273438 423 c 0
 447.75 423 457.98046875 418 457.98046875 411 c 0
 457.98046875 390 426.360351562 383 405.900390625 381 c 1
 341.73046875 344 291.509765625 214 291.509765625 121 c 0
 291.509765625 65 294.299804688 44 314.759765625 44 c 0
 353.8203125 44 408.690429688 131 408.690429688 183 c 0
 408.690429688 217 382.650390625 233 360.330078125 233 c 0
 350.099609375 233 344.51953125 231 341.73046875 231 c 0
 338.009765625 231 336.150390625 233 336.150390625 235 c 0
 336.150390625 244 360.330078125 273 389.16015625 273 c 0
 450.540039062 273 473.790039062 244 473.790039062 205 c 0
 473.790039062 124 368.700195312 -13 288.719726562 -13 c 0
 234.780273438 -13 225.48046875 34 225.48046875 99 c 0
 225.48046875 188 242.219726562 304 324.059570312 369 c 1
 281.243164062 376.818359375 244.041015625 439.720703125 200.259765625 439.720703125 c 0
 193.640625 439.720703125 186.872070312 438.283203125 179.91015625 435 c 0
 99 397 126.900390625 412 93.419921875 314 c 0
 91.5595703125 308 70.169921875 305 53.4296875 304 c 0
 36.6904296875 303 32.9697265625 298 36.6904296875 313 c 0
EndSplineSet
EndChar

StartChar: afii10093
Encoding: 1099 1099 172
Width: 565
GlyphClass: 2
Flags: MW
HStem: -97 41<469.5 477> 0 46<154.5 180 154.5 185.5> 269 39
VStem: 44 68<115.5 172> 194 70<104.5 142 85 168> 359 67<20 86.5>
LayerCount: 2
Fore
SplineSet
44 130 m 0
 44 214 67 307 134 398 c 0
 147 416 168 419 186 419 c 0
 193 419 198 417 198 414 c 0
 198 405 112 323 112 138 c 0
 112 93 137 46 172 46 c 0
 188 46 194 79 194 130 c 0
 194 206 152 262 152 284 c 0
 152 300 183 308 204 308 c 0
 291 308 417 311 464 398 c 0
 471 411 500 423 517 423 c 0
 523 423 528 421 528 417 c 0
 528 384 426 214 426 50 c 0
 426 -10 443 -56 496 -56 c 0
 506 -56 510 -55 515 -55 c 0
 524 -55 527 -58 527 -62 c 0
 527 -85 488 -97 466 -97 c 0
 386 -97 359 -37 359 39 c 0
 359 134 392 236 423 310 c 1
 367 281 300 271 234 269 c 1
 249 221 264 164 264 120 c 0
 264 50 217 0 154 0 c 0
 74 0 44 70 44 130 c 0
EndSplineSet
Validated: 1
EndChar

StartChar: afii10094
Encoding: 1100 1100 173
Width: 325
GlyphClass: 2
Flags: MW
HStem: -16 56<149 168 149 179>
VStem: 49 72<95 169> 215 66<139 191 139 198.5>
LayerCount: 2
Fore
SplineSet
49 118 m 0
 49 220 98 323 139 404 c 0
 148 422 168 430 185 430 c 0
 195 430 199 426 199 414 c 0
 199 403 121 242 121 114 c 0
 121 76 141 40 157 40 c 0
 179 40 215 96 215 158 c 0
 215 239 171 254 171 266 c 0
 171 282 209 300 227 300 c 0
 265 300 281 206 281 176 c 0
 281 102 225 -16 133 -16 c 0
 77 -16 49 58 49 118 c 0
EndSplineSet
Validated: 1
EndChar

StartChar: afii10095
Encoding: 1101 1101 174
Width: 347
GlyphClass: 2
Flags: MW
HStem: -19 47<114.5 156 114.5 168.5> 160 38<139 172> 389 47<171.5 199>
VStem: 264 60<267.5 300.5>
LayerCount: 2
Fore
SplineSet
12 181 m 0
 12 194 45 213 59 213 c 0
 107 213 94 198 173 198 c 0
 206 198 256 227 258 227 c 0
 262 245 264 262 264 273 c 0
 264 328 223 389 175 389 c 0
 117 389 118 341 62 341 c 0
 52 341 44 343 44 349 c 0
 44 367 136 436 207 436 c 0
 287 436 324 348 324 285 c 0
 324 172 239 -19 98 -19 c 0
 76 -19 38 -4 38 30 c 0
 38 44 66 62 85 62 c 0
 104 62 99 28 130 28 c 0
 182 28 223 109 246 180 c 1
 221 165 185 160 159 160 c 0
 119 160 12 170 12 181 c 0
EndSplineSet
Validated: 1
EndChar

StartChar: afii10096
Encoding: 1102 1102 175
Width: 587
GlyphClass: 2
Flags: MW
HStem: -9 40<364.5 406.5 364.5 410.5> 367 41<432.5 458.5>
VStem: 18 71 264 72<95.5 128.5> 489 72<189.5 250>
LayerCount: 2
Fore
SplineSet
18 37 m 0
 18 85 89 300 139 362 c 0
 147 372 169 383 191 383 c 0
 198 383 202 381 202 378 c 0
 202 366 170 340 123 203 c 1
 184 248 263 272 339 272 c 0
 354 272 363 266 363 260 c 0
 363 257 362 255 359 252 c 0
 347 205 336 158 336 111 c 0
 336 80 349 31 380 31 c 0
 433 31 489 145 489 228 c 0
 489 272 483 367 434 367 c 0
 391 367 386 313 335 313 c 0
 327 313 321 315 321 320 c 0
 321 336 400 408 465 408 c 0
 530 408 561 325 561 254 c 0
 561 125 469 -9 352 -9 c 0
 291 -9 264 54 264 108 c 0
 264 149 276 193 290 230 c 1
 185 221 109 164 89 52 c 0
 86 38 52 27 33 27 c 0
 24 27 18 30 18 37 c 0
EndSplineSet
Validated: 1
EndChar

StartChar: afii10097
Encoding: 1103 1103 176
Width: 524
GlyphClass: 2
Flags: MW
HStem: -13 47<99.5 122 99.5 127> -2 42<416 469> 401 48<212 249>
VStem: 0 65<65 83 65 83.5> 122 64<298.5 344.5 298.5 351> 308 68<297.5 342> 384 69<70.5 194>
LayerCount: 2
Fore
SplineSet
0 64 m 0xbe
 0 103 23 126 60 126 c 0
 70 126 78 123 78 116 c 0
 78 109 65 89 65 77 c 0
 65 53 84 34 115 34 c 0xbe
 129 34 201 51 262 147 c 1
 184 161 122 216 122 314 c 0
 122 388 170 449 254 449 c 0
 344 449 376 385 376 318 c 0
 376 274 362 223 343 179 c 1
 378 189 419 216 445 216 c 0
 456 216 461 213 461 207 c 0
 461 201 457 196 453 194 c 1
 453 125 456 40 461 40 c 0
 477 40 491 33 491 24 c 0
 491 8 449 -2 434 -2 c 0x7e
 398 -2 384 47 384 94 c 0
 384 117 385 138 387 157 c 1
 368 150 347 145 325 143 c 1
 269 55 175 -13 79 -13 c 0
 28 -13 0 30 0 64 c 0xbe
186 330 m 0
 186 267 228 206 284 185 c 1
 302 221 308 274 308 321 c 0
 308 363 270 401 228 401 c 0
 192 401 186 359 186 330 c 0
EndSplineSet
Validated: 1
EndChar

StartChar: afii61352
Encoding: 8470 8470 177
Width: 1482
GlyphClass: 2
Flags: MW
HStem: -22 45<280 304.5> -1 21G<845 861.5> 191 43<1173.5 1202> 324 41<359.5 407> 334 42<1263 1275> 446 42<1283 1290> 598 42<309.5 368.5>
VStem: 118 62<497.5 521.5 497.5 531.5> 198 65<111.5 177.5 111.5 184> 830 70<16.5 38 16.5 81.5> 1179 66<401 409> 1283 80<376 432 403 446>
LayerCount: 2
Fore
SplineSet
118 489 m 0xb7f0
 118 574 256 640 363 640 c 0
 489 640 606 586 709 477 c 0
 770 412 807 335 837 253 c 1
 854 398 902 542 1010 624 c 0
 1018 630 1031 635 1042 635 c 0
 1053 635 1063 631 1063 626 c 0
 1063 620 1050 614 1050 614 c 2
 918 494 897 293 897 121 c 0
 897 87 900 53 900 23 c 0xb7f0
 900 10 872 -1 851 -1 c 0x67f0
 839 -1 830 3 830 14 c 0
 830 149 742 363 619 478 c 1
 561 379 532 269 482 173 c 0
 433 80 355 -22 254 -22 c 0
 200 -22 198 70 198 113 c 0
 198 255 288 365 431 365 c 0
 439 365 442 363 442 359 c 0
 442 347 414 324 400 324 c 0
 305 324 263 231 263 124 c 0
 263 99 264 23 296 23 c 0
 331 23 385 104 400 134 c 0
 458 249 497 393 580 511 c 1
 524 551 414 598 323 598 c 0
 228 598 180 539 180 504 c 0
 180 491 152 478 134 478 c 0
 126 478 118 482 118 489 c 0xb7f0
1006 187 m 0
 1006 233 1134 234 1213 234 c 0
 1275 234 1459 228 1459 212 c 0
 1459 200 1433 182 1418 182 c 0
 1331 185 1246 191 1158 191 c 0
 1101 191 1060 181 1017 181 c 0
 1009 181 1006 183 1006 187 c 0
1179 386 m 0
 1179 432 1247 488 1299 488 c 0
 1321 488 1329 483 1329 478 c 0
 1329 464 1297 446 1283 446 c 2
 1275 448 l 1
 1255 448 1245 428 1245 408 c 0
 1245 394 1251 380 1263 376 c 1
 1283 376 l 1
 1305 398 1275 442 1341 442 c 0
 1353 442 1363 438 1363 426 c 0
 1363 380 1303 334 1247 334 c 0x2ff0
 1209 334 1179 358 1179 386 c 0
EndSplineSet
Validated: 1
EndChar

StartChar: afii10071
Encoding: 1105 1105 178
Width: 334
GlyphClass: 2
Flags: MW
HStem: 0 45<141 178> 368 41<209 232> 444 70<358 416> 492 60<252 302>
VStem: 28 67<93 134 93 169> 238 80<501 542> 261 61<321.5 345.5> 352 82<449 509>
LayerCount: 2
Fore
SplineSet
28 99 m 0xcb
 28 239 142 409 253 409 c 0
 289 409 322 389 322 353 c 0
 322 273 190 224 111 206 c 1
 100 176 95 146 95 122 c 0
 95 64 128 45 154 45 c 0
 241 45 270 126 317 126 c 0
 324 126 331 121 331 115 c 0
 331 101 229 0 127 0 c 0
 83 0 28 27 28 99 c 0xcb
128 251 m 1
 180 269 261 305 261 338 c 0
 261 353 241 368 223 368 c 0
 195 368 156 313 128 251 c 1
238 506 m 0xdd
 238 528 257 552 296 552 c 0
 308 552 318 548 318 536 c 1
 310 518 290 492 258 492 c 0
 246 492 238 496 238 506 c 0xdd
352 452 m 0
 352 480 369 514 412 514 c 0
 420 514 434 514 434 504 c 0
 434 463 384 444 362 444 c 0xe9
 354 444 352 446 352 452 c 0
EndSplineSet
Validated: 1
EndChar

StartChar: afii10099
Encoding: 1106 1106 179
Width: 480
GlyphClass: 2
Flags: MW
HStem: -557 44<-73.5 23 -73.5 107> -15 21G<35 62> 362 48<315.5 350> 543 40<96.5 110 110 125> 549 66
VStem: -228 65<-403.5 -368.5> 367 68<234.5 310>
LayerCount: 2
Fore
SplineSet
-228 -390 m 0xf6
 -228 -347 -221 -272 -162 -272 c 0
 -155 -272 -150 -275 -150 -281 c 0
 -150 -298 -163 -293 -163 -362 c 0
 -163 -445 -120 -513 -27 -513 c 0
 73 -513 157 -412 221 -280 c 0
 315 -87 367 175 367 294 c 0
 367 326 360 362 340 362 c 0
 289 362 215 254 160 155 c 0
 98 44 86 -15 38 -15 c 0
 32 -15 29 -13 29 -10 c 0
 29 3 79 304 125 543 c 1
 110 543 l 2
 45 543 -19 549 -19 563 c 0
 -19 576 5 595 22 595 c 0
 32 595 58 583 135 583 c 1xf6
 162 678 192 717 245 717 c 0
 253 717 259 714 259 709 c 0
 259 688 222 697 199 586 c 1
 248 586 317 615 345 615 c 0
 358 615 365 610 365 603 c 0
 365 578 271 558 191 549 c 0xee
 191 547 190 545 190 543 c 0
 159 426 148 305 128 185 c 1
 178 266 267 410 364 410 c 0
 402 410 435 384 435 316 c 0
 435 0 274 -557 -60 -557 c 0
 -176 -557 -228 -464 -228 -390 c 0xf6
EndSplineSet
Validated: 1
EndChar

StartChar: afii10100
Encoding: 1107 1107 180
Width: 373
GlyphClass: 2
Flags: MW
HStem: -11 47<202.5 233.5 202.5 243.5> 395 39<223 244>
VStem: 114 71<58 86.5> 205 70<519 540.5> 254 72<334.5 381.5>
LayerCount: 2
Fore
SplineSet
37 308 m 0xe8
 37 313 143 434 263 434 c 0
 290 434 326 419 326 381 c 0
 326 288 185 181 185 71 c 0
 185 45 195 36 210 36 c 0
 257 36 320 94 341 119 c 0
 346 124 365 129 380 129 c 0
 390 129 398 127 398 121 c 0
 398 112 299 -11 188 -11 c 0
 157 -11 114 6 114 42 c 0
 114 131 254 291 254 376 c 0
 254 387 250 395 238 395 c 0
 208 395 140 350 104 310 c 0
 96 302 71 300 55 300 c 0
 44 300 37 302 37 308 c 0xe8
205 515 m 0xf0
 205 566 287 639 331 639 c 0
 339 639 349 635 349 627 c 0
 349 605 275 575 275 525 c 0
 275 513 247 499 227 499 c 0
 215 499 205 503 205 515 c 0xf0
EndSplineSet
Validated: 1
EndChar

StartChar: afii10101
Encoding: 1108 1108 181
Width: 390
GlyphClass: 2
Flags: MW
HStem: 0 45<154 193> 203 42<257 292 257 292.5> 372 36<252.5 301>
VStem: 42 63<135.5 161.5 135.5 189> 251 74
LayerCount: 2
Fore
SplineSet
42 121 m 0
 42 257 165 408 312 408 c 0
 347 408 375 390 375 373 c 0
 375 361 352 348 333 348 c 0
 317 348 319 372 283 372 c 0
 222 372 143 287 114 217 c 1
 160 245 235 245 279 245 c 0
 305 245 313 253 336 253 c 0
 349 253 356 247 356 239 c 0
 356 219 318 203 267 203 c 0
 224 203 152 203 106 176 c 1
 106 176 105 167 105 156 c 0
 105 115 127 45 181 45 c 0
 212 45 237 75 251 111 c 0
 257 126 288 130 306 130 c 0
 317 130 325 127 325 120 c 0
 325 87 235 0 151 0 c 0
 70 0 42 66 42 121 c 0
EndSplineSet
Validated: 1
EndChar

StartChar: afii10102
Encoding: 1109 1109 182
Width: 343
GlyphClass: 2
Flags: MW
HStem: -9 42<139.5 179 139.5 187.5> 392 43<327.5 337.5>
VStem: 11 70<78.5 100.5> 80 71<255.5 321 255.5 339.5> 239 61<70 117.5>
LayerCount: 2
Fore
SplineSet
11 94 m 0xe8
 11 107 39 119 60 119 c 0
 72 119 81 115 81 104 c 0xe8
 81 53 120 33 159 33 c 0
 199 33 239 54 239 86 c 0
 239 149 80 171 80 290 c 0
 80 389 229 435 336 435 c 0
 356 435 370 428 370 424 c 0
 370 411 346 392 329 392 c 0
 326 392 322 395 306 395 c 0
 235 395 151 350 151 292 c 0xd8
 151 219 300 184 300 94 c 0
 300 27 225 -9 150 -9 c 0
 67 -9 11 35 11 94 c 0xe8
EndSplineSet
Validated: 1
EndChar

StartChar: afii10103
Encoding: 1110 1110 183
Width: 238
GlyphClass: 2
Flags: MW
HStem: 0 51<114.5 120.5 114.5 122.5> 515 51<195 268>
VStem: 43 66<63.5 101>
LayerCount: 2
Fore
SplineSet
43 63 m 0
 43 139 96 327 126 383 c 0
 136 401 156 408 174 408 c 0
 182 408 187 406 187 397 c 0
 187 365 109 180 109 71 c 0
 109 56 113 51 116 51 c 0
 125 51 172 103 194 103 c 0
 204 103 212 100 212 93 c 0
 212 91 159 0 86 0 c 0
 59 0 43 28 43 63 c 0
185 522 m 0
 185 553 225 566 263 566 c 0
 273 566 283 562 283 550 c 0
 283 538 228 515 197 515 c 0
 193 515 185 516 185 522 c 0
EndSplineSet
Validated: 1
EndChar

StartChar: afii10104
Encoding: 1111 1111 184
Width: 230
GlyphClass: 2
Flags: MW
HStem: 0 42<78 148> 444 70<286 344> 492 60<180 230>
VStem: 38 68<84 133> 166 80<501 542> 280 82<449 509>
LayerCount: 2
Fore
SplineSet
38 84 m 0x9c
 38 182 102 333 130 372 c 0
 137 381 154 386 168 386 c 0
 182 386 194 380 194 372 c 0
 194 368 193 365 190 362 c 0
 129 292 106 192 106 98 c 0
 106 70 112 42 140 42 c 0
 156 42 162 38 162 32 c 0
 162 6 108 0 102 0 c 0
 54 0 38 36 38 84 c 0x9c
166 506 m 0
 166 528 185 552 224 552 c 0
 236 552 246 548 246 536 c 1
 238 518 218 492 186 492 c 0xbc
 174 492 166 496 166 506 c 0
280 452 m 0
 280 480 297 514 340 514 c 0
 348 514 362 514 362 504 c 0
 362 463 312 444 290 444 c 0xdc
 282 444 280 446 280 452 c 0
EndSplineSet
Validated: 1
EndChar

StartChar: afii10105
Encoding: 1112 1112 185
Width: 207
GlyphClass: 2
Flags: MW
HStem: -645 38<-320 -241.5 -320 -224.5>
VStem: -518 64<-425 -326>
LayerCount: 2
Fore
SplineSet
-518 -371 m 0
 -518 -281 -459 -163 -382 -163 c 0
 -370 -163 -362 -167 -362 -175 c 0
 -362 -196 -454 -206 -454 -347 c 0
 -454 -503 -364 -607 -276 -607 c 0
 -207 -607 -110 -541 -49 -407 c 0
 51 -184 29 178 132 389 c 0
 138 401 152 409 170 409 c 0
 182 409 192 405 192 395 c 1
 96 219 137 -166 11 -410 c 0
 -56 -539 -145 -645 -304 -645 c 0
 -426 -645 -518 -543 -518 -371 c 0
162 539 m 0
 162 571 245 629 272 629 c 0
 280 629 294 623 294 615 c 0
 294 596 213 535 192 529 c 1
 192 529 162 529 162 539 c 0
EndSplineSet
Validated: 1
EndChar

StartChar: afii10106
Encoding: 1113 1113 186
Width: 693
GlyphClass: 2
Flags: MW
HStem: -12 49<519.5 544.5 519.5 557.5> 0 42<89 114.5> 213 58<532.5 605.5>
VStem: 5 68<81.5 101> 395 62<238.5 390.5> 575 74<148 178>
LayerCount: 2
Fore
SplineSet
5 65 m 0x7c
 5 137 56 224 115 224 c 0
 125 224 130 218 130 211 c 0
 130 203 122 194 105 188 c 0
 84 181 73 133 73 96 c 0
 73 67 80 42 98 42 c 0x7c
 143 42 361 329 403 434 c 0
 408 448 429 463 454 463 c 0
 461 463 466 461 466 454 c 0
 466 445 457 420 457 361 c 0
 457 341 459 277 468 211 c 1
 503 241 551 271 589 271 c 0
 622 271 649 249 649 189 c 0
 649 107 596 -12 519 -12 c 0xbc
 420 -12 395 157 395 320 c 1
 302 168 170 0 59 0 c 0
 21 0 5 28 5 65 c 0x7c
475 162 m 1
 487 95 505 37 534 37 c 0xbc
 555 37 575 120 575 158 c 0
 575 198 563 213 547 213 c 0
 518 213 494 187 475 162 c 1
EndSplineSet
Validated: 1
EndChar

StartChar: afii10107
Encoding: 1114 1114 187
Width: 611
GlyphClass: 2
Flags: MW
HStem: -14 56<435 454 435 465> 220 37<218 250.5 206 258.5>
VStem: 41 65 99 87<327 377.5> 335 67<97 138.5> 501 66<141 193 141 200>
LayerCount: 2
Fore
SplineSet
41 67 m 0xec
 41 122 53 179 96 222 c 0
 112 238 113 294 115 322 c 1
 106 322 99 324 99 330 c 0
 99 346 125 387 167 387 c 0
 178 387 186 383 186 372 c 0xdc
 186 333 180 294 172 255 c 1
 185 256 199 257 213 257 c 0
 288 257 315 265 363 266 c 1
 381 318 405 366 425 406 c 0
 430 417 453 432 471 432 c 0
 479 432 485 428 485 416 c 0
 485 393 402 237 402 116 c 0
 402 78 427 42 443 42 c 0
 465 42 501 98 501 160 c 0
 501 240 457 258 457 268 c 0
 457 284 495 302 513 302 c 0
 551 302 567 208 567 178 c 0
 567 104 511 -14 419 -14 c 0
 363 -14 335 60 335 120 c 0
 335 157 342 195 352 232 c 1
 327 225 287 220 230 220 c 0
 206 220 182 219 163 213 c 1
 146 146 119 77 106 12 c 0
 103 -1 82 -13 64 -13 c 0
 46 -13 41 25 41 67 c 0xec
EndSplineSet
Validated: 1
EndChar

StartChar: afii10108
Encoding: 1115 1115 188
Width: 480
GlyphClass: 2
Flags: MW
HStem: -23 40 -3 21G<58.5 73> 348 48<319 348> 522 62 551 36<119.5 164>
VStem: -60 63<443.5 488.5 443.5 501> 329 69<58.5 109 58.5 112> 363 67<278 311>
LayerCount: 2
Fore
SplineSet
-60 444 m 0x6d
 -60 558 53 587 180 587 c 1x6d
 212 655 256 696 296 696 c 0
 306 696 313 694 313 690 c 0
 313 688 311 684 306 681 c 0
 280 665 258 631 238 584 c 1
 331 578 428 563 428 552 c 0
 428 539 390 522 375 522 c 0
 357 522 281 540 223 547 c 1
 186 444 158 300 136 167 c 1
 195 277 266 396 372 396 c 0
 417 396 430 360 430 309 c 0x35
 430 247 398 144 398 74 c 0
 398 43 406 21 426 17 c 0
 433 15 435 12 435 8 c 0
 435 -5 402 -23 386 -23 c 0
 343 -16 329 22 329 71 c 0xb6
 329 153 363 257 363 292 c 0
 363 330 355 348 341 348 c 0
 271 348 165 117 115 22 c 0
 109 9 82 -3 64 -3 c 0
 53 -3 45 1 45 12 c 0
 45 58 107 407 164 551 c 1
 75 551 3 529 3 448 c 0
 3 439 6 428 6 418 c 0
 6 405 -22 389 -40 389 c 0
 -60 389 -60 428 -60 444 c 0x6d
EndSplineSet
Validated: 1
EndChar

StartChar: afii10109
Encoding: 1116 1116 189
Width: 491
GlyphClass: 2
Flags: MW
HStem: -145 52<504.5 577.5> 387 40<422 426.5>
VStem: 243 70<518 533.5> 433 68<368 378.5>
LayerCount: 2
Fore
SplineSet
20 27 m 0
 50 152 65 387 130 387 c 0
 150 387 170 379 170 367 c 0
 170 356 161 346 150 340 c 1
 130 282 118 220 108 158 c 1
 205 272 336 427 459 427 c 0
 488 427 501 411 501 390 c 0
 501 346 478 303 423 303 c 0
 414 303 407 304 407 308 c 0
 407 317 433 332 433 375 c 0
 433 382 430 387 423 387 c 0
 421 387 355 357 244 241 c 1
 292 177 451 -93 558 -93 c 0
 600 -93 612 -44 656 -44 c 0
 666 -44 674 -47 674 -54 c 0
 674 -71 610 -145 545 -145 c 0
 414 -145 283 80 196 187 c 1
 123 112 90 18 34 18 c 0
 26 18 20 21 20 27 c 0
243 514 m 0
 243 553 325 638 369 638 c 0
 377 638 387 634 387 626 c 0
 387 604 313 574 313 524 c 0
 313 512 285 498 265 498 c 0
 253 498 243 502 243 514 c 0
EndSplineSet
Validated: 1
EndChar

StartChar: section
Encoding: 167 167 190
Width: 490
GlyphClass: 2
Flags: MW
HStem: -257 47<40 112.5 40 114.5> 634 41<363 413>
VStem: -111 61 106 62<288.5 331.5> 180 65<-83.5 -22 -90.5 8.5> 210 75<488 549> 280 67<189 222.5> 485 70
LayerCount: 2
Fore
SplineSet
-111 -81 m 0xfb
 -111 -68 -82 -57 -64 -57 c 0
 -56 -57 -52 -59 -50 -65 c 0
 -29 -126 1 -210 79 -210 c 0
 146 -210 180 -112 180 -55 c 0xfb
 180 72 106 195 106 299 c 0
 106 364 134 423 213 443 c 1
 211 462 210 479 210 497 c 0
 210 601 298 675 411 675 c 0
 497 675 555 620 555 585 c 0
 555 571 525 557 504 557 c 0
 495 557 488 559 485 565 c 0
 466 612 432 634 394 634 c 0
 332 634 285 587 285 515 c 0xf5
 285 421 347 320 347 225 c 0
 347 153 305 97 227 80 c 1
 237 38 245 -2 245 -42 c 0
 245 -139 171 -257 58 -257 c 0
 -43 -257 -111 -140 -111 -81 c 0xfb
168 324 m 0
 168 253 198 185 218 115 c 1
 263 116 280 147 280 189 c 0
 280 256 241 352 223 406 c 1
 182 399 168 366 168 324 c 0
EndSplineSet
Validated: 1
EndChar

StartChar: afii10110
Encoding: 1118 1118 191
Width: 505
GlyphClass: 2
Flags: MW
HStem: -464 41<-7.5 35> 360 41 531 36<802.5 907 802.5 908> 651 44<401 491>
VStem: -152 59<-315 -278.5> 225 70<527 582> 991 70<627.5 671>
LayerCount: 2
Fore
SplineSet
-152 -315 m 0
 -152 -242 -85 -210 -59 -210 c 0
 -43 -210 -37 -216 -37 -224 c 0
 -37 -257 -93 -239 -93 -282 c 0
 -93 -348 -34 -423 19 -423 c 0
 82 -423 145 -374 182 -331 c 0
 330 -160 322 28 369 240 c 0
 376 273 390 304 408 330 c 1
 310 268 250 149 221 40 c 0
 217 25 188 7 169 7 c 0
 161 7 154 11 151 20 c 0
 104 186 23 351 23 380 c 0
 23 394 51 412 70 412 c 0
 76 412 82 410 84 405 c 2
 189 124 l 1
 250 262 362 401 525 401 c 0
 537 401 541 397 541 392 c 0
 541 364 499 375 481 360 c 0
 393 288 453 -140 209 -364 c 0
 147 -421 72 -464 -2 -464 c 0
 -90 -464 -152 -401 -152 -315 c 0
225 535 m 0
 225 629 351 695 451 695 c 0
 629 695 726 567 879 567 c 0
 935 567 991 590 991 665 c 0
 991 677 1019 691 1039 691 c 0
 1051 691 1061 687 1061 675 c 0
 1061 574 957 531 859 531 c 0
 696 531 553 651 429 651 c 0
 359 651 295 615 295 551 c 0
 295 496 325 475 325 467 c 0
 325 455 297 443 275 443 c 0
 239 443 225 519 225 535 c 0
EndSplineSet
Validated: 1
EndChar

StartChar: afii10193
Encoding: 1119 1119 192
Width: 485
GlyphClass: 2
Flags: MW
HStem: -351 50<71.5 96 71.5 98.5> -1 21G<346.5 359.5> 8 42<204 240 193.5 248.5> 79 40<138.5 164.5>
VStem: 63 62<161 183> 85 69<-45.5 -5.5 -45.5 -4> 129 66<-226 -157> 322 65<81.5 119>
LayerCount: 2
Fore
SplineSet
33 -341 m 0xb3
 33 -329 68 -301 75 -301 c 0
 117 -301 129 -259 129 -214 c 0xb3
 129 -100 85 -85 85 -34 c 0
 85 26 164 50 223 50 c 0xb5
 257 50 293 45 326 42 c 1
 323 58 322 74 322 89 c 0
 322 149 343 205 367 265 c 1
 287 184 204 79 125 79 c 0
 77 79 63 108 63 148 c 0
 63 218 86 265 86 323 c 0
 86 361 75 364 75 369 c 0
 75 385 105 396 121 396 c 0
 142 396 150 362 150 338 c 0
 150 286 125 217 125 169 c 0
 125 153 130 119 147 119 c 0
 214 119 372 365 449 365 c 0
 459 365 466 362 466 354 c 0
 466 345 387 211 387 94 c 0
 387 43 397 31 397 23 c 0
 397 7 364 -1 355 -1 c 0xd9
 338 -1 274 8 223 8 c 0
 185 8 154 3 154 -14 c 0xb5
 154 -77 195 -119 195 -181 c 0
 195 -271 142 -351 55 -351 c 0
 39 -351 33 -347 33 -341 c 0xb3
EndSplineSet
Validated: 1
EndChar

StartChar: currency
Encoding: 164 164 193
Width: 574
GlyphClass: 2
Flags: MW
HStem: 44 42 64 48<242.5 260> 422 51<308 333.5>
VStem: 81 70<444 452.5> 101 72<189.5 222.5> 417 69<272.5 310.5>
LayerCount: 2
Fore
SplineSet
68 47 m 0x74
 68 60 96 100 122 127 c 1
 107 150 101 175 101 202 c 0x6c
 101 243 116 288 141 329 c 1
 109 329 81 405 81 446 c 0
 81 459 109 471 130 471 c 0
 142 471 151 467 151 456 c 0
 151 432 157 402 174 376 c 1
 221 432 283 473 333 473 c 0
 356 473 385 461 405 433 c 1
 456 490 l 2
 465 501 487 506 505 506 c 0
 515 506 515 500 515 497 c 0
 515 490 468 436 440 405 c 1
 471 374 486 336 486 296 c 0
 486 249 462 192 423 153 c 1
 453 120 477 101 521 86 c 0
 524 85 525 82 525 80 c 0
 525 67 489 44 469 44 c 0xb4
 449 44 393 74 367 107 c 1
 328 82 282 64 238 64 c 0
 208 64 179 73 156 91 c 1
 141 63 137 36 91 36 c 0
 83 36 68 36 68 47 c 0x74
173 216 m 0
 173 163 209 112 276 112 c 0
 306 112 333 127 355 148 c 1
 355 163 356 181 387 188 c 1
 404 218 417 254 417 287 c 0
 417 334 365 422 302 422 c 0
 231 422 173 265 173 216 c 0
EndSplineSet
Validated: 1
EndChar

StartChar: brokenbar
Encoding: 166 166 194
Width: 211
GlyphClass: 2
Flags: MW
VStem: 39 71 80 70<141 168> 91 70 121 70<561 587.5>
LayerCount: 2
Fore
SplineSet
39 -74 m 0x80
 39 -32 80 77 80 161 c 0
 80 175 115 189 136 189 c 0
 144 189 150 187 150 181 c 0x40
 150 101 119 21 110 -59 c 0
 108 -73 74 -84 55 -84 c 0
 46 -84 39 -81 39 -74 c 0x80
91 411 m 0x20
 91 423 121 480 121 581 c 0
 121 594 149 606 170 606 c 0
 182 606 191 602 191 591 c 0x10
 191 531 172 484 161 421 c 0x20
 158 407 128 396 110 396 c 0x80
 99 396 91 400 91 411 c 0x20
EndSplineSet
Validated: 1
EndChar

StartChar: copyright
Encoding: 169 169 195
Width: 649
GlyphClass: 2
Flags: MW
HStem: -39 39<262.5 338.5 262.5 361> 100 39<279 301.5> 342 40<333 365.5> 476 41<360.5 448>
VStem: 35 71<189 263 174.5 302> 190 63<175.5 209> 542 71<281.5 361.5>
LayerCount: 2
Fore
SplineSet
35 214 m 0
 35 390 246 517 416 517 c 0
 555 517 613 434 613 341 c 0
 613 177 448 -39 274 -39 c 0
 209 -39 143 -9 83 65 c 1
 51 113 35 164 35 214 c 0
106 227 m 0
 106 122 217 0 308 0 c 0
 369 0 425 41 467 99 c 0
 513 162 542 245 542 318 c 0
 542 405 500 476 396 476 c 0
 325 476 257 451 205 411 c 0
 145 365 106 299 106 227 c 0
190 173 m 0
 190 245 281 382 383 382 c 0
 396 382 447 374 447 359 c 0
 447 348 419 329 398 329 c 0
 385 329 373 342 358 342 c 0
 308 342 253 235 253 185 c 0
 253 166 265 139 293 139 c 0
 333 139 380 182 403 182 c 0
 415 182 430 173 430 167 c 0
 430 148 332 100 271 100 c 0
 226 100 190 132 190 173 c 0
EndSplineSet
Validated: 1
EndChar

StartChar: guillemotleft
Encoding: 171 171 196
Width: 438
GlyphClass: 2
Flags: MW
HStem: 100 321<220.5 277.5>
LayerCount: 2
Fore
SplineSet
12 226 m 0
 12 234 25 246 35 250 c 0
 103 280 169 322 225 410 c 0
 230 417 256 421 273 421 c 0
 282 421 289 420 289 416 c 0
 289 404 189 289 95 236 c 1
 132 212 283 137 283 132 c 0
 283 119 241 100 225 100 c 0
 216 100 12 210 12 226 c 0
231 240 m 0
 231 259 280 277 335 380 c 0
 344 397 362 408 379 408 c 0
 389 408 396 404 396 396 c 0
 396 368 334 289 305 252 c 1
 333 230 399 177 399 161 c 0
 399 145 366 128 345 128 c 0
 338 128 334 132 332 135 c 0
 300 179 275 200 235 230 c 0
 232 233 231 237 231 240 c 0
EndSplineSet
Validated: 1
EndChar

StartChar: registered
Encoding: 174 174 197
Width: 668
GlyphClass: 2
Flags: MW
HStem: 149 44<283.5 415 283.5 423> 279 40 649 42<290 394>
VStem: 39 63<348.5 458.5> 171 71 232 70<540.5 545.5> 293 205<306.5 402.5> 412 64<500.5 507> 559 71<359 450>
LayerCount: 2
Fore
SplineSet
39 388 m 0xf080
 39 529 188 691 378 691 c 0
 444 691 514 669 537 629 c 1
 542 630 546 631 550 631 c 0
 586 631 630 526 630 446 c 0
 630 272 511 149 335 149 c 0
 150 149 39 272 39 388 c 0xf080
102 409 m 0
 102 288 207 193 360 193 c 0
 470 193 559 259 559 426 c 0
 559 474 548 522 522 561 c 1
 510 561 500 562 500 569 c 0
 500 629 438 649 350 649 c 0
 230 649 102 529 102 409 c 0
171 285 m 0xf980
 171 309 232 421 232 539 c 0
 232 552 260 564 281 564 c 0
 293 564 302 560 302 549 c 0
 302 532 300 516 298 500 c 1
 343 530 398 549 453 549 c 0
 466 549 476 540 476 528 c 0xf580
 476 473 422 424 368 397 c 1
 391 354 438 327 483 319 c 0
 494 317 498 316 498 312 c 0
 498 301 465 279 443 279 c 0
 406 279 313 322 293 389 c 1xf280
 293 416 323 416 333 419 c 0
 371 429 412 473 412 507 c 1
 364 500 318 471 284 439 c 1
 270 395 254 354 242 309 c 0
 237 290 203 278 185 278 c 0
 177 278 171 280 171 285 c 0xf980
EndSplineSet
Validated: 1
EndChar

StartChar: degree
Encoding: 176 176 198
Width: 338
GlyphClass: 2
Flags: MW
HStem: 273 42<148 160> 385 42<168 175>
VStem: 64 66<340 348> 168 80<315 371 342 385>
LayerCount: 2
Fore
SplineSet
64 325 m 0
 64 371 132 427 184 427 c 0
 206 427 214 422 214 417 c 0
 214 403 182 385 168 385 c 2
 160 387 l 1
 140 387 130 367 130 347 c 0
 130 333 136 319 148 315 c 1
 168 315 l 1
 190 337 160 381 226 381 c 0
 238 381 248 377 248 365 c 0
 248 319 188 273 132 273 c 0
 94 273 64 297 64 325 c 0
EndSplineSet
Validated: 1
EndChar

StartChar: acute
Encoding: 180 180 199
Width: 500
GlyphClass: 2
Flags: MW
HStem: 513 167<171.5 347>
VStem: 164 196<525 673.5>
LayerCount: 2
Fore
SplineSet
164 529 m 0
 164 548 250 578 296 661 c 0
 302 672 325 680 342 680 c 0
 352 680 360 677 360 670 c 0
 360 605 211 513 176 513 c 0
 167 513 164 521 164 529 c 0
EndSplineSet
Validated: 1
EndChar

StartChar: mu
Encoding: 181 181 200
Width: 561
GlyphClass: 2
Flags: MW
HStem: -436 40<76 110.5> -2 49<253.5 310.5>
VStem: -36 65<-239 -137.5 -239 -133> 156 66<158 177.5> 439 68<48.5 76 44 76.5>
LayerCount: 2
Fore
SplineSet
-36 -248 m 0
 -36 -18 91 252 178 414 c 0
 185 427 207 438 223 438 c 0
 238 438 240 415 240 395 c 0
 240 329 222 251 222 180 c 0
 222 136 235 47 272 47 c 0
 364 47 417 356 519 356 c 0
 528 356 539 353 539 343 c 0
 539 316 507 100 507 52 c 0
 507 36 524 40 524 30 c 0
 524 17 499 1 479 1 c 0
 443 1 439 32 439 65 c 0
 439 88 455 157 464 220 c 1
 415 119 356 -2 265 -2 c 0
 179 -2 156 77 156 165 c 0
 156 190 158 217 160 243 c 1
 96 95 29 -58 29 -217 c 0
 29 -261 44 -396 108 -396 c 0
 126 -396 148 -379 167 -379 c 0
 180 -379 190 -384 190 -390 c 0
 190 -402 140 -436 81 -436 c 0
 4 -436 -36 -340 -36 -248 c 0
EndSplineSet
Validated: 1
EndChar

StartChar: paragraph
Encoding: 182 182 201
Width: 699
GlyphClass: 2
Flags: MW
HStem: -245 44<149.5 152.5 141.5 228.5> 3 58 385 34 385 42<446 446 446 560 440 446> 579 41
VStem: 385 61<428 428>
LayerCount: 2
Fore
SplineSet
93 153 m 0xec
 93 294 219 428 385 428 c 1
 410 509 461 620 563 620 c 0
 575 620 579 616 579 610 c 0
 579 600 566 583 549 579 c 0
 484 563 457 493 446 427 c 1xdc
 606 419 l 2xec
 644 419 671 429 679 429 c 0
 691 429 696 425 696 420 c 0
 696 387 618 385 560 385 c 2xdc
 440 385 l 1
 423 267 420 152 410 45 c 1
 445 45 464 61 484 61 c 0
 497 61 504 55 504 47 c 0
 504 23 456 9 402 3 c 1
 374 -134 298 -245 159 -245 c 0
 140 -245 96 -243 96 -235 c 0
 96 -224 134 -201 149 -201 c 0
 156 -201 162 -204 182 -204 c 0
 279 -204 321 -108 339 -1 c 1
 331 -1 l 2
 215 -1 93 35 93 153 c 0xec
EndSplineSet
Validated: 1
EndChar

StartChar: periodcentered
Encoding: 183 183 202
Width: 328
GlyphClass: 2
Flags: MW
HStem: 266 70<92 151>
VStem: 74 92<271 321>
LayerCount: 2
Fore
SplineSet
74 276 m 0
 74 310 114 336 146 336 c 0
 156 336 166 326 166 316 c 0
 166 311 123 266 96 266 c 0
 88 266 74 266 74 276 c 0
EndSplineSet
Validated: 1
EndChar

StartChar: guillemotright
Encoding: 187 187 203
Width: 476
GlyphClass: 2
Flags: MW
HStem: 309 40
VStem: 301 154<269 335>
LayerCount: 2
Fore
SplineSet
41 39 m 0
 41 53 144 169 218 234 c 1
 178 263 123 299 75 309 c 0
 64 311 60 312 60 316 c 0
 60 327 93 349 115 349 c 0
 152 349 235 289 285 259 c 0
 290 259 292 257 292 253 c 0
 292 231 207 181 95 39 c 0
 91 33 73 29 59 29 c 0
 49 29 41 32 41 39 c 0
242 70 m 0
 242 72 242 76 245 79 c 0
 292 136 339 191 385 255 c 1
 361 270 301 304 301 328 c 0
 301 342 326 356 346 356 c 0
 353 356 361 354 365 349 c 0
 394 308 455 290 455 269 c 1
 405 209 353 137 315 79 c 0
 307 67 285 59 265 59 c 0
 257 59 242 59 242 70 c 0
EndSplineSet
Validated: 1
EndChar

StartChar: afii10050
Encoding: 1168 1168 204
Width: 550
GlyphClass: 2
Flags: MW
HStem: -12 40<274.5 339.5 274.5 389.5> 547 43<724.5 780.5 724.5 793.5> 575 40<570 617.5>
VStem: 108 63<215 246> 811 70<700 718>
LayerCount: 2
Fore
SplineSet
108 220 m 0xb8
 108 272 138 353 206 353 c 0
 219 353 226 348 226 341 c 0
 226 324 171 321 171 260 c 0
 171 170 236 28 313 28 c 0
 366 28 393 86 407 141 c 0
 450 311 418 615 601 615 c 0xb8
 649 615 696 590 753 590 c 0
 808 590 811 635 811 711 c 0
 811 725 846 739 867 739 c 0
 875 739 881 737 881 731 c 0
 881 669 861 547 726 547 c 0xd8
 671 547 643 575 592 575 c 0
 548 575 528 508 520 419 c 0
 504 245 485 -12 294 -12 c 0
 189 -12 108 115 108 220 c 0xb8
EndSplineSet
Validated: 1
EndChar

StartChar: afii10098
Encoding: 1169 1169 205
Width: 407
GlyphClass: 2
Flags: MW
HStem: -36 56<54 106> 400 34<360 397.5 351.5 444> 408 39<213.5 279 188 292>
VStem: 35 64<50.5 148.5 45 155> 460 70<486 530.5>
LayerCount: 2
Fore
SplineSet
35 70 m 0xb8
 35 240 110 447 266 447 c 0xb8
 292 447 333 434 370 434 c 0
 425 434 460 465 460 507 c 0
 460 526 489 537 510 537 c 0
 521 537 530 534 530 527 c 0
 530 506 504 400 384 400 c 0xd8
 336 400 320 408 264 408 c 0
 163 408 99 246 99 51 c 0
 99 39 99 28 101 20 c 1
 111 20 128 33 142 33 c 0
 152 33 160 30 160 23 c 0
 160 7 118 -36 69 -36 c 0
 39 -36 35 31 35 70 c 0xb8
EndSplineSet
Validated: 1
EndChar

StartChar: endash
Encoding: 8211 8211 206
Width: 524
GlyphClass: 2
Flags: MW
HStem: 218 54
LayerCount: 2
Fore
SplineSet
32 226 m 0
 32 272 357 262 463 272 c 0
 479 272 485 268 485 262 c 0
 485 221 259 218 141 218 c 2
 48 218 l 2
 36 218 32 220 32 226 c 0
EndSplineSet
Validated: 1
EndChar

StartChar: emdash
Encoding: 8212 8212 207
Width: 796
GlyphClass: 2
Flags: MW
HStem: 213 36<347 477.5> 227 42<119 131>
LayerCount: 2
Fore
SplineSet
27 231 m 0x40
 27 255 99 269 139 269 c 0x40
 221 269 303 249 391 249 c 0
 601 249 713 285 735 285 c 0
 747 285 753 279 753 273 c 0
 753 231 572 213 383 213 c 0x80
 286 213 153 227 109 227 c 0
 80 227 63 217 45 217 c 0
 35 217 27 225 27 231 c 0x40
EndSplineSet
Validated: 1
EndChar

StartChar: quoteleft
Encoding: 8216 8216 208
Width: 250
GlyphClass: 2
Flags: MW
HStem: 301 140<66 180>
VStem: 50 70<321 342.5>
LayerCount: 2
Fore
SplineSet
50 317 m 0
 50 368 132 441 176 441 c 0
 184 441 194 437 194 429 c 0
 194 407 120 377 120 327 c 0
 120 315 92 301 72 301 c 0
 60 301 50 305 50 317 c 0
EndSplineSet
Validated: 1
EndChar

StartChar: quoteright
Encoding: 8217 8217 209
Width: 250
GlyphClass: 2
Flags: MW
HStem: 301 140<64 178>
VStem: 124 70<399.5 421>
LayerCount: 2
Fore
SplineSet
50 313 m 0
 50 335 124 365 124 415 c 0
 124 427 152 441 172 441 c 0
 184 441 194 437 194 425 c 0
 194 374 112 301 68 301 c 0
 60 301 50 305 50 313 c 0
EndSplineSet
Validated: 1
EndChar

StartChar: quotesinglbase
Encoding: 8218 8218 210
Width: 250
GlyphClass: 2
Flags: MW
HStem: -45 140<64 178>
VStem: 124 70<53.5 75>
LayerCount: 2
Fore
SplineSet
50 -33 m 0
 50 -11 124 19 124 69 c 0
 124 81 152 95 172 95 c 0
 184 95 194 91 194 79 c 0
 194 28 112 -45 68 -45 c 0
 60 -45 50 -41 50 -33 c 0
EndSplineSet
Validated: 1
EndChar

StartChar: quotedblleft
Encoding: 8220 8220 211
Width: 346
GlyphClass: 2
Flags: MW
HStem: 469 32 509 36
VStem: 30 70<388 425 388 444.5> 110 62<304 313 304 332>
LayerCount: 2
Fore
SplineSet
30 385 m 0
 30 504 166 545 202 545 c 0
 210 545 220 541 220 529 c 0
 220 518 190 511 180 509 c 0
 119 499 100 451 100 399 c 0
 100 377 70 361 48 361 c 0
 40 361 30 363 30 385 c 0
110 289 m 0
 110 375 217 501 274 501 c 0
 282 501 298 483 298 479 c 0
 298 473 285 472 280 469 c 0
 219 441 170 389 170 319 c 1
 172 313 l 1
 172 295 142 281 124 281 c 0
 116 281 110 283 110 289 c 0
EndSplineSet
Validated: 1
EndChar

StartChar: quotedblright
Encoding: 8221 8221 212
Width: 346
GlyphClass: 2
Flags: MW
HStem: 325 32<47.5 61 45 71.5>
VStem: 158 60<470.5 507> 230 68<398 413.5>
LayerCount: 2
Fore
SplineSet
30 347 m 0
 30 353 42 357 48 357 c 0
 74 357 158 425 158 507 c 1
 156 513 l 1
 156 531 186 545 204 545 c 0
 212 545 218 543 218 519 c 0
 218 422 89 325 54 325 c 0
 41 325 30 336 30 347 c 0
108 297 m 0
 108 314 230 326 230 409 c 0
 230 418 228 424 228 427 c 0
 228 449 258 465 280 465 c 0
 288 465 298 460 298 441 c 0
 298 355 200 281 126 281 c 0
 118 281 108 285 108 297 c 0
EndSplineSet
Validated: 1
EndChar

StartChar: quotedblbase
Encoding: 8222 8222 213
Width: 346
GlyphClass: 2
Flags: MW
HStem: -70 32<47.5 61 45 71.5>
VStem: 158 60<75.5 112> 230 68<3 18.5>
LayerCount: 2
Fore
SplineSet
30 -48 m 0
 30 -42 42 -38 48 -38 c 0
 74 -38 158 30 158 112 c 1
 156 118 l 1
 156 136 186 150 204 150 c 0
 212 150 218 148 218 124 c 0
 218 27 89 -70 54 -70 c 0
 41 -70 30 -59 30 -48 c 0
108 -98 m 0
 108 -81 230 -69 230 14 c 0
 230 23 228 29 228 32 c 0
 228 54 258 70 280 70 c 0
 288 70 298 65 298 46 c 0
 298 -40 200 -114 126 -114 c 0
 118 -114 108 -110 108 -98 c 0
EndSplineSet
Validated: 1
EndChar

StartChar: dagger
Encoding: 8224 8224 214
Width: 500
GlyphClass: 2
Flags: MW
HStem: 447 40<343 395 395 438>
VStem: 144 61 325 71
LayerCount: 2
Fore
SplineSet
84 421 m 0
 84 483 179 487 235 487 c 2
 279 487 l 1
 294 528 308 568 325 607 c 0
 330 620 361 632 380 632 c 0
 389 632 396 629 396 622 c 0
 396 611 369 550 343 487 c 1
 395 487 l 2
 497 487 487 517 535 517 c 0
 545 517 555 507 555 497 c 0
 555 482 488 442 469 442 c 0
 452 442 443 447 438 447 c 2
 327 447 l 1
 261 290 227 149 205 -33 c 0
 203 -46 177 -58 159 -58 c 0
 150 -58 144 -55 144 -48 c 0
 144 68 222 325 266 448 c 1
 251 450 233 452 216 452 c 0
 144 452 151 411 98 411 c 0
 90 411 84 414 84 421 c 0
EndSplineSet
Validated: 1
EndChar

StartChar: daggerdbl
Encoding: 8225 8225 215
Width: 500
GlyphClass: 2
Flags: MW
HStem: -15 21G<166.5 180> 293 37 464 35<252.5 261> 464 46<134 181 111 187 111 261>
VStem: 156 61 497 70<503.5 520>
LayerCount: 2
Fore
SplineSet
13 253 m 0xdc
 13 268 36 305 57 305 c 0
 100 305 153 328 226 328 c 1
 237 373 249 418 261 464 c 1xec
 187 464 l 2
 81 464 115 433 74 433 c 0
 65 433 56 438 56 445 c 0
 56 463 63 510 159 510 c 0xdc
 203 510 235 499 270 499 c 1xec
 279 536 289 614 312 627 c 1
 304 629 295 634 295 638 c 0
 295 658 333 674 359 674 c 0
 376 674 389 663 389 657 c 0
 389 645 360 633 357 620 c 0
 347 578 339 536 330 495 c 1
 355 493 382 493 408 493 c 0
 457 493 497 497 497 510 c 0
 497 530 526 545 547 545 c 0
 558 545 567 540 567 530 c 0
 567 462 444 461 322 461 c 1
 290 330 l 1
 447 330 l 2
 457 330 460 324 460 320 c 0
 460 307 422 290 407 290 c 0
 366 290 323 292 280 293 c 1
 257 200 232 107 217 10 c 0
 215 -3 189 -15 171 -15 c 0
 162 -15 156 -12 156 -5 c 0
 156 21 205 242 217 291 c 1
 107 291 69 248 25 248 c 0
 18 248 13 250 13 253 c 0xdc
EndSplineSet
Validated: 1
EndChar

StartChar: bullet
Encoding: 8226 8226 216
Width: 248
GlyphClass: 2
Flags: MW
HStem: 238 192<132.5 151.5>
VStem: 32 172<324 328.5>
LayerCount: 2
Fore
SplineSet
32 307 m 0
 32 350 55 385 95 405 c 1
 100 418 119 430 146 430 c 0
 181 430 204 384 204 352 c 0
 204 296 181 238 122 238 c 0
 76 238 32 261 32 307 c 0
EndSplineSet
Validated: 1
EndChar

StartChar: ellipsis
Encoding: 8230 8230 217
Width: 746
GlyphClass: 2
Flags: MW
HStem: 54 70<305 364> 61 70<92 151>
LayerCount: 2
Fore
SplineSet
74 71 m 0x40
 74 105 114 131 146 131 c 0
 156 131 166 121 166 111 c 0
 166 106 123 61 96 61 c 0
 88 61 74 61 74 71 c 0x40
287 64 m 0
 287 98 327 124 359 124 c 0
 369 124 379 114 379 104 c 0
 379 99 336 54 309 54 c 0x80
 301 54 287 54 287 64 c 0
492 71 m 0
 492 105 532 131 564 131 c 0
 574 131 584 121 584 111 c 0
 584 106 541 61 514 61 c 0x40
 506 61 492 61 492 71 c 0
EndSplineSet
Validated: 1
EndChar

StartChar: perthousand
Encoding: 8240 8240 218
Width: 774
GlyphClass: 2
Flags: MW
HStem: -15 21G<64 79> 25 51<334 340.5 334 350> 37 42<588 596> 125 40<344.5 349.5> 149 42<604 611> 267 48<143 157.5> 363 52 373 42<189 195>
VStem: 78 63<319 332 319 344> 266 62<82.5 93 82.5 93> 352 66<101 168> 500 66<104 112> 604 80<106 149>
LayerCount: 2
Fore
SplineSet
48 -1 m 0x85f8
 110 147 210 257 316 363 c 1x86f8
 236 363 195 267 120 267 c 0
 94 267 78 295 78 317 c 0
 78 371 162 415 216 415 c 0
 229 415 236 411 236 407 c 0
 236 395 204 373 186 373 c 0
 184 373 180 373 178 375 c 0
 159 375 141 344 141 320 c 0
 141 318 142 315 144 315 c 0
 182 315 261 415 388 415 c 0
 396 415 414 415 414 407 c 0
 414 405 412 399 408 395 c 0
 288 275 178 165 118 5 c 0
 112 -5 88 -15 70 -15 c 0
 58 -15 48 -11 48 -1 c 0x85f8
266 69 m 0
 266 117 316 165 372 165 c 1
 382 171 394 173 404 173 c 0
 412 173 418 171 418 165 c 0
 418 99 382 25 318 25 c 0xd4f8
 284 25 266 45 266 69 c 0
328 85 m 0
 328 80 331 76 337 76 c 0
 344 76 352 89 352 113 c 0
 352 120 351 125 348 125 c 0
 341 125 328 101 328 85 c 0
500 89 m 0
 500 135 568 191 620 191 c 0
 642 191 650 186 650 181 c 0
 650 167 618 149 604 149 c 2
 596 151 l 1
 576 151 566 131 566 111 c 0
 566 97 572 79 604 79 c 1
 626 101 596 145 662 145 c 0
 674 145 684 141 684 129 c 0
 684 83 624 37 568 37 c 0xacf8
 530 37 500 61 500 89 c 0
EndSplineSet
Validated: 1
EndChar

StartChar: guilsinglleft
Encoding: 8249 8249 219
Width: 224
GlyphClass: 2
Flags: MW
HStem: 128 280<119 160>
VStem: 7 168<153 252>
LayerCount: 2
Fore
SplineSet
7 240 m 0
 7 264 60 271 111 380 c 0
 119 397 138 408 155 408 c 0
 165 408 172 404 172 396 c 0
 172 372 105 300 81 252 c 1
 109 230 175 177 175 161 c 0
 175 145 142 128 121 128 c 0
 117 128 114 129 111 130 c 0
 81 170 51 200 11 230 c 0
 8 233 7 237 7 240 c 0
EndSplineSet
Validated: 1
EndChar

StartChar: guilsinglright
Encoding: 8250 8250 220
Width: 250
GlyphClass: 2
Flags: MW
HStem: 107 249<79 134.5>
VStem: 86 154<269 335>
LayerCount: 2
Fore
SplineSet
60 118 m 0
 60 136 117 192 170 255 c 1
 146 270 86 308 86 328 c 0
 86 342 111 356 131 356 c 0
 138 356 146 354 150 349 c 0
 181 306 240 290 240 269 c 1
 190 209 174 186 133 127 c 0
 125 115 103 107 83 107 c 0
 75 107 60 107 60 118 c 0
EndSplineSet
Validated: 1
EndChar

StartChar: Euro
Encoding: 8364 8364 221
Width: 568
GlyphClass: 2
Flags: MW
HStem: -16 38<326.5 371.5> 198 40<100.5 189 129 177 253 429> 288 40<141 232 169 210 293 449> 501 41<510.5 574.5>
VStem: 174 66<124 168>
LayerCount: 2
Fore
SplineSet
85 209 m 0
 85 221 109 238 129 238 c 2
 189 238 l 1
 195 255 202 271 210 288 c 1
 149 288 l 2
 133 288 127 292 127 297 c 0
 127 309 155 328 169 328 c 2
 232 328 l 1
 307 453 435 542 586 542 c 0
 607 542 653 541 653 527 c 0
 653 514 624 496 607 496 c 0
 592 496 589 501 560 501 c 0
 447 501 350 430 293 328 c 1
 469 328 l 2
 485 328 491 324 491 319 c 0
 491 307 463 288 449 288 c 2
 272 288 l 1
 265 272 258 255 253 238 c 1
 439 238 l 2
 444 238 453 239 461 239 c 0
 470 239 473 236 473 232 c 0
 473 220 449 198 429 198 c 2
 243 198 l 1
 241 186 240 174 240 163 c 0
 240 85 299 22 354 22 c 0
 416 22 420 73 474 73 c 0
 485 73 493 70 493 65 c 0
 493 55 412 -16 331 -16 c 0
 229 -16 174 76 174 162 c 0
 174 174 175 186 177 198 c 1
 109 198 l 2
 92 198 85 203 85 209 c 0
EndSplineSet
Validated: 1
EndChar

StartChar: hryvnia
Encoding: 8372 8372 222
Width: 500
GlyphClass: 2
Flags: MW
HStem: -37 42<166 177> 163 43 263 40<48 297 84 264 84 322 352 454> 442 44<241 267>
VStem: 86 68<16.5 44> 324 62<382.5 399>
LayerCount: 2
Fore
SplineSet
27 172 m 0
 27 203 132 206 209 206 c 1
 230 225 246 242 264 263 c 1
 54 263 l 2
 42 263 37 267 37 272 c 0
 37 284 63 303 84 303 c 2
 297 303 l 1
 312 325 324 349 324 373 c 0
 324 425 286 442 248 442 c 0
 179 442 160 411 130 411 c 0
 115 411 107 419 107 428 c 0
 107 460 212 486 270 486 c 0
 343 486 386 449 386 399 c 0
 386 366 372 334 352 303 c 1
 484 303 l 2
 496 303 501 299 501 294 c 0
 501 282 475 263 454 263 c 2
 322 263 l 1
 308 245 292 227 276 209 c 1
 330 211 386 213 444 213 c 0
 456 213 461 209 461 204 c 0
 461 160 315 172 240 168 c 1
 202 126 154 84 154 23 c 0
 154 10 161 5 171 5 c 0
 213 5 254 59 295 59 c 0
 307 59 317 57 317 50 c 0
 317 29 215 -37 139 -37 c 0
 108 -37 86 -24 86 19 c 0
 86 69 126 120 169 165 c 1
 128 164 86 163 44 163 c 0
 32 163 27 167 27 172 c 0
EndSplineSet
Validated: 1
EndChar

StartChar: trademark
Encoding: 8482 8482 223
Width: 836
GlyphClass: 2
Flags: MW
HStem: 310 42<189 239> 321 52<684.5 730.5> 504 41<27.5 119>
VStem: 149 62<376 393.5> 475 60<411.5 463> 660 66<418 451>
LayerCount: 2
Fore
SplineSet
22 509 m 0xbc
 22 520 48 545 69 545 c 0
 169 545 279 555 389 555 c 0
 401 555 406 551 406 546 c 0
 406 515 352 512 241 512 c 1
 229 478 211 422 211 386 c 0
 211 366 217 352 233 352 c 0
 245 352 256 362 273 362 c 0
 292 362 292 350 292 345 c 0
 292 323 231 310 204 310 c 0
 174 310 149 324 149 365 c 0
 149 422 167 470 186 509 c 1
 30 504 l 2
 25 504 22 506 22 509 c 0xbc
308 295 m 0
 308 312 406 467 473 543 c 0
 480 551 497 562 512 562 c 0
 533 562 535 477 535 449 c 0
 535 423 534 397 533 371 c 1
 606 420 645 546 711 546 c 0
 718 546 726 543 726 533 c 2
 726 373 l 1
 735 373 758 383 774 383 c 0
 785 383 792 381 792 375 c 0
 792 363 740 321 704 321 c 0x7c
 665 321 660 385 660 451 c 1
 613 406 543 316 485 316 c 0
 478 316 471 319 471 326 c 0
 471 354 475 396 475 427 c 0
 475 444 474 458 470 465 c 1
 433 412 397 342 367 293 c 0
 361 283 343 274 325 274 c 0
 309 274 308 283 308 295 c 0
EndSplineSet
Validated: 1
EndChar

StartChar: ff
Encoding: 64256 64256 224
Width: 576
GlyphClass: 3
Flags: MW
HStem: 261 39<189 204.5> 264 42<101.5 128> 656 41<627 723.5> 695 41<409 470>
VStem: -11 66<-359.5 -343> 740 64<609 620.5>
LayerCount: 2
Fore
SplineSet
-11 -357 m 0xac
 -11 -356 24 -100 114 264 c 1
 89 264 47 273 47 278 c 0
 47 290 73 309 94 309 c 2
 128 306 l 1
 211 611 344 736 474 736 c 0x5c
 535 736 578 709 587 665 c 1
 625 688 665 697 706 697 c 0
 741 697 804 683 804 628 c 0
 804 590 771 550 734 550 c 0
 720 550 708 555 708 561 c 0
 708 568 740 592 740 607 c 0
 740 634 700 656 668 656 c 0
 586 656 534 587 447 316 c 1
 524 324 612 355 625 355 c 0
 633 355 636 353 636 349 c 0
 636 312 528 290 437 279 c 1
 382 78 345 -179 298 -402 c 0
 298 -415 271 -423 253 -423 c 0
 244 -423 237 -421 237 -416 c 0
 237 -415 254 -217 370 272 c 1
 308 266 231 261 178 261 c 1
 128 78 102 -120 55 -343 c 0
 55 -356 23 -364 5 -364 c 0
 -4 -364 -11 -362 -11 -357 c 0xac
189 300 m 1x9c
 223 300 282 304 353 309 c 0
 363 310 373 311 382 311 c 1
 425 465 475 562 532 621 c 1
 529 665 504 695 436 695 c 0
 354 695 276 572 189 300 c 1x9c
EndSplineSet
Validated: 1
Ligature2: "'liga' Standard Ligatures lookup 1 subtable" f f
EndChar

StartChar: fi
Encoding: 64257 64257 225
Width: 517
GlyphClass: 3
Flags: MW
HStem: 0 51<393.5 399.5 393.5 401.5> 269 40<58 128> 497 48 656 41<389 430>
VStem: -17 61<-418.5 -402> 322 66<63.5 92.5> 491 64<583 609>
LayerCount: 2
Fore
SplineSet
-17 -416 m 0
 -17 -415 0 -217 116 272 c 1
 92 270 73 269 64 269 c 0
 52 269 47 273 47 278 c 0
 47 290 73 309 94 309 c 2
 128 309 l 1
 211 611 326 697 452 697 c 0
 513 697 555 664 555 609 c 0
 555 557 518 497 435 497 c 0
 431 497 423 498 423 504 c 0
 423 527 446 540 474 545 c 1
 482 557 491 571 491 588 c 0
 491 630 446 656 414 656 c 0
 332 656 280 587 193 315 c 1
 269 325 356 357 399 371 c 1
 405 383 l 2
 414 401 436 408 453 408 c 0
 461 408 466 406 466 397 c 0
 436 276 388 169 388 71 c 0
 388 56 392 51 395 51 c 0
 404 51 451 103 473 103 c 0
 483 103 491 100 491 93 c 0
 491 91 438 0 365 0 c 0
 338 0 322 28 322 63 c 0
 322 122 354 251 383 330 c 1
 327 307 241 286 183 279 c 1
 128 78 91 -179 44 -402 c 0
 44 -415 17 -423 -1 -423 c 0
 -10 -423 -17 -421 -17 -416 c 0
EndSplineSet
Validated: 1
Ligature2: "'liga' Standard Ligatures lookup 1 subtable" f i
EndChar

StartChar: fl
Encoding: 64258 64258 226
Width: 627
GlyphClass: 3
Flags: MW
HStem: 0 58<470 481.5> 269 40<58 128> 519 58<605.5 636> 656 41<389 441>
VStem: -17 61<-418.5 -402> 380 72<93 145>
LayerCount: 2
Fore
SplineSet
-17 -416 m 0
 -17 -415 0 -217 116 272 c 1
 92 270 73 269 64 269 c 0
 52 269 47 273 47 278 c 0
 47 290 73 309 94 309 c 2
 128 309 l 1
 211 611 326 697 452 697 c 0
 513 697 545 667 596 575 c 1
 597 573 l 1
 606 575 616 577 626 577 c 0
 646 577 655 562 655 558 c 2
 655 557 l 2
 655 535 624 519 609 519 c 0
 602 519 594 519 587 520 c 2
 580 520 l 2
 524 520 452 242 452 112 c 0
 452 74 462 58 478 58 c 0
 527 58 552 108 574 127 c 1
 582 127 603 125 603 115 c 0
 603 91 515 0 448 0 c 0
 404 0 380 44 380 96 c 0
 380 194 426 452 539 544 c 1
 536 547 534 550 532 554 c 0
 495 614 468 656 414 656 c 0
 332 656 280 587 193 315 c 1
 291 328 352 355 371 355 c 0
 379 355 382 353 382 349 c 0
 382 312 274 290 183 279 c 1
 128 78 91 -179 44 -402 c 0
 44 -415 17 -423 -1 -423 c 0
 -10 -423 -17 -421 -17 -416 c 0
EndSplineSet
Validated: 1
Ligature2: "'liga' Standard Ligatures lookup 1 subtable" f l
EndChar

StartChar: ffi
Encoding: 64259 64259 227
Width: 771
GlyphClass: 3
Flags: MW
HStem: 0 51<647.5 653.5 647.5 655.5> 264 42<101.5 128> 497 48 656 41<627 736.5> 695 41<409 470>
VStem: -11 66<-359.5 -343> 237 61<-418.5 -402> 576 66<63.5 92.5> 745 64<583 609>
LayerCount: 2
Fore
SplineSet
-11 -357 m 0xf780
 -11 -356 24 -100 114 264 c 1
 89 264 47 273 47 278 c 0
 47 290 73 309 94 309 c 2
 128 306 l 1
 211 611 344 736 474 736 c 0xef80
 535 736 578 709 587 665 c 1
 625 688 665 697 706 697 c 0
 767 697 809 664 809 609 c 0
 809 557 772 497 689 497 c 0
 685 497 677 498 677 504 c 0
 677 527 700 540 728 545 c 1
 736 557 745 571 745 588 c 0
 745 630 700 656 668 656 c 0
 586 656 534 587 447 315 c 1
 523 325 610 357 653 371 c 1
 659 383 l 2
 668 401 690 408 707 408 c 0
 715 408 720 406 720 397 c 0
 690 276 642 169 642 71 c 0
 642 56 646 51 649 51 c 0
 658 51 705 103 727 103 c 0
 737 103 745 100 745 93 c 0
 745 91 692 0 619 0 c 0
 592 0 576 28 576 63 c 0
 576 122 608 251 637 330 c 1
 581 307 495 286 437 279 c 1
 382 78 345 -179 298 -402 c 0
 298 -415 271 -423 253 -423 c 0
 244 -423 237 -421 237 -416 c 0
 237 -415 254 -217 370 272 c 1
 310 266 233 261 178 261 c 1
 128 78 102 -120 55 -343 c 0
 55 -356 23 -364 5 -364 c 0
 -4 -364 -11 -362 -11 -357 c 0xf780
189 300 m 1
 382 311 l 1
 425 465 475 562 532 621 c 1
 529 665 504 695 436 695 c 0
 354 695 276 572 189 300 c 1
EndSplineSet
Validated: 1
Ligature2: "'liga' Standard Ligatures lookup 1 subtable" f f i
EndChar

StartChar: ffl
Encoding: 64260 64260 228
Width: 880
GlyphClass: 3
Flags: MW
HStem: 0 58<723 734.5> 261 39<189 189 189 203.5> 271 40<365 381> 519 58<858.5 889> 656 41<684.5 694> 695 41<409 469.5>
VStem: -11 66<-359.5 -343> 236 61<-418.5 -402> 633 72<93 145>
LayerCount: 2
Fore
SplineSet
-11 -357 m 0xd380
 -11 -356 24 -100 114 264 c 1
 89 264 47 273 47 278 c 0
 47 290 73 309 94 309 c 2
 128 306 l 1
 211 611 344 736 474 736 c 0xd780
 535 736 578 709 587 665 c 1
 625 688 664 697 705 697 c 0
 766 697 798 667 849 575 c 1
 850 573 l 1
 859 575 869 577 879 577 c 0
 899 577 908 562 908 558 c 2
 908 557 l 2
 908 535 877 519 862 519 c 0
 855 519 847 519 840 520 c 2
 833 520 l 2
 777 520 705 242 705 112 c 0
 705 74 715 58 731 58 c 0
 780 58 805 108 827 127 c 1
 835 127 856 125 856 115 c 0
 856 91 768 0 701 0 c 0
 657 0 633 44 633 96 c 0
 633 194 679 452 792 544 c 1
 789 547 787 550 785 554 c 0
 748 614 721 656 667 656 c 0
 585 656 533 587 446 315 c 1
 544 328 605 355 624 355 c 0
 632 355 635 353 635 349 c 0
 635 312 527 290 436 279 c 1
 381 78 344 -179 297 -402 c 0
 297 -415 270 -423 252 -423 c 0
 243 -423 236 -421 236 -416 c 0
 236 -415 253 -217 369 272 c 1
 368 272 367 271 365 271 c 0xbb80
 304 265 229 261 178 261 c 1
 128 78 102 -120 55 -343 c 0
 55 -356 23 -364 5 -364 c 0
 -4 -364 -11 -362 -11 -357 c 0xd380
189 300 m 1
 189 301 l 1
 221 301 274 304 338 308 c 0
 341 309 344 309 347 309 c 2
 353 309 l 2
 363 310 372 311 381 311 c 1xb380
 424 465 475 563 532 622 c 1
 528 665 503 695 436 695 c 0
 354 695 276 572 189 300 c 1
EndSplineSet
Validated: 5
Ligature2: "'liga' Standard Ligatures lookup 1 subtable" f f l
EndChar

StartChar: ll
Encoding: 65537 -1 229
Width: 576
GlyphClass: 3
Flags: MW
HStem: -12 58<155.5 174.5> 0 58<418 429.5> 652 40<562 601> 737 50<342 398>
VStem: 50 72<108 213> 328 72<93 156>
LayerCount: 2
Fore
SplineSet
50 111 m 0xbc
 50 315 199 787 422 787 c 0
 442 787 446 785 446 781 c 0
 446 769 409 737 387 737 c 0
 297 737 122 424 122 127 c 0
 122 89 140 46 171 46 c 0
 220 46 257 108 279 127 c 1
 287 127 308 125 308 115 c 0
 308 91 208 -12 141 -12 c 0
 77 -12 50 59 50 111 c 0xbc
328 96 m 0
 328 216 419 692 620 692 c 0
 640 692 644 690 644 686 c 0
 644 674 612 652 590 652 c 0
 534 652 400 308 400 112 c 0
 400 74 410 58 426 58 c 0
 475 58 500 108 522 127 c 1
 530 127 551 125 551 115 c 0
 551 91 463 0 396 0 c 0x7c
 352 0 328 44 328 96 c 0
EndSplineSet
Validated: 1
Ligature2: "'liga' Standard Ligatures lookup 1 subtable" l l
EndChar

StartChar: afii10067.alt
Encoding: 65538 -1 230
Width: 376
GlyphClass: 2
Flags: MW
HStem: -33 56<148 190 148 192> 839 44<441 493.5>
VStem: 58 70<109 140 109 143> 226 64<164 198.5> 538 70<657 747>
LayerCount: 2
Fore
SplineSet
58 111 m 0
 58 175 80 277 116 386 c 1
 105 393 94 399 81 406 c 1
 81 419 112 428 131 429 c 1
 210 649 340 883 460 883 c 0
 548 883 608 829 608 751 c 0
 608 563 438 379 264 299 c 1
 281 272 290 221 290 185 c 0
 290 97 242 -33 142 -33 c 0
 80 -33 58 49 58 111 c 0
128 115 m 0
 128 103 132 23 164 23 c 0
 216 23 226 155 226 173 c 0
 226 224 212 307 165 349 c 1
 160 333 154 308 150 291 c 2
 144 263 l 2
 133 213 128 165 128 115 c 0
182 401 m 1
 205 381 230 353 248 323 c 1
 388 391 538 592 538 718 c 0
 538 776 535 839 452 839 c 0
 430 839 291 737 182 401 c 1
EndSplineSet
Validated: 1
EndChar

StartChar: afii10075_afii10069
Encoding: 65539 -1 231
Width: 846
GlyphClass: 3
Flags: MW
HStem: -9 43<633 659 633 693.5> 39 50<113.5 126.5> 573 58<450 506> 794 42<408 527>
VStem: 45 66<109 147> 163 128<415 527> 337 74 547 63<98 167 98 168> 753 66<334.5 345> 947 68<658.5 744.5 650.5 748.5>
LayerCount: 2
Fore
SplineSet
45 111 m 0
 45 183 80 284 91 315 c 0
 98 335 128 345 147 345 c 0
 155 345 161 343 161 339 c 0
 131 265 111 195 111 115 c 0
 111 103 111 89 116 89 c 0
 170 89 361 349 453 349 c 0
 463 349 473 345 473 339 c 0
 441 265 421 195 411 33 c 1
 415 33 425 39 441 39 c 0
 451 39 459 37 459 33 c 0
 459 22 410 -13 377 -13 c 0
 340 -13 337 39 337 71 c 0
 337 129 357 195 377 255 c 1
 303 193 162 39 91 39 c 0
 57 39 45 69 45 111 c 0
163 431 m 0
 163 467 189 510 231 546 c 1
 255 678 313 836 479 836 c 0
 656 836 758 700 798 548 c 1
 892 548 947 621 947 696 c 0
 947 801 843 793 843 806 c 0
 843 818 875 834 895 834 c 0
 960 834 1015 781 1015 708 c 0
 1015 593 907 521 807 509 c 1
 815 470 819 431 819 393 c 0
 819 276 777 -9 610 -9 c 0
 559 -9 547 49 547 101 c 0
 547 235 621 371 750 402 c 1
 748 437 743 475 735 511 c 1
 640 524 562 573 450 573 c 0
 398 573 336 555 291 527 c 1
 291 523 l 1
 281 460 271 389 199 389 c 0
 179 389 163 399 163 431 c 0
303 590 m 1
 357 616 420 631 480 631 c 0
 580 631 646 585 721 561 c 1
 681 687 598 794 456 794 c 0
 360 794 323 689 303 590 c 1
610 123 m 0
 610 73 627 34 639 34 c 0
 679 34 753 238 753 340 c 0
 753 350 753 359 751 367 c 1
 664 345 610 211 610 123 c 0
EndSplineSet
Validated: 1
Ligature2: "'liga' Standard Ligatures lookup 1 subtable" afii10075 afii10069
EndChar

StartChar: fj
Encoding: 65540 -1 232
Width: 479
GlyphClass: 3
Flags: MW
HStem: -645 38<-48 49 -48 85> 269 40<58 128> 656 41<389 430>
VStem: -246 64<-425 -326> -17 61<-418.5 -402> 404 60<389 400> 491 64<583 609>
LayerCount: 2
Fore
SplineSet
-246 -371 m 0
 -246 -281 -187 -163 -110 -163 c 0
 -98 -163 -90 -167 -90 -175 c 0
 -90 -196 -182 -206 -182 -347 c 0
 -182 -503 -92 -607 -4 -607 c 0
 102 -607 196 -477 234 -381 c 0
 324 -152 299 103 379 328 c 1
 323 306 240 286 183 279 c 1
 128 78 91 -179 44 -402 c 0
 44 -415 17 -423 -1 -423 c 0
 -10 -423 -17 -421 -17 -416 c 0
 -17 -415 0 -217 116 272 c 1
 92 270 73 269 64 269 c 0
 52 269 47 273 47 278 c 0
 47 290 73 309 94 309 c 2
 128 309 l 1
 211 611 326 697 452 697 c 0
 513 697 555 664 555 609 c 0
 555 557 518 497 435 497 c 0
 431 497 423 498 423 504 c 0
 423 546 491 535 491 588 c 0
 491 630 446 656 414 656 c 0
 332 656 280 587 193 315 c 1
 267 324 351 355 395 370 c 1
 404 389 l 1
 404 399 424 409 442 409 c 0
 454 409 464 405 464 395 c 1
 380 219 389 -3 354 -191 c 0
 317 -385 202 -645 -32 -645 c 0
 -154 -645 -246 -543 -246 -371 c 0
EndSplineSet
Validated: 1
Ligature2: "'liga' Standard Ligatures lookup 1 subtable" f j
EndChar

StartChar: fd
Encoding: 65541 -1 233
Width: 670
GlyphClass: 3
Flags: MW
HStem: -15 51<453.5 482 453.5 497> 269 40<58 128> 363 47 621 20G<358.5 393> 794 42<239.5 316>
VStem: -17 61<-418.5 -402> 100 62<645 691> 372 66<91 140> 583 60<295.5 346.5>
LayerCount: 2
Fore
SplineSet
-17 -416 m 0
 -17 -415 0 -217 116 272 c 1
 92 270 73 269 64 269 c 0
 52 269 47 273 47 278 c 0
 47 290 73 309 94 309 c 2
 128 309 l 1
 150 392 178 464 212 518 c 1
 166 530 100 569 100 659 c 0
 100 723 159 836 302 836 c 0
 552 836 643 576 643 362 c 0
 643 207 551 -15 443 -15 c 0
 407 -15 372 26 372 81 c 0
 372 199 443 405 578 410 c 1
 562 520 541 607 478 693 c 0
 427 762 353 794 279 794 c 0
 200 794 162 727 162 671 c 0
 162 619 201 575 240 559 c 1
 282 612 331 641 386 641 c 0
 400 641 405 635 405 629 c 0
 405 627 404 624 403 622 c 0
 386 561 316 527 268 517 c 1
 238 466 211 395 193 315 c 1
 291 328 352 355 371 355 c 0
 379 355 382 353 382 349 c 0
 382 312 274 290 183 279 c 1
 128 78 91 -179 44 -402 c 0
 44 -415 17 -423 -1 -423 c 0
 -10 -423 -17 -421 -17 -416 c 0
438 109 m 0
 438 73 446 36 461 36 c 0
 503 36 583 250 583 341 c 0
 583 352 581 363 568 363 c 0
 496 363 438 209 438 109 c 0
EndSplineSet
Validated: 1
Ligature2: "'liga' Standard Ligatures lookup 1 subtable" f d
EndChar

StartChar: tt
Encoding: 65542 -1 234
Width: 667
GlyphClass: 3
Flags: MW
HStem: 0 54<175.5 187 476.5 488> 258 45 270 46<56.5 112>
VStem: 79 70<73.5 89> 380 70<73.5 88.5> 462 79
LayerCount: 2
Fore
SplineSet
28 295 m 0xbc
 28 312 46 316 67 316 c 0xbc
 86 316 107 313 122 313 c 1
 132 356 145 404 161 461 c 0
 166 490 193 519 219 519 c 0
 231 519 240 515 240 504 c 0
 240 489 200 367 184 303 c 1
 202 302 221 301 240 301 c 0
 304 301 373 306 422 311 c 1
 423 313 l 1
 434 356 445 404 462 461 c 0
 467 490 494 519 520 519 c 0
 532 519 541 515 541 504 c 0
 541 489 506 387 490 323 c 1
 591 342 694 374 711 374 c 0
 719 374 722 372 722 368 c 0
 722 329 592 298 480 282 c 1
 462 207 450 135 450 82 c 0
 450 65 469 54 484 54 c 0
 545 54 568 123 612 123 c 0
 619 123 624 121 624 118 c 0
 624 106 529 0 447 0 c 0
 414 0 380 26 380 72 c 0
 380 105 387 163 411 267 c 1
 366 260 309 258 248 258 c 0xdc
 225 258 193 260 174 262 c 1
 156 187 149 135 149 82 c 0
 149 65 168 54 183 54 c 0
 244 54 267 123 311 123 c 0
 318 123 323 121 323 118 c 0
 323 106 228 0 146 0 c 0
 113 0 79 26 79 72 c 0
 79 106 87 161 112 270 c 1
 101 270 28 287 28 295 c 0xbc
EndSplineSet
Validated: 1
Ligature2: "'liga' Standard Ligatures lookup 1 subtable" t t
EndChar

StartChar: ft
Encoding: 65543 -1 235
Width: 632
GlyphClass: 3
Flags: MW
HStem: 0 54<441.5 453> 264 36<187 206.5> 265 44<82.5 115> 656 41<388 429>
VStem: -17 61<-418.5 -402> 345 70<73.5 89> 427 79 486 64
LayerCount: 2
Fore
SplineSet
-17 -416 m 1xde
 -18 -416 l 1
 -18 -415 -1 -224 115 265 c 1
 97 265 46 271 46 278 c 0
 46 290 72 309 93 309 c 2
 127 304 l 1
 210 606 325 697 451 697 c 0
 486 697 549 683 549 628 c 0
 549 590 516 550 479 550 c 0
 465 550 453 555 453 561 c 0
 453 568 485 592 485 607 c 0xbd
 485 634 445 656 413 656 c 0
 331 656 274 572 187 300 c 1
 227 300 280 304 329 308 c 0
 345 311 363 312 378 312 c 0
 381 313 384 313 388 313 c 0
 398 356 408 404 427 461 c 0
 437 490 459 519 485 519 c 0
 497 519 506 515 506 504 c 0
 506 489 471 387 455 323 c 1
 556 342 659 374 676 374 c 0
 684 374 687 372 687 368 c 0
 687 329 557 298 445 282 c 1
 427 207 415 135 415 82 c 0
 415 65 434 54 449 54 c 0
 510 54 533 123 577 123 c 0
 584 123 589 121 589 118 c 0
 589 106 494 0 412 0 c 0
 379 0 345 26 345 72 c 0
 345 106 353 166 378 275 c 1
 371 274 365 273 358 273 c 0
 303 266 235 264 178 264 c 1
 123 63 91 -179 44 -402 c 0
 44 -415 17 -423 -1 -423 c 0
 -10 -423 -17 -421 -17 -416 c 1xde
EndSplineSet
Validated: 1
Ligature2: "'liga' Standard Ligatures lookup 1 subtable" f t
EndChar

StartChar: commaaccent
Encoding: 65544 -1 236
Width: 364
GlyphClass: 2
Flags: MW
HStem: -227 251<41 197.5>
VStem: 137 73<-73 -44>
LayerCount: 2
Fore
SplineSet
27 -213 m 0
 27 -188 137 -156 137 -50 c 0
 137 -38 137 -24 135 -10 c 0
 135 10 165 24 185 24 c 0
 210 24 210 -1 210 -21 c 2
 210 -28 l 2
 210 -118 96 -227 49 -227 c 0
 33 -227 27 -221 27 -213 c 0
EndSplineSet
Validated: 1
EndChar

StartChar: minus
Encoding: 8722 8722 237
Width: 524
GlyphClass: 2
Flags: MW
HStem: 218 54
LayerCount: 2
Fore
SplineSet
32 226 m 0
 32 272 357 262 463 272 c 0
 479 272 485 268 485 262 c 0
 485 221 259 218 141 218 c 2
 48 218 l 2
 36 218 32 220 32 226 c 0
EndSplineSet
Validated: 1
EndChar

StartChar: fraction
Encoding: 8260 8260 238
Width: 892
GlyphClass: 2
Flags: MW
HStem: -174 21G<38 50> 650 20G<832 845>
LayerCount: 2
Fore
SplineSet
30 -168 m 0
 30 -166 32 -164 34 -162 c 0
 273 149 504 438 804 658 c 0
 812 666 826 670 838 670 c 0
 852 670 862 666 862 658 c 0
 862 654 860 650 854 646 c 0
 554 428 340 137 94 -152 c 0
 88 -164 58 -174 42 -174 c 0
 34 -174 30 -172 30 -168 c 0
EndSplineSet
Validated: 1
EndChar

StartChar: afii10066_afii10069
Encoding: 65545 -1 239
Width: 671
GlyphClass: 3
Flags: MW
HStem: -14 46<176 198 176 207> 555 41<298 380.5> 793 40<180 295>
VStem: -49 66<547.5 653 547.5 667> 80 71<116.5 208.5> 262 67<161 266.5> 388 67<80 152.5> 574 61 725 66<622 660>
LayerCount: 2
Fore
SplineSet
-49 601 m 0
 -49 733 103 833 257 833 c 0
 457 833 568 690 612 526 c 1
 684 532 725 592 725 652 c 0
 725 668 755 682 773 682 c 0
 783 682 791 678 791 667 c 0
 791 558 686 488 621 488 c 1
 630 442 635 394 635 349 c 0
 635 192 571 -10 452 -10 c 0
 413 -10 388 17 388 97 c 0
 388 208 439 355 573 376 c 1
 571 415 566 452 558 486 c 1
 453 494 429 555 332 555 c 0
 264 555 151 360 151 160 c 0
 151 73 167 32 185 32 c 0
 211 32 262 98 262 199 c 0
 262 334 191 342 191 356 c 0
 191 370 222 381 242 381 c 0
 276 381 329 322 329 224 c 0
 329 98 259 -14 155 -14 c 0
 110 -14 80 30 80 120 c 0
 80 297 155 596 362 596 c 0
 456 596 488 558 542 538 c 1
 488 695 367 793 223 793 c 0
 95 793 17 695 17 611 c 0
 17 484 121 449 121 436 c 0
 121 420 88 411 70 411 c 0
 28 411 -49 488 -49 601 c 0
455 101 m 0
 455 59 468 32 478 32 c 0
 516 32 573 184 574 339 c 1
 506 323 455 217 455 101 c 0
EndSplineSet
Validated: 1
Ligature2: "'liga' Standard Ligatures lookup 1 subtable" afii10066 afii10069
EndChar

StartChar: ct
Encoding: 65546 -1 240
Width: 692
GlyphClass: 3
Flags: MW
HStem: 0 54<501.5 513> 2 43<154.5 195> 275 38 335 74<296 314.5 296 314.5 299 314.5 300.5 302> 612 35<329.5 384>
VStem: 38 76<113.5 157.5> 212 58<485 520 484.5 549> 405 70<73.5 89>
LayerCount: 2
Fore
SplineSet
38 109 m 0x7f
 38 206 126 351 236 395 c 1
 220 429 212 470 212 500 c 0
 212 598 301 647 358 647 c 0
 482 647 490 520 537 518 c 2
 538 518 l 1
 543 523 554 527 561 527 c 0
 574 527 582 521 582 510 c 0
 582 501 572 484 559 474 c 1
 548 436 526 369 515 323 c 1
 616 342 719 374 736 374 c 0
 744 374 747 372 747 368 c 0
 747 329 617 298 505 282 c 1
 487 207 475 135 475 82 c 0
 475 65 494 54 509 54 c 0
 570 54 593 123 637 123 c 0
 644 123 649 121 649 118 c 0
 649 106 554 0 472 0 c 0xbf
 439 0 405 26 405 72 c 0
 405 106 413 166 438 275 c 1
 411 272 387 271 371 271 c 0
 359 271 354 275 354 280 c 0
 354 312 415 311 448 313 c 1
 458 356 468 404 487 461 c 0
 490 469 493 477 498 485 c 1
 451 523 417 612 351 612 c 0
 289 612 270 539 270 501 c 0
 270 468 279 436 294 408 c 0
 297 408 299 409 302 409 c 0
 327 409 348 400 356 373 c 1
 356 357 336 344 317 338 c 0
 313 336 307 335 302 335 c 2
 300 335 l 1
 299 335 l 1
 296 335 l 2
 280 336 265 347 253 364 c 1
 185 351 114 220 114 142 c 0
 114 85 126 45 183 45 c 0
 238 45 280 132 302 132 c 0
 312 132 320 129 320 122 c 0
 320 94 239 2 151 2 c 0
 71 2 38 42 38 109 c 0x7f
EndSplineSet
Validated: 1
Ligature2: "'liga' Standard Ligatures lookup 1 subtable" c t
EndChar

StartChar: st
Encoding: 64262 64262 241
Width: 709
GlyphClass: 3
Flags: MW
HStem: -9 42<139.5 179 139.5 187.5> 0 54<518.5 530> 275 38 377 58<331 339> 572 35<313.5 371>
VStem: 11 70<78.5 100.5> 80 71<255.5 315 255.5 321.5> 186 58<467 500 466.5 529> 239 61<70 117.5> 422 70<73.5 89>
LayerCount: 2
Fore
SplineSet
11 94 m 0xbcc0
 11 107 39 119 60 119 c 0
 72 119 81 115 81 104 c 0
 81 53 120 33 159 33 c 0
 199 33 239 54 239 86 c 0xbcc0
 239 149 80 171 80 290 c 0
 80 353 141 396 214 417 c 1
 197 433 186 454 186 480 c 0
 186 578 285 607 342 607 c 0
 467 607 504 548 552 518 c 1
 557 523 578 537 585 537 c 0
 598 537 606 531 606 520 c 0
 606 512 593 494 578 481 c 1
 568 444 544 372 532 323 c 1
 633 342 736 374 753 374 c 0
 761 374 764 372 764 368 c 0
 764 329 634 298 522 282 c 1
 504 207 492 135 492 82 c 0
 492 65 511 54 526 54 c 0
 587 54 610 123 654 123 c 0
 661 123 666 121 666 118 c 0
 666 106 571 0 489 0 c 0
 456 0 422 26 422 72 c 0
 422 106 430 166 455 275 c 1
 428 272 404 271 388 271 c 0
 376 271 371 275 371 280 c 0
 371 312 432 311 465 313 c 1
 475 356 485 404 504 461 c 0
 506 468 510 476 514 483 c 1
 455 518 407 572 335 572 c 0
 273 572 244 519 244 481 c 0
 244 452 271 440 305 433 c 0
 315 434 326 435 336 435 c 0
 356 435 370 428 370 424 c 2
 370 422 l 2
 369 400 356 377 322 377 c 0
 303 377 281 381 260 389 c 1
 203 375 151 338 151 292 c 0x7b40
 151 219 300 184 300 94 c 0
 300 27 225 -9 150 -9 c 0
 67 -9 11 35 11 94 c 0xbcc0
EndSplineSet
Validated: 1
Ligature2: "'liga' Standard Ligatures lookup 1 subtable" s t
EndChar

StartChar: e.alt
Encoding: 65547 -1 242
Width: 323
GlyphClass: 2
Flags: MW
HStem: -10 45<141 168> 378 41<249 272>
VStem: 28 67<83 124 83 159> 301 61<321.5 350.5>
LayerCount: 2
Fore
SplineSet
28 89 m 0
 28 229 172 419 283 419 c 0
 319 419 362 399 362 353 c 0
 362 273 216 201 107 183 c 1
 102 167 95 136 95 112 c 0
 95 54 128 35 154 35 c 0
 221 35 230 86 277 86 c 0
 284 86 291 81 291 75 c 0
 291 61 209 -10 127 -10 c 0
 83 -10 28 17 28 89 c 0
121 228 m 1
 203 246 301 305 301 338 c 0
 301 363 281 378 263 378 c 0
 235 378 152 310 121 228 c 1
EndSplineSet
Validated: 1
EndChar

StartChar: sh
Encoding: 65548 -1 243
Width: 813
GlyphClass: 3
Flags: MW
HStem: -9 42<139.5 179 139.5 187.5> 0 43<705.5 743> 335 40<662.5 679> 387 48<336 346 332 349.5> 527 36<590 644.5> 624 35<382 430.5>
VStem: 11 70<78.5 100.5> 80 71<255.5 321 255.5 330.5> 239 61<70 117.5> 254 58<497 535 494 555.5> 667 59<592.5 605> 672 62<64.5 96> 693 68<262 291.5>
LayerCount: 2
Fore
SplineSet
11 94 m 0xbe80
 11 107 39 119 60 119 c 0
 72 119 81 115 81 104 c 0
 81 53 120 33 159 33 c 0
 199 33 239 54 239 86 c 0xbe80
 239 149 80 171 80 290 c 0
 80 371 180 417 275 430 c 1
 261 453 254 483 254 511 c 0
 254 600 343 659 420 659 c 0
 476 659 522 626 561 598 c 1
 575 614 590 625 606 633 c 0
 630 648 655 657 676 657 c 0
 704 657 726 647 726 624 c 0xbd60
 726 561 652 527 592 527 c 0
 588 527 583 528 579 529 c 1
 535 433 497 280 468 172 c 1
 528 230 588 375 701 375 c 0
 745 375 761 341 761 294 c 0xbc08
 761 230 734 131 734 77 c 0
 734 52 743 43 743 43 c 1
 743 43 777 43 777 36 c 0
 777 17 762 0 723 0 c 0
 688 0 672 43 672 74 c 0x7c10
 672 118 693 240 693 278 c 0
 693 305 685 335 673 335 c 0
 652 335 499 149 440 22 c 0
 433 8 409 -1 391 -1 c 0
 387 -1 370 4 370 12 c 2
 460 372 l 2
 478 443 500 503 526 548 c 1
 526 549 l 1
 529 556 l 1
 490 584 448 624 413 624 c 0
 351 624 312 561 312 509 c 0
 312 479 313 450 332 435 c 1
 336 435 l 2
 356 435 370 428 370 424 c 0
 370 402 357 387 342 387 c 0
 330 387 320 389 310 395 c 1
 306 395 l 2
 235 395 151 350 151 292 c 0x7d48
 151 219 300 184 300 94 c 0
 300 27 225 -9 150 -9 c 0
 67 -9 11 35 11 94 c 0xbe80
603 571 m 1
 613 566 623 563 632 563 c 0
 657 563 667 579 667 599 c 0x3c20
 667 611 664 620 660 620 c 0
 643 620 622 598 603 571 c 1
EndSplineSet
Validated: 1
Ligature2: "'dlig' Discretionary Ligatures lookup 0 subtable" s h
EndChar

